<?xml version="1.0" encoding="utf-8"?>
<!-- Generator: Adobe Illustrator 26.0.2, SVG Export Plug-In . SVG Version: 6.00 Build 0)  -->
<svg version="1.1" id="Layer_1" xmlns="http://www.w3.org/2000/svg" xmlns:xlink="http://www.w3.org/1999/xlink" x="0px" y="0px"
	 viewBox="0 0 80.69 80.75" style="enable-background:new 0 0 80.69 80.75;" xml:space="preserve">
<style type="text/css">
	.st0{fill:#29ACE3;}
</style>
<g>
	<path class="st0" d="M35.92,80.75h-12.3c-1.43,0-2.59-1.16-2.59-2.59V31.8c0-1.43,1.16-2.59,2.59-2.59h12.3
		c1.43,0,2.59,1.16,2.59,2.59v46.36C38.51,79.6,37.35,80.75,35.92,80.75z M26.21,75.58h7.13V34.39h-7.13V75.58z"/>
	<path class="st0" d="M57.01,80.75h-12.3c-1.43,0-2.59-1.16-2.59-2.59V41.58c0-1.43,1.16-2.59,2.59-2.59h12.3
		c1.43,0,2.59,1.16,2.59,2.59v36.58C59.6,79.6,58.44,80.75,57.01,80.75z M47.3,75.58h7.13v-31.4H47.3V75.58z"/>
	<path class="st0" d="M78.11,80.75H65.8c-1.43,0-2.59-1.16-2.59-2.59V24.33c0-1.43,1.16-2.59,2.59-2.59h12.3
		c1.43,0,2.59,1.16,2.59,2.59v53.84C80.69,79.6,79.54,80.75,78.11,80.75z M68.39,75.58h7.13V26.92h-7.13V75.58z"/>
	<path class="st0" d="M14.83,80.75H2.53c-1.43,0-2.59-1.16-2.59-2.59V49.42c0-1.43,1.16-2.59,2.59-2.59h12.3
		c1.43,0,2.59,1.16,2.59,2.59v28.75C17.42,79.6,16.26,80.75,14.83,80.75z M5.12,75.58h7.13V52.01H5.12V75.58z"/>
	<path class="st0" d="M53.1,20.38L66.08,9.32l3.36,3.94L56.46,24.32L53.1,20.38z"/>
	<path class="st0" d="M33.6,21.44l1.96-4.79l11.47,4.7l-1.96,4.79L33.6,21.44z"/>
	<path class="st0" d="M12.22,24.47l11.8-6.98l2.64,4.45l-11.8,6.98L12.22,24.47z"/>
	<path class="st0" d="M29.79,24.85c-4.28,0-7.76-3.48-7.76-7.76s3.48-7.76,7.76-7.76s7.76,3.48,7.76,7.76S34.07,24.85,29.79,24.85z
		 M29.79,14.49c-1.43,0-2.59,1.16-2.59,2.59c0,1.43,1.16,2.59,2.59,2.59c1.43,0,2.59-1.16,2.59-2.59S31.22,14.49,29.79,14.49z"/>
	<path class="st0" d="M9.08,37.1c-4.28,0-7.76-3.48-7.76-7.76s3.48-7.76,7.76-7.76s7.76,3.48,7.76,7.76S13.37,37.1,9.08,37.1z
		 M9.08,26.75c-1.43,0-2.59,1.16-2.59,2.59c0,1.43,1.16,2.59,2.59,2.59s2.59-1.16,2.59-2.59C11.67,27.91,10.51,26.75,9.08,26.75z"/>
	<path class="st0" d="M50.84,33.48c-4.28,0-7.76-3.48-7.76-7.76s3.48-7.76,7.76-7.76s7.76,3.48,7.76,7.76S55.12,33.48,50.84,33.48z
		 M50.84,23.12c-1.43,0-2.59,1.16-2.59,2.59c0,1.43,1.16,2.59,2.59,2.59c1.43,0,2.59-1.16,2.59-2.59
		C53.43,24.28,52.27,23.12,50.84,23.12z"/>
	<path class="st0" d="M71.55,15.53c-4.28,0-7.76-3.48-7.76-7.76S67.27,0,71.55,0s7.76,3.48,7.76,7.76S75.83,15.53,71.55,15.53z
		 M71.55,5.18c-1.43,0-2.59,1.16-2.59,2.59s1.16,2.59,2.59,2.59c1.43,0,2.59-1.16,2.59-2.59S72.98,5.18,71.55,5.18z"/>
</g>
</svg>
