<?xml version="1.0" encoding="utf-8"?>
<!-- Generator: Adobe Illustrator 26.0.2, SVG Export Plug-In . SVG Version: 6.00 Build 0)  -->
<svg version="1.1" id="Layer_1" xmlns="http://www.w3.org/2000/svg" xmlns:xlink="http://www.w3.org/1999/xlink" x="0px" y="0px"
	 viewBox="0 0 72.82 97.31" style="enable-background:new 0 0 72.82 97.31;" xml:space="preserve">
<style type="text/css">
	.st0{fill:#29ACE3;}
</style>
<g>
	<path class="st0" d="M64.83,48.09H64.3c-1.18,0-2.31,0.23-3.32,0.64c-0.77-3.14-3.95-5.5-7.75-5.5H52.7c-1.36,0-2.63,0.3-3.75,0.83
		c-1.2-2.51-4.02-4.28-7.31-4.28H41.1c-1.12,0-2.18,0.2-3.14,0.57v-9.99c0-3.84-3.55-6.96-7.92-6.96h-0.54
		c-4.37,0-7.92,3.12-7.92,6.96v25.58l-3.61,2.41c-2.87,1.91-4.69,4.7-5.13,7.84c-0.43,3.14,0.58,6.23,2.84,8.69l11.26,12.23v4.86
		c0,2.94,2.72,5.33,6.07,5.33h28.11c3.35,0,6.07-2.39,6.07-5.33l0-4.62c3.6-3.97,5.57-8.9,5.57-13.96l0-18.36
		C72.76,51.21,69.2,48.09,64.83,48.09L64.83,48.09z M67.97,73.41c0,4.33-1.77,8.53-5,11.84c-0.37,0.38-0.57,0.86-0.57,1.36v5.37
		c0,0.62-0.58,1.13-1.29,1.13H33.01c-0.71,0-1.29-0.51-1.29-1.13v-5.61c0-0.48-0.19-0.95-0.53-1.32l-11.8-12.8
		c-1.45-1.57-2.09-3.54-1.81-5.54c0.28-2.01,1.44-3.78,3.27-5.01l0.72-0.48v5.81c0,1.16,1.07,2.1,2.39,2.1s2.39-0.94,2.39-2.1V57.02
		v-0.05v-26.6c0-1.52,1.41-2.76,3.14-2.76h0.54c1.73,0,3.14,1.24,3.14,2.76v16.37v0v0l0.01,13.62c0,1.16,1.07,2.1,2.39,2.1h0
		c1.32,0,2.39-0.94,2.39-2.1l-0.01-13.61c0,0,0-0.01,0-0.01c0-1.52,1.41-2.76,3.14-2.76h0.54c1.73,0,3.14,1.24,3.14,2.76v3.45v0v0
		l0.01,10.17c0,1.16,1.07,2.1,2.39,2.1h0c1.32,0,2.39-0.94,2.39-2.1l-0.01-10.17c0-1.52,1.41-2.76,3.14-2.76h0.54
		c1.73,0,3.14,1.24,3.14,2.76v4.31c-0.01,0.07-0.02,0.14-0.02,0.21l0.01,5.66c0,1.16,1.07,2.09,2.39,2.09h0
		c1.32,0,2.39-0.94,2.39-2.1l-0.01-5.12c0.01-0.07,0.02-0.13,0.02-0.19c0-1.52,1.41-2.76,3.14-2.76h0.54c1.73,0,3.14,1.24,3.14,2.76
		L67.97,73.41z"/>
	<path class="st0" d="M15.8,40.26c-0.8,0-1.58-0.4-2.03-1.13c-1.81-2.91-2.77-6.27-2.77-9.72c0-10.15,8.26-18.41,18.41-18.41
		s18.41,8.26,18.41,18.41c0,1.77-0.25,3.53-0.75,5.21c-0.37,1.27-1.71,1.99-2.97,1.62c-1.27-0.37-1.99-1.7-1.62-2.97
		c0.37-1.25,0.55-2.55,0.55-3.86c0-7.52-6.12-13.63-13.63-13.63s-13.63,6.12-13.63,13.63c0,2.55,0.71,5.04,2.05,7.19
		c0.7,1.12,0.35,2.59-0.77,3.29C16.66,40.14,16.23,40.26,15.8,40.26L15.8,40.26z"/>
	<path class="st0" d="M14.3,54.2c-0.46,0-0.93-0.13-1.34-0.41C4.85,48.31,0,39.19,0,29.41C0,13.19,13.19,0,29.41,0
		s29.41,13.19,29.41,29.41c0,3.71-0.68,7.33-2.03,10.75c-0.48,1.23-1.87,1.84-3.1,1.35c-1.23-0.48-1.83-1.87-1.35-3.1
		c1.13-2.87,1.7-5.9,1.7-9c0-13.58-11.05-24.63-24.63-24.63c-13.58,0-24.63,11.05-24.63,24.63c0,8.19,4.06,15.83,10.86,20.42
		c1.09,0.74,1.38,2.23,0.64,3.32C15.82,53.83,15.07,54.2,14.3,54.2L14.3,54.2z"/>
</g>
</svg>
