<?xml version="1.0" encoding="utf-8"?>
<!-- Generator: Adobe Illustrator 26.0.2, SVG Export Plug-In . SVG Version: 6.00 Build 0)  -->
<svg version="1.1" id="Layer_1" xmlns="http://www.w3.org/2000/svg" xmlns:xlink="http://www.w3.org/1999/xlink" x="0px" y="0px"
	 viewBox="0 0 47.59 48.49" style="enable-background:new 0 0 47.59 48.49;" xml:space="preserve">
<style type="text/css">
	.st0{fill:#29ACE3;}
</style>
<g>
	<path class="st0" d="M46.57,42.53L46.57,42.53l-7.5-7.5c-1.32,1.95-3.01,3.61-4.99,4.89l7.55,7.55v0c0.88,0.88,2.17,1.22,3.37,0.9
		c1.2-0.32,2.15-1.26,2.47-2.47C47.8,44.69,47.45,43.41,46.57,42.53z"/>
	<path class="st0" d="M32.21,38.17c2.2-1.5,4.12-3.39,5.61-5.6h0c0,0,0,0,0,0h0c1.79-2.67,2.92-5.69,3.34-8.82
		c0.08-0.63,0.14-1.26,0.16-1.89c0.05-1.27-0.01-2.54-0.2-3.82c-0.4-2.78-1.38-5.42-2.81-7.78c-0.45-0.74-0.94-1.46-1.49-2.15
		c-0.13-0.17-0.26-0.34-0.4-0.51c-0.78-0.92-1.64-1.78-2.58-2.56c0,0,0,0,0,0c-0.48-0.4-0.98-0.77-1.49-1.12
		C32.18,3.79,32,3.69,31.83,3.58c-0.35-0.22-0.69-0.45-1.05-0.65c-0.21-0.12-0.44-0.22-0.66-0.34c-0.33-0.17-0.66-0.34-0.99-0.5
		c-0.24-0.11-0.48-0.2-0.72-0.3c-0.33-0.13-0.66-0.27-0.99-0.39c-0.25-0.09-0.51-0.16-0.77-0.24c-0.33-0.1-0.66-0.2-1-0.29
		c-0.27-0.07-0.54-0.12-0.8-0.18c-0.33-0.07-0.67-0.14-1.01-0.19c-0.27-0.04-0.55-0.08-0.83-0.11c-0.34-0.04-0.67-0.08-1.02-0.1
		c-0.28-0.02-0.56-0.03-0.85-0.04c-0.19-0.01-0.38-0.03-0.57-0.03c-0.28,0-0.57,0.01-0.85,0.02C14.59,0.47,9.72,2.57,6.05,6.17
		c-1.84,1.8-3.3,3.9-4.35,6.2c-0.37,0.8-0.66,1.64-0.93,2.48c-0.49,1.57-0.81,3.2-0.91,4.87c-0.12,1.92,0.03,3.84,0.43,5.69
		c0.67,3.09,2.05,6.01,4.05,8.52c0.35,0.44,0.72,0.87,1.11,1.27c0.12,0.13,0.26,0.25,0.38,0.38c0.27,0.27,0.53,0.54,0.82,0.79
		c0.16,0.14,0.32,0.27,0.48,0.41c0.26,0.23,0.53,0.45,0.8,0.66c0.18,0.13,0.36,0.26,0.54,0.39c0.27,0.2,0.55,0.39,0.83,0.58
		c0.19,0.12,0.38,0.23,0.58,0.35c0.29,0.17,0.57,0.34,0.87,0.5c0.2,0.11,0.4,0.2,0.6,0.3c0.3,0.15,0.6,0.29,0.91,0.43
		c0.2,0.09,0.41,0.17,0.62,0.25c0.31,0.13,0.63,0.25,0.95,0.36c0.21,0.07,0.42,0.14,0.63,0.2c0.19,0.06,0.37,0.13,0.56,0.18
		c-0.02-0.01-0.03-0.02-0.05-0.03c0.26,0.07,0.51,0.16,0.76,0.22c0.48,0.12,0.96,0.23,1.45,0.31c0,0,0.01,0,0.01,0
		c0.01,0,0.02,0,0.03,0c0.59,0.1,1.18,0.17,1.77,0.21c0.2,0.02,0.41,0.02,0.61,0.03c0.33,0.02,0.65,0.04,0.98,0.04
		c0.08,0,0.16-0.01,0.24-0.01c0.17,0,0.34-0.01,0.51-0.02c0.4-0.01,0.79-0.04,1.19-0.08c0.21-0.02,0.42-0.04,0.63-0.07
		c0.38-0.05,0.75-0.11,1.13-0.18c0.35-0.06,0.71-0.14,1.06-0.22c0.27-0.06,0.54-0.12,0.81-0.2c0.01,0,0.01-0.01,0.02-0.01
		c0,0,0,0,0,0c-0.01,0-0.01,0.01-0.02,0.01c1.96-0.54,3.84-1.37,5.58-2.48c0.02-0.01,0.04-0.02,0.06-0.04
		C31.92,38.38,32.06,38.27,32.21,38.17z M24.76,36.3c-0.06,0.02-0.12,0.03-0.17,0.05c-0.55,0.14-1.1,0.26-1.66,0.34
		c-0.07,0.01-0.15,0.02-0.22,0.03c-0.55,0.08-1.1,0.12-1.66,0.14c-0.08,0-0.17,0.01-0.25,0.01c-0.38,0.01-0.75-0.02-1.13-0.04
		c-0.26-0.01-0.52-0.02-0.79-0.04c-0.37-0.04-0.73-0.11-1.1-0.17c-0.24-0.04-0.49-0.07-0.73-0.12c-0.4-0.09-0.8-0.22-1.2-0.34
		c-0.2-0.06-0.4-0.1-0.59-0.17c-0.59-0.21-1.17-0.45-1.74-0.72c0,0,0,0,0,0c-1.16-0.57-2.23-1.27-3.2-2.08l0,0
		C7.4,30.74,5.41,27.3,4.8,23.45c-0.15-0.96-0.22-1.92-0.19-2.88c0.07-2.86,0.91-5.65,2.42-8.07c0.67-1.08,1.48-2.08,2.41-2.98
		c0.34-0.33,0.69-0.63,1.05-0.92c0.07-0.06,0.15-0.12,0.22-0.18c0.35-0.28,0.72-0.54,1.09-0.78c0.07-0.04,0.13-0.08,0.2-0.12
		c0.35-0.22,0.71-0.43,1.07-0.62c0.06-0.03,0.11-0.06,0.17-0.09c0.4-0.2,0.8-0.39,1.21-0.56c0.09-0.04,0.18-0.07,0.27-0.11
		c0.42-0.16,0.84-0.32,1.27-0.44c0.03-0.01,0.06-0.02,0.09-0.03c0.41-0.12,0.83-0.22,1.25-0.31c0.08-0.02,0.17-0.04,0.25-0.05
		c0.44-0.08,0.88-0.15,1.32-0.19c0.08-0.01,0.17-0.01,0.25-0.02c0.43-0.04,0.86-0.06,1.29-0.06c0.04,0,0.08,0,0.12,0
		c0.44,0,0.87,0.02,1.31,0.06c0.1,0.01,0.2,0.02,0.3,0.03c0.44,0.05,0.88,0.1,1.32,0.19c2.55,0.48,4.9,1.57,6.88,3.12
		c0.5,0.39,0.97,0.81,1.41,1.25c0.03,0.03,0.05,0.06,0.07,0.08c0.86,0.87,1.63,1.84,2.28,2.9c0.33,0.55,0.63,1.12,0.9,1.71
		c0.02,0.05,0.04,0.1,0.06,0.15c0.31,0.71,0.57,1.44,0.78,2.18c0.09,0.31,0.16,0.61,0.23,0.92c0.11,0.51,0.19,1.02,0.25,1.53
		c0.06,0.54,0.1,1.09,0.11,1.64c0,0.02,0,0.05,0,0.07c0.02,2.84-0.72,5.67-2.19,8.18c-0.46,0.78-0.98,1.52-1.55,2.2
		c-0.02,0.03-0.05,0.05-0.07,0.08c-0.56,0.66-1.17,1.27-1.83,1.82c-0.36,0.3-0.73,0.58-1.12,0.85c-0.09,0.07-0.19,0.13-0.28,0.19
		c-0.39,0.26-0.8,0.52-1.21,0.75l0,0l0,0c-0.54,0.3-1.1,0.56-1.67,0.79c-0.03,0.01-0.07,0.03-0.1,0.04
		C25.88,35.96,25.33,36.14,24.76,36.3z"/>
	<path class="st0" d="M30.68,30.41c-0.63-3.32-2.85-6.07-5.84-7.43c1.43-1.21,2.34-3.02,2.34-5.04c0-3.65-2.96-6.6-6.6-6.6
		s-6.6,2.96-6.6,6.6c0,2.02,0.91,3.83,2.34,5.04c-3.02,1.38-5.25,4.17-5.86,7.52c1.12,1.19,2.46,2.18,3.97,2.92
		c1.89,0.93,4,1.42,6.11,1.42c2.33,0,4.65-0.59,6.7-1.72C28.53,32.41,29.68,31.48,30.68,30.41z"/>
</g>
</svg>
