<?xml version="1.0" encoding="utf-8"?>
<!-- Generator: Adobe Illustrator 26.0.2, SVG Export Plug-In . SVG Version: 6.00 Build 0)  -->
<svg version="1.1" id="Layer_1" xmlns="http://www.w3.org/2000/svg" xmlns:xlink="http://www.w3.org/1999/xlink" x="0px" y="0px"
	 viewBox="0 0 44.4 53.82" style="enable-background:new 0 0 44.4 53.82;" xml:space="preserve">
<style type="text/css">
	.st0{fill:#29ACE3;}
</style>
<g>
	<path class="st0" d="M42.69,45.49H28.51c-0.62-2.25-2.38-4.01-4.63-4.63V38c7.32-0.34,14.17-2.63,14.17-6.8V6.86
		c0-4.51-8-6.86-15.89-6.86C14.28,0,6.28,2.34,6.28,6.86V31.2c0,4.17,6.86,6.46,14.17,6.8v2.8v0c-2.25,0.62-4.01,2.38-4.63,4.63
		H1.65c-0.61,0-1.18,0.33-1.48,0.86c-0.31,0.53-0.31,1.18,0,1.71s0.87,0.86,1.48,0.86h14.17c0.48,1.91,1.79,3.49,3.57,4.33
		c1.78,0.84,3.84,0.84,5.61,0c1.78-0.84,3.09-2.43,3.57-4.33h14.12c0.61,0,1.18-0.33,1.48-0.86c0.31-0.53,0.31-1.18,0-1.71
		c-0.31-0.53-0.87-0.86-1.48-0.86L42.69,45.49z M22.17,3.43c8.06,0,12.46,2.4,12.46,3.43c0,1.03-4.34,3.43-12.46,3.43
		S9.71,7.89,9.71,6.86S14.11,3.43,22.17,3.43z M9.71,11.26c3.09,1.6,7.77,2.46,12.46,2.46c4.69,0,9.37-0.8,12.46-2.46v7.54
		c0,0.97-4.34,3.43-12.46,3.43S9.71,19.83,9.71,18.8V11.26z M9.71,31.2v-8c3.09,1.6,7.77,2.46,12.46,2.46
		c4.69,0,9.37-0.8,12.46-2.46v8c0,0.97-4.34,3.43-12.46,3.43S9.71,32.23,9.71,31.2z M22.17,50.4c-0.85,0-1.66-0.34-2.26-0.94
		c-0.6-0.6-0.94-1.41-0.94-2.26c0-0.85,0.34-1.66,0.94-2.26c0.6-0.6,1.41-0.94,2.26-0.94s1.66,0.34,2.26,0.94
		c0.6,0.6,0.94,1.41,0.94,2.26c0,0.85-0.34,1.66-0.94,2.26C23.83,50.07,23.02,50.4,22.17,50.4z"/>
</g>
</svg>
