<?xml version="1.0" encoding="utf-8"?>
<!-- Generator: Adobe Illustrator 27.7.0, SVG Export Plug-In . SVG Version: 6.00 Build 0)  -->
<svg version="1.1" xmlns="http://www.w3.org/2000/svg" xmlns:xlink="http://www.w3.org/1999/xlink" x="0px" y="0px"
	 viewBox="0 0 24 24" style="enable-background:new 0 0 24 24;" xml:space="preserve">
<style type="text/css">
	.st0{display:none;}
	.st1{display:inline;fill:none;stroke:#16A2DA;stroke-width:2;stroke-linecap:round;stroke-linejoin:round;}
	.st2{fill:#16A2DA;}
	.st3{fill:none;stroke:#16A2DA;stroke-width:2;}
	.st4{display:inline;}
	.st5{fill:none;stroke:#16A2DA;stroke-width:2;stroke-linecap:round;stroke-linejoin:round;}
</style>
<g id="Calque_1" class="st0">
	<path class="st1" d="M21,12l-9-9l-9,9"/>
	<path class="st1" d="M19,10v10.3c0,0.2-0.1,0.4-0.3,0.5C18.6,21,18.4,21,18.2,21h-3.9v-6.9H9.7V21H5.8c-0.2,0-0.4,0-0.6-0.2
		C5.1,20.7,5,20.5,5,20.3V10"/>
</g>
<g id="Calque_2">
	<g>
		<g>
			<polygon class="st2" points="11,9.2 11,9.2 10.9,8.9 			"/>
			<polygon class="st2" points="15.5,10.7 15.5,10.7 15.2,10.6 			"/>
			<path class="st2" d="M12.5,15.4c-0.2-0.1-0.5-0.2-0.9-0.2h-0.5c-0.3,0-0.6,0-0.9,0.2c-0.1,0.1-0.2,0.1-0.3,0.3
				c-0.1,0.1-0.1,0.2-0.1,0.4v1.5c0,0.1,0,0.3,0.1,0.4c0.1,0.1,0.2,0.2,0.3,0.3c0.2,0.1,0.5,0.2,0.9,0.2h0.5c0.3,0,0.6,0,0.9-0.2
				c0.1-0.1,0.2-0.1,0.3-0.3c0.1-0.1,0.1-0.2,0.1-0.4V16c0-0.1,0-0.3-0.1-0.4C12.7,15.5,12.6,15.4,12.5,15.4z"/>
			<path class="st2" d="M15.2,7.8L15.2,7.8C15.2,7.8,15.2,7.8,15.2,7.8C15.2,7.8,15.2,7.8,15.2,7.8L15.2,7.8
				c-0.3-0.5-0.8-0.8-1.3-1.1l0,0c0,0,0,0,0,0c0,0,0,0,0,0l0,0c-0.6-0.3-1.2-0.4-2-0.4c-0.3,0-0.7,0-1,0.1l0,0c0,0,0,0,0,0
				c0,0,0,0,0,0l0,0c-0.4,0-0.7,0.1-1,0.2l0,0c0,0,0,0,0,0c0,0,0,0,0,0l0,0C9.5,6.8,9.3,6.9,9,7.1l0,0c0,0,0,0,0,0c0,0,0,0,0,0l0,0
				C8.8,7.3,8.6,7.6,8.6,7.9c0,0.2,0.1,0.4,0.2,0.6C8.9,8.8,9.1,9,9.3,9.2L9.5,9l0,0l0,0L9.3,9.2l0,0c0.2,0.2,0.4,0.4,0.7,0.4
				c0.1,0,0.2,0,0.2-0.1c0.1,0,0.2-0.1,0.2-0.1l0,0c0.2-0.1,0.3-0.2,0.6-0.2l-0.1-0.3l0,0l0,0L11,9.2C11.2,9.1,11.5,9,11.7,9
				c0.4,0,0.6,0.1,0.7,0.2c0.1,0.1,0.2,0.2,0.2,0.4c0,0.2-0.1,0.4-0.4,0.7l0,0l0.2,0.2l0,0l0,0l-0.2-0.2c-0.3,0.3-0.6,0.7-1,1.1
				l0.2,0.2l0,0l0,0l-0.2-0.2l0,0c-0.3,0.3-0.5,0.7-0.8,1.1l0,0c0,0,0,0,0,0c0,0,0,0,0,0l0,0c-0.3,0.4-0.4,0.9-0.4,1.4
				c0,0.2,0.1,0.5,0.3,0.6l0,0l0,0l0.1-0.3l0,0l-0.1,0.3c0.2,0.1,0.5,0.1,0.7,0.1h0.4c0.3,0,0.5,0,0.7-0.1l0-0.1l0,0.1l0,0l-0.1-0.3
				l0,0l0.1,0.3c0.2-0.1,0.4-0.3,0.4-0.6l0,0c0.1-0.3,0.2-0.6,0.5-0.8l0,0l0,0L13,13l0,0l0.2,0.2c0.3-0.3,0.6-0.6,0.9-0.9l0,0
				c0.3-0.2,0.5-0.5,0.7-0.7l0,0c0,0,0,0,0,0c0,0,0,0,0,0l0,0c0.3-0.3,0.5-0.6,0.6-0.9l-0.3-0.1l0,0l0,0l0.3,0.1
				c0.2-0.4,0.3-0.8,0.3-1.3C15.7,8.8,15.6,8.3,15.2,7.8z M10,6.9L10,6.9L10,6.9L10,6.9L10,6.9z M9.2,7.3L9.2,7.3L9.2,7.3L9.2,7.3z
				 M10.3,9.1L10.3,9.1L10.3,9.1L10.3,9.1z M10.8,12.7L10.8,12.7L10.8,12.7L10.8,12.7z M14.6,11.5L14.6,11.5L14.6,11.5L14.6,11.5z"
				/>
		</g>
		<circle class="st3" cx="12" cy="12.5" r="9.5"/>
	</g>
</g>
<g id="Calque_3" class="st0">
	<g class="st4">
		<path class="st5" d="M12.6,12.2c-0.2,0.1-0.4,0.1-0.5,0.1s-0.4-0.1-0.5-0.2L5.7,8.4 M12.6,12.2c-0.2,0.1-0.3,0.2-0.5,0.2
			c-0.2,0-0.4-0.1-0.5-0.2 M12.6,12.2l5.8-3.8"/>
		<path class="st5" d="M3.7,4.4c-0.2,0-0.4,0.1-0.6,0.2C3,4.7,2.8,4.9,2.7,5.1C2.6,5.3,2.6,5.6,2.6,5.8v13.1c0,0.4,0.1,0.7,0.3,1
			c0.2,0.3,0.5,0.4,0.7,0.4h16.9c0.3,0,0.5-0.2,0.7-0.4c0.2-0.3,0.3-0.6,0.3-1V5.8c0-0.3-0.1-0.5-0.2-0.7c-0.1-0.2-0.2-0.4-0.4-0.5
			c-0.2-0.1-0.4-0.2-0.5-0.2L3.7,4.4"/>
	</g>
</g>
<g id="Calque_4" class="st0">
	<g class="st4">
		<path class="st5" d="M17.3,4.1h3.1c0.3,0,0.5,0.1,0.7,0.3c0.2,0.2,0.3,0.5,0.3,0.7v14.6c0,0.3-0.1,0.5-0.3,0.7
			c-0.2,0.2-0.5,0.3-0.7,0.3h-3.1 M10.6,19.1L9,17.7c-0.1-0.1-0.2-0.2-0.3-0.3c-0.1-0.1-0.1-0.3-0.1-0.4s0-0.3,0-0.4
			c0-0.1,0.1-0.3,0.2-0.4l1.5-1.7H2.7v-4.2h7.6L8.9,8.7C8.7,8.4,8.7,8.2,8.7,7.9c0-0.3,0.1-0.5,0.3-0.7l1.6-1.4
			c0.1-0.1,0.2-0.2,0.4-0.2c0.1-0.1,0.3-0.1,0.4-0.1c0.1,0,0.3,0,0.4,0.1c0.1,0.1,0.2,0.2,0.3,0.3l5,5.8c0.2,0.2,0.3,0.4,0.3,0.7
			c0,0.2-0.1,0.5-0.3,0.7l-5,5.8c-0.1,0.1-0.2,0.2-0.3,0.3c-0.1,0.1-0.3,0.1-0.4,0.1c-0.1,0-0.3,0-0.4-0.1
			C10.8,19.2,10.7,19.2,10.6,19.1z"/>
	</g>
</g>
<g id="Calque_5" class="st0">
	<path class="st1" d="M17.5,4.1h3c0.3,0,0.5,0.1,0.7,0.3c0.2,0.2,0.3,0.5,0.3,0.7v14.5c0,0.3-0.1,0.5-0.3,0.7
		c-0.2,0.2-0.4,0.3-0.7,0.3h-3 M9.9,5.8l1.6,1.4c0.1,0.1,0.2,0.2,0.2,0.3c0.1,0.1,0.1,0.3,0.1,0.4c0,0.1,0,0.3,0,0.4
		c0,0.1-0.1,0.2-0.2,0.4l-1.5,1.6h7.3v4.1h-7.3l1.4,1.7c0.2,0.2,0.3,0.5,0.3,0.7c0,0.3-0.1,0.5-0.3,0.7L9.9,19
		c-0.1,0.1-0.2,0.2-0.4,0.2c-0.1,0-0.3,0.1-0.4,0.1c-0.1,0-0.3-0.1-0.4-0.1c-0.1-0.1-0.2-0.2-0.3-0.3l-4.8-5.8
		c-0.2-0.2-0.2-0.4-0.2-0.7s0.1-0.5,0.2-0.7L8.5,6c0.1-0.1,0.2-0.2,0.3-0.3C8.9,5.6,9,5.6,9.2,5.6c0.1,0,0.3,0,0.4,0.1
		C9.7,5.7,9.8,5.7,9.9,5.8L9.9,5.8z"/>
</g>
</svg>
