<?xml version="1.0" encoding="utf-8"?>
<!-- Generator: Adobe Illustrator 26.0.2, SVG Export Plug-In . SVG Version: 6.00 Build 0)  -->
<svg version="1.1" id="Layer_1" xmlns="http://www.w3.org/2000/svg" xmlns:xlink="http://www.w3.org/1999/xlink" x="0px" y="0px"
	 viewBox="0 0 63.3 85.82" style="enable-background:new 0 0 63.3 85.82;" xml:space="preserve">
<style type="text/css">
	.st0{fill:#29ACE3;}
</style>
<g>
	<g>
		<path class="st0" d="M40.65,24.84h-27.1c-2.48,0-4.52,2.03-4.52,4.52v15.81c0,2.48,2.03,4.52,4.52,4.52h27.1
			c2.48,0,4.52-2.03,4.52-4.52V29.36C45.17,26.87,43.14,24.84,40.65,24.84L40.65,24.84z M13.55,45.17V29.36h27.1v15.81H13.55z"/>
		<path class="st0" d="M15.81,54.2h-4.52c-1.24,0-2.26,1.02-2.26,2.26c0,1.24,1.02,2.26,2.26,2.26h4.52c1.24,0,2.26-1.02,2.26-2.26
			C18.07,55.22,17.05,54.2,15.81,54.2z"/>
		<path class="st0" d="M29.36,54.2h-4.52c-1.24,0-2.26,1.02-2.26,2.26c0,1.24,1.02,2.26,2.26,2.26h4.52c1.24,0,2.26-1.02,2.26-2.26
			C31.62,55.22,30.6,54.2,29.36,54.2z"/>
		<path class="st0" d="M42.91,54.2h-4.52c-1.24,0-2.26,1.02-2.26,2.26c0,1.24,1.02,2.26,2.26,2.26h4.52c1.24,0,2.26-1.02,2.26-2.26
			C45.17,55.22,44.15,54.2,42.91,54.2z"/>
		<path class="st0" d="M15.81,63.23h-4.52c-1.24,0-2.26,1.02-2.26,2.26c0,1.24,1.02,2.26,2.26,2.26h4.52c1.24,0,2.26-1.02,2.26-2.26
			C18.07,64.25,17.05,63.23,15.81,63.23z"/>
		<path class="st0" d="M29.36,63.23h-4.52c-1.24,0-2.26,1.02-2.26,2.26c0,1.24,1.02,2.26,2.26,2.26h4.52c1.24,0,2.26-1.02,2.26-2.26
			C31.62,64.25,30.6,63.23,29.36,63.23z"/>
		<path class="st0" d="M42.91,63.23h-4.52c-1.24,0-2.26,1.02-2.26,2.26c0,1.24,1.02,2.26,2.26,2.26h4.52c1.24,0,2.26-1.02,2.26-2.26
			C45.17,64.25,44.15,63.23,42.91,63.23z"/>
		<path class="st0" d="M15.81,72.27h-4.52c-1.24,0-2.26,1.02-2.26,2.26s1.02,2.26,2.26,2.26h4.52c1.24,0,2.26-1.02,2.26-2.26
			C18.07,73.29,17.05,72.27,15.81,72.27z"/>
		<path class="st0" d="M29.36,72.27h-4.52c-1.24,0-2.26,1.02-2.26,2.26s1.02,2.26,2.26,2.26h4.52c1.24,0,2.26-1.02,2.26-2.26
			C31.62,73.29,30.6,72.27,29.36,72.27z"/>
		<path class="st0" d="M42.91,72.27h-4.52c-1.24,0-2.26,1.02-2.26,2.26s1.02,2.26,2.26,2.26h4.52c1.24,0,2.26-1.02,2.26-2.26
			C45.17,73.29,44.15,72.27,42.91,72.27z"/>
		<path class="st0" d="M58.72,24.84H54.2v-6.78c0-3.73-3.05-6.78-6.78-6.78h-6.78V4.52c0-2.48-2.03-4.52-4.52-4.52H18.07
			c-2.48,0-4.52,2.03-4.52,4.52v6.78H6.78C3.05,11.29,0,14.34,0,18.07v60.98c0,3.73,3.05,6.78,6.78,6.78h40.65
			c3.73,0,6.78-3.05,6.78-6.78v-2.26h4.52c2.48,0,4.52-2.03,4.52-4.52V29.36C63.24,26.87,61.2,24.84,58.72,24.84L58.72,24.84z
			 M18.07,4.52h18.07v13.55H18.07V4.52z M49.69,79.04c0,1.24-1.02,2.26-2.26,2.26l-40.65,0c-1.24,0-2.26-1.02-2.26-2.26V18.07
			c0-1.24,1.02-2.26,2.26-2.26h6.78v2.26c0,2.48,2.03,4.52,4.52,4.52h18.07c2.48,0,4.52-2.03,4.52-4.52v-2.26h6.78
			c1.24,0,2.26,1.02,2.26,2.26v56.46L49.69,79.04z M54.2,72.27V29.36h4.52v42.91H54.2z"/>
	</g>
</g>
</svg>
