<?xml version="1.0" encoding="utf-8"?>
<!-- Generator: Adobe Illustrator 26.0.2, SVG Export Plug-In . SVG Version: 6.00 Build 0)  -->
<svg version="1.1" id="Layer_1" xmlns="http://www.w3.org/2000/svg" xmlns:xlink="http://www.w3.org/1999/xlink" x="0px" y="0px"
	 viewBox="0 0 67.59 67.53" style="enable-background:new 0 0 67.59 67.53;" xml:space="preserve">
<style type="text/css">
	.st0{fill:#29ACE3;}
</style>
<g>
	<path class="st0" d="M50.65,14.47H16.88c-0.64,0-1.25,0.25-1.71,0.71c-0.45,0.45-0.71,1.07-0.71,1.71v33.76
		c0,0.64,0.25,1.25,0.71,1.71c0.45,0.45,1.07,0.71,1.71,0.71h33.76c0.64,0,1.25-0.25,1.71-0.71c0.45-0.45,0.71-1.07,0.71-1.71V16.88
		c0-0.64-0.25-1.25-0.71-1.71C51.9,14.73,51.29,14.47,50.65,14.47z M48.24,48.24H19.29V19.3h28.94V48.24z"/>
	<path class="st0" d="M65.12,14.47c0.64,0,1.25-0.25,1.71-0.71c0.45-0.45,0.71-1.07,0.71-1.71V2.41c0-0.64-0.25-1.25-0.71-1.71
		S65.76,0,65.12,0h-9.19c-0.71,0.01-1.38,0.34-1.83,0.89c-0.48,0.55-0.68,1.29-0.55,2c0,0.86-0.46,1.66-1.21,2.09
		c-0.75,0.43-1.67,0.43-2.41,0s-1.21-1.23-1.21-2.09c0.16-0.72-0.02-1.48-0.48-2.05C47.76,0.29,47.06-0.02,46.33,0h-7.74
		c-0.71,0.01-1.38,0.34-1.83,0.89c-0.49,0.54-0.7,1.28-0.58,2c0,0.86-0.46,1.66-1.21,2.09c-0.75,0.43-1.67,0.43-2.41,0
		c-0.75-0.43-1.21-1.23-1.21-2.09c0.11-0.7-0.09-1.42-0.55-1.95C30.35,0.36,29.67,0.02,28.94,0H21.2c-0.71,0.01-1.38,0.34-1.83,0.89
		c-0.48,0.55-0.68,1.29-0.55,2c0,0.86-0.46,1.66-1.21,2.09c-0.75,0.43-1.67,0.43-2.41,0c-0.75-0.43-1.21-1.23-1.21-2.09
		c0.11-0.7-0.09-1.42-0.55-1.95C12.99,0.37,12.32,0.02,11.6,0H2.41C1.77,0,1.16,0.25,0.71,0.71S0,1.77,0,2.41v9.65
		c0,0.64,0.25,1.25,0.71,1.71c0.45,0.45,1.07,0.71,1.71,0.71c0.86,0,1.66,0.46,2.09,1.21c0.43,0.75,0.43,1.67,0,2.41
		c-0.43,0.75-1.23,1.21-2.09,1.21c-0.64,0-1.25,0.25-1.71,0.71C0.25,20.45,0,21.07,0,21.71v7.72c0,0.64,0.25,1.25,0.71,1.71
		s1.07,0.71,1.71,0.71c0.86,0,1.66,0.46,2.09,1.21c0.43,0.75,0.43,1.67,0,2.41s-1.23,1.21-2.09,1.21c-0.64,0-1.25,0.25-1.71,0.71
		C0.25,37.82,0,38.43,0,39.07v7.72c0,0.64,0.25,1.25,0.71,1.71c0.45,0.45,1.07,0.71,1.71,0.71c0.86,0,1.66,0.46,2.09,1.21
		s0.43,1.67,0,2.41s-1.23,1.21-2.09,1.21c-0.64,0-1.25,0.25-1.71,0.71C0.25,55.18,0,55.8,0,56.44v8.68c0,0.64,0.25,1.25,0.71,1.71
		s1.07,0.71,1.71,0.71h9.16c0.64,0,1.25-0.25,1.71-0.71c0.45-0.45,0.71-1.07,0.71-1.71c0-0.86,0.46-1.66,1.21-2.09s1.67-0.43,2.41,0
		s1.21,1.23,1.21,2.09c0,0.64,0.25,1.25,0.71,1.71c0.45,0.45,1.07,0.71,1.71,0.71h7.72c0.64,0,1.25-0.25,1.71-0.71
		s0.71-1.07,0.71-1.71c0-0.86,0.46-1.66,1.21-2.09c0.75-0.43,1.67-0.43,2.41,0s1.21,1.23,1.21,2.09c0,0.64,0.25,1.25,0.71,1.71
		c0.45,0.45,1.07,0.71,1.71,0.71h7.72c0.64,0,1.25-0.25,1.71-0.71c0.45-0.45,0.71-1.07,0.71-1.71c0-0.86,0.46-1.66,1.21-2.09
		s1.67-0.43,2.41,0s1.21,1.23,1.21,2.09c0,0.64,0.25,1.25,0.71,1.71c0.45,0.45,1.07,0.71,1.71,0.71h9.16c0.64,0,1.25-0.25,1.71-0.71
		s0.71-1.07,0.71-1.71v-8.68c0-0.64-0.25-1.25-0.71-1.71c-0.45-0.45-1.07-0.71-1.71-0.71c-0.86,0-1.66-0.46-2.09-1.21
		c-0.43-0.75-0.43-1.67,0-2.41s1.23-1.21,2.09-1.21c0.64,0,1.25-0.25,1.71-0.71c0.45-0.45,0.71-1.07,0.71-1.71v-7.72
		c0-0.64-0.25-1.25-0.71-1.71c-0.45-0.45-1.07-0.71-1.71-0.71c-0.86,0-1.66-0.46-2.09-1.21s-0.43-1.67,0-2.41s1.23-1.21,2.09-1.21
		c0.64,0,1.25-0.25,1.71-0.71s0.71-1.07,0.71-1.71v-7.72c0-0.64-0.25-1.25-0.71-1.71c-0.45-0.45-1.07-0.71-1.71-0.71
		c-0.86,0-1.66-0.46-2.09-1.21c-0.43-0.75-0.43-1.67,0-2.41C63.46,14.93,64.26,14.47,65.12,14.47L65.12,14.47z M62.71,10.06
		c-1.9,0.67-3.43,2.09-4.23,3.94c-0.8,1.84-0.8,3.94,0,5.78c0.8,1.84,2.34,3.27,4.23,3.94v3.71c-1.86,0.69-3.36,2.11-4.15,3.93
		c-0.78,1.82-0.78,3.89,0,5.71c0.78,1.82,2.28,3.25,4.15,3.93v3.71c-1.9,0.67-3.43,2.09-4.23,3.94c-0.8,1.84-0.8,3.94,0,5.78
		c0.8,1.84,2.34,3.27,4.23,3.94v4.34h-4.82c-0.67-1.9-2.09-3.43-3.94-4.23c-1.84-0.8-3.94-0.8-5.78,0c-1.84,0.8-3.27,2.34-3.94,4.23
		h-3.64c-0.67-1.9-2.09-3.43-3.94-4.23c-1.84-0.8-3.94-0.8-5.78,0c-1.84,0.8-3.27,2.34-3.94,4.23h-3.71
		c-0.69-1.86-2.11-3.36-3.93-4.15c-1.82-0.78-3.89-0.78-5.71,0s-3.25,2.28-3.93,4.15H4.82v-4.27c1.9-0.67,3.43-2.09,4.23-3.94
		c0.8-1.84,0.8-3.94,0-5.78c-0.8-1.84-2.34-3.27-4.23-3.94V41c1.9-0.67,3.43-2.09,4.23-3.94c0.8-1.84,0.8-3.94,0-5.78
		c-0.8-1.84-2.34-3.27-4.23-3.94v-3.64c1.9-0.67,3.43-2.09,4.23-3.94c0.8-1.84,0.8-3.94,0-5.78c-0.8-1.84-2.34-3.27-4.23-3.94V4.82
		h4.61c0.57,2.04,2.01,3.74,3.93,4.63c1.93,0.89,4.15,0.89,6.07,0c1.93-0.89,3.36-2.58,3.93-4.63h3.43
		c0.57,2.04,2.01,3.74,3.93,4.63c1.93,0.89,4.15,0.89,6.07,0c1.93-0.89,3.36-2.58,3.93-4.63h3.42c0.57,2.04,2.01,3.74,3.93,4.63
		c1.93,0.89,4.15,0.89,6.07,0c1.93-0.89,3.36-2.58,3.93-4.63h4.61L62.71,10.06z"/>
</g>
</svg>
