<?xml version="1.0" encoding="utf-8"?>
<!-- Generator: Adobe Illustrator 26.0.2, SVG Export Plug-In . SVG Version: 6.00 Build 0)  -->
<svg version="1.1" xmlns="http://www.w3.org/2000/svg" xmlns:xlink="http://www.w3.org/1999/xlink" x="0px" y="0px"
	 viewBox="0 0 141.19 141.19" style="enable-background:new 0 0 141.19 141.19;" xml:space="preserve">
<style type="text/css">
	.st0{display:none;}
	.st1{display:inline;}
	.st2{fill:#29AAE1;}
	.st3{fill:none;stroke:#29AAE1;stroke-width:6;stroke-linecap:round;stroke-miterlimit:10;}
	.st4{display:inline;fill:#29AAE1;}
	.st5{fill:none;}
	.st6{fill:#27ACE2;}
	.st7{fill:#27ACE2;stroke:#26AAE1;stroke-width:2;stroke-miterlimit:10;}
	.st8{fill:#28AAE1;}
	.st9{fill:#29AAE1;stroke:#29AAE1;stroke-miterlimit:10;}
	.st10{fill:#29A9E1;}
	.st11{fill:#29AAE1;stroke:#29AAE1;stroke-linecap:round;stroke-linejoin:round;stroke-miterlimit:10;}
</style>
<g id="Fast_checkout_and_billing_process" class="st0">
	<g class="st1">
		<path class="st2" d="M43.08,92.78c-1.93,0-3.5-1.57-3.5-3.5V44.98c0-1.93,1.57-3.5,3.5-3.5s3.5,1.57,3.5,3.5v44.29
			C46.58,91.21,45.01,92.78,43.08,92.78z"/>
		<path class="st2" d="M99.01,92.78c-1.93,0-3.5-1.57-3.5-3.5V44.98c0-1.93,1.57-3.5,3.5-3.5s3.5,1.57,3.5,3.5v44.29
			C102.51,91.21,100.95,92.78,99.01,92.78z"/>
		<path class="st2" d="M85.09,82.81c-1.93,0-3.5-1.57-3.5-3.5V44.98c0-1.93,1.57-3.5,3.5-3.5s3.5,1.57,3.5,3.5v34.33
			C88.59,81.24,87.02,82.81,85.09,82.81z"/>
		<path class="st2" d="M71.52,94.7c-1.93,0-3.5-1.57-3.5-3.5V44.98c0-1.93,1.57-3.5,3.5-3.5s3.5,1.57,3.5,3.5V91.2
			C75.02,93.13,73.46,94.7,71.52,94.7z"/>
		<path class="st2" d="M57.96,100.94c-1.93,0-3.5-1.57-3.5-3.5V44.98c0-1.93,1.57-3.5,3.5-3.5s3.5,1.57,3.5,3.5v52.46
			C61.46,99.37,59.89,100.94,57.96,100.94z"/>
		<g>
			<path class="st2" d="M28.31,61.45c-1.93,0-3.5-1.57-3.5-3.5V31.66c0-1.93,1.57-3.5,3.5-3.5H62.7c1.93,0,3.5,1.57,3.5,3.5
				s-1.57,3.5-3.5,3.5H31.81v22.79C31.81,59.88,30.24,61.45,28.31,61.45z"/>
			<path class="st2" d="M113.9,61.45c-1.93,0-3.5-1.57-3.5-3.5V35.16H86.11c-1.93,0-3.5-1.57-3.5-3.5s1.57-3.5,3.5-3.5h27.79
				c1.93,0,3.5,1.57,3.5,3.5v26.29C117.4,59.88,115.83,61.45,113.9,61.45z"/>
			<path class="st2" d="M62.7,112.7H28.31c-1.93,0-3.5-1.57-3.5-3.5V81.35c0-1.93,1.57-3.5,3.5-3.5s3.5,1.57,3.5,3.5v24.35H62.7
				c1.93,0,3.5,1.57,3.5,3.5S64.64,112.7,62.7,112.7z"/>
			<path class="st2" d="M113.9,112.7H86.11c-1.93,0-3.5-1.57-3.5-3.5s1.57-3.5,3.5-3.5h24.29V81.35c0-1.93,1.57-3.5,3.5-3.5
				s3.5,1.57,3.5,3.5v27.85C117.4,111.13,115.83,112.7,113.9,112.7z"/>
		</g>
	</g>
</g>
<g id="Go_paperless_or_print_receipts" class="st0">
	<g class="st1">
		<path class="st2" d="M48.38,42.33h21.51v10.15H48.38V42.33z"/>
		<path class="st2" d="M48.38,69.2h21.51v10.15H48.38V69.2z"/>
		<path class="st2" d="M79.12,69.2h12.29v10.15H79.12V69.2z"/>
		<path class="st2" d="M79.12,42.33h12.29v10.15H79.12V42.33z"/>
		<path class="st2" d="M69.47,119.7l-11.71-12.8l-11.29,12.34l-14.48-15.82V31.43c0-5.66,4.33-10.27,9.66-10.27h58.92
			c5.32,0,9.66,4.61,9.66,10.27v70.81L94.3,119.64l-12.38-13.53L69.47,119.7z M57.76,98.02l11.71,12.8l12.44-13.59l12.38,13.53
			l9.92-10.84V31.43c0-2.36-1.64-4.27-3.66-4.27H41.65c-2.02,0-3.66,1.92-3.66,4.27v69.66l8.48,9.26L57.76,98.02z"/>
	</g>
</g>
<g id="Voids_x2C__refunds__x26__discounts_supported" class="st0">
	<g class="st1">
		<g>
			<path class="st2" d="M75.1,20.12l29,21.35v71.97c0,1.38-1.13,2.51-2.51,2.51H48.61c-1.38,0-2.51-1.13-2.51-2.51V41.47L75.1,20.12
				 M75.1,13.91l-34,25.02v74.5c0,4.15,3.36,7.51,7.51,7.51h52.99c4.15,0,7.51-3.36,7.51-7.51v-74.5L75.1,13.91L75.1,13.91z"/>
		</g>
		<path class="st2" d="M75.11,32.47c2.82,0,5.11,2.29,5.11,5.12c0,2.82-2.29,5.12-5.11,5.12c-2.83,0-5.12-2.3-5.12-5.12
			C69.99,34.77,72.28,32.47,75.11,32.47z"/>
		<path class="st2" d="M71.83,71.11c0,3.49-0.79,6.2-2.36,8.12c-1.57,1.92-3.82,2.88-6.73,2.88c-2.74,0-4.9-0.99-6.5-2.97
			c-1.6-1.98-2.4-4.65-2.4-8.02c0-3.5,0.78-6.19,2.34-8.07c1.56-1.89,3.74-2.83,6.56-2.83c2.78,0,4.99,0.98,6.63,2.94
			C71.01,65.1,71.83,67.76,71.83,71.11L71.83,71.11z M61.03,71.2c0,1.83,0.15,3.15,0.45,3.96c0.3,0.81,0.75,1.22,1.36,1.22
			c0.6,0,1.05-0.4,1.35-1.19c0.29-0.8,0.44-2.12,0.44-3.99c0-1.83-0.15-3.15-0.44-3.96c-0.29-0.81-0.74-1.22-1.35-1.22
			c-0.62,0-1.08,0.41-1.37,1.24C61.17,68.1,61.03,69.41,61.03,71.2L61.03,71.2z M89.22,60.71L69.88,95.58h-7.08l19.35-34.87
			L89.22,60.71L89.22,60.71z M98.36,84.99c0,3.48-0.79,6.18-2.37,8.1c-1.58,1.92-3.82,2.87-6.71,2.87c-2.74,0-4.9-0.99-6.5-2.97
			c-1.6-1.98-2.4-4.65-2.4-8c0-3.49,0.78-6.19,2.34-8.07c1.56-1.89,3.74-2.83,6.56-2.83c2.78,0,4.99,0.98,6.63,2.93
			C97.54,78.98,98.36,81.63,98.36,84.99L98.36,84.99z M87.55,85.09c0,1.83,0.15,3.15,0.45,3.96c0.3,0.81,0.75,1.22,1.36,1.22
			c0.68,0,1.15-0.46,1.42-1.4c0.26-0.93,0.39-2.19,0.39-3.78c0-1.59-0.13-2.85-0.39-3.78c-0.27-0.93-0.74-1.4-1.42-1.4
			c-0.62,0-1.08,0.41-1.37,1.24C87.7,81.98,87.55,83.29,87.55,85.09L87.55,85.09z"/>
	</g>
</g>
<g id="Sales_monitoring__x26__reporting" class="st0">
	<g class="st1">
		<path class="st2" d="M63.44,33.94c0-1.56,1.84-2.82,4.1-2.82h24.62c2.27,0,4.1,1.26,4.1,2.82c0,1.56-1.84,2.82-4.1,2.82H67.54
			C65.28,36.76,63.44,35.5,63.44,33.94z"/>
		<path class="st2" d="M67.54,48.03c-2.27,0-4.1-1.26-4.1-2.82s1.84-2.82,4.1-2.82h24.62c2.27,0,4.1,1.26,4.1,2.82
			s-1.84,2.82-4.1,2.82L67.54,48.03L67.54,48.03z"/>
		<path class="st2" d="M32.56,47.46c-0.48,0.59-0.68,1.36-0.56,2.11l0,61.73c0,6.2,4.37,11.27,10.57,11.27h57.78
			c6.2,0,11.98-5.07,11.98-11.27V29.56c0-6.2-5.78-11.27-11.98-11.27H64.42c-0.63,0-1.24,0.26-1.69,0.71L32.56,47.46L32.56,47.46z
			 M63.01,45.06c0,1.55-1.97,2.82-3.52,2.82H40.03l22.97-20.86L63.01,45.06z M42.57,116.94c-3.1,0-4.93-2.54-4.93-5.64V53.52h21.84
			c4.65,0,9.16-3.81,9.16-8.46V23.93h31.71c3.1,0,6.34,2.54,6.34,5.64v81.74c0,3.1-3.24,5.64-6.34,5.64L42.57,116.94L42.57,116.94z"
			/>
		<path class="st2" d="M74.32,109.61h-6.3c-1.24,0-2.25-1.26-2.25-2.82V91.57c0-1.56,1.01-2.82,2.25-2.82h6.3
			c0.6,0,1.17,0.3,1.59,0.83c0.42,0.53,0.66,1.25,0.66,1.99v15.22c0,0.75-0.24,1.46-0.66,1.99
			C75.49,109.31,74.92,109.61,74.32,109.61L74.32,109.61z"/>
		<path class="st2" d="M94.01,109.61h-6.34c-1.25,0-2.26-1.26-2.26-2.82V84.8c0-1.56,1.01-2.82,2.26-2.82h6.34
			c0.6,0,1.18,0.3,1.6,0.83c0.42,0.53,0.66,1.25,0.66,1.99v21.98c0,0.75-0.24,1.46-0.66,1.99
			C95.18,109.31,94.61,109.61,94.01,109.61L94.01,109.61z"/>
		<path class="st2" d="M54.86,109.61H48.7c-1.22,0-2.2-1.26-2.2-2.82v-8.46c0-1.56,0.99-2.82,2.2-2.82h6.16
			c0.58,0,1.14,0.3,1.56,0.83c0.41,0.53,0.64,1.25,0.64,1.99v8.46c0,0.75-0.23,1.46-0.64,1.99C56,109.31,55.44,109.61,54.86,109.61
			L54.86,109.61z"/>
		<path class="st2" d="M48.77,83.68c-0.82,0.03-1.61-0.33-2.11-0.99c-1.04-1.13-0.97-2.89,0.14-3.95l12.96-12.4
			c1.04-1.03,2.69-1.09,3.81-0.14l10.29,9.16L91.9,61.27h0c1.21-0.97,2.97-0.78,3.95,0.42c0.91,1.27,0.73,3.03-0.42,4.09
			L75.55,81.14c-1.07,0.85-2.59,0.85-3.66,0l-10.15-9.02L50.75,82.83v0C50.23,83.36,49.52,83.66,48.77,83.68L48.77,83.68z"/>
		<path class="st2" d="M93.3,77.76h-0.28h0c-0.75-0.07-1.44-0.44-1.92-1.02c-0.48-0.58-0.7-1.33-0.62-2.08l0.7-8.88l-9.86-0.7v0
			c-1.55-0.21-2.69-1.54-2.68-3.1c0.07-0.75,0.44-1.44,1.02-1.92c0.58-0.48,1.33-0.7,2.08-0.62l12.68,0.85v0
			c0.71,0.1,1.36,0.45,1.83,0.99c0.57,0.55,0.83,1.34,0.71,2.11l-0.85,11.7v0C95.98,76.55,94.78,77.69,93.3,77.76L93.3,77.76z"/>
	</g>
</g>
<g id="Offline_sales_recording" class="st0">
	<g class="st1">
		<g>
			<path class="st2" d="M106.97,111.45H37.24c-4.37,0-7.93-3.79-7.93-8.45V44.04c0-4.66,3.56-8.45,7.93-8.45h12.92
				c1.66,0,3,1.34,3,3s-1.34,3-3,3H37.24c-1.05,0-1.93,1.12-1.93,2.45v58.97c0,1.33,0.88,2.45,1.93,2.45h69.73
				c1.05,0,1.93-1.12,1.93-2.45V44.04c0-1.33-0.88-2.45-1.93-2.45H96.15c-1.66,0-3-1.34-3-3s1.34-3,3-3h10.82
				c4.37,0,7.93,3.79,7.93,8.45v58.97C114.9,107.66,111.34,111.45,106.97,111.45z"/>
			<path class="st3" d="M96.15,38.59"/>
			<path class="st3" d="M50.16,38.59"/>
			<path class="st3" d="M50.16,38.59"/>
			<path class="st3" d="M96.15,38.59"/>
		</g>
		<path class="st2" d="M73.34,100.45L42,65.8h16.95v-36.4h27.18v36.4h18.55L73.34,100.45z M55.51,71.8l17.82,19.7l17.82-19.7H80.13
			v-36.4H64.95v36.4H55.51z"/>
	</g>
</g>
<g id="Inventory_and_stock_management" class="st0">
	<g class="st1">
		<path class="st2" d="M90.61,41.43H55.6c-1.75,0-3.17-1.42-3.17-3.17V26.74c0-3.46,2.81-6.27,6.27-6.27h5.09
			c1.75,0,3.17,1.42,3.17,3.17c0,1.75-1.42,3.17-3.17,3.17h-5.01v8.27h28.66v-8.27h-5.01c-1.75,0-3.17-1.42-3.17-3.17
			c0-1.75,1.42-3.17,3.17-3.17h5.09c3.46,0,6.27,2.81,6.27,6.27v11.52C93.78,40.01,92.36,41.43,90.61,41.43L90.61,41.43z
			 M87.51,26.82L87.51,26.82L87.51,26.82z"/>
		<path class="st2" d="M108.44,121.06H37.77c-1.75,0-3.17-1.42-3.17-3.17V29.28c0-1.75,1.42-3.17,3.17-3.17H55.6
			c1.75,0,3.17,1.42,3.17,3.17c0,1.75-1.42,3.17-3.17,3.17l-14.66,0v82.26h64.33V32.46H90.61c-1.75,0-3.17-1.42-3.17-3.17
			c0-1.75,1.42-3.17,3.17-3.17l17.83,0c1.75,0,3.17,1.42,3.17,3.17v88.61C111.61,119.64,110.19,121.06,108.44,121.06L108.44,121.06z
			"/>
		<path class="st2" d="M82.43,31.3H63.78c-1.75,0-3.17-1.42-3.17-3.17V16.97c0-1.75,1.42-3.17,3.17-3.17h18.64
			c1.75,0,3.17,1.42,3.17,3.17v11.16C85.6,29.88,84.18,31.3,82.43,31.3z M66.96,24.95h12.3v-4.81h-12.3V24.95z"/>
		<path class="st2" d="M94.87,56.9H68.42c-1.75,0-3.17-1.42-3.17-3.17s1.42-3.17,3.17-3.17h26.45c1.75,0,3.17,1.42,3.17,3.17
			C98.04,55.48,96.62,56.9,94.87,56.9L94.87,56.9z"/>
		<path class="st2" d="M53.55,58.18c-0.81,0-1.62-0.31-2.24-0.93l-2.21-2.2c-1.24-1.24-1.24-3.25,0-4.49
			c1.23-1.23,3.21-1.24,4.45-0.04l2.86-2.86c1.24-1.24,3.25-1.24,4.49,0c1.24,1.24,1.24,3.25,0,4.49l-5.11,5.11
			C55.17,57.87,54.36,58.18,53.55,58.18L53.55,58.18z"/>
		<path class="st2" d="M94.87,73.98H68.42c-1.75,0-3.17-1.42-3.17-3.17c0-1.75,1.42-3.17,3.17-3.17h26.45
			c1.75,0,3.17,1.42,3.17,3.17C98.04,72.56,96.62,73.98,94.87,73.98L94.87,73.98z"/>
		<path class="st2" d="M53.55,75.26c-0.84,0-1.65-0.33-2.24-0.93l-2.21-2.21c-1.24-1.24-1.24-3.25,0-4.49
			c1.23-1.23,3.21-1.24,4.45-0.04l2.86-2.86c1.24-1.24,3.25-1.24,4.49,0c1.24,1.24,1.24,3.25,0,4.49l-5.11,5.11
			C55.19,74.92,54.39,75.26,53.55,75.26L53.55,75.26z"/>
		<path class="st2" d="M94.87,91.06H68.42c-1.75,0-3.17-1.42-3.17-3.17s1.42-3.17,3.17-3.17h26.45c1.75,0,3.17,1.42,3.17,3.17
			C98.04,89.64,96.62,91.06,94.87,91.06L94.87,91.06z"/>
		<path class="st2" d="M53.55,92.34c-0.84,0-1.65-0.33-2.24-0.93l-2.21-2.21c-1.24-1.24-1.24-3.25,0-4.49
			c1.23-1.23,3.21-1.24,4.45-0.04l2.86-2.86c1.24-1.24,3.25-1.24,4.49,0c1.24,1.24,1.24,3.25,0,4.49l-5.11,5.11
			C55.19,92.01,54.39,92.34,53.55,92.34L53.55,92.34z"/>
		<path class="st2" d="M94.87,108.14H68.42c-1.75,0-3.17-1.42-3.17-3.17c0-1.75,1.42-3.17,3.17-3.17h26.45
			c1.75,0,3.17,1.42,3.17,3.17C98.04,106.72,96.62,108.14,94.87,108.14L94.87,108.14z"/>
		<path class="st2" d="M53.55,109.42c-0.81,0-1.62-0.31-2.24-0.93l-2.21-2.2c-1.24-1.24-1.24-3.25,0-4.49
			c1.23-1.23,3.21-1.24,4.45-0.04l2.86-2.86c1.24-1.24,3.25-1.24,4.49,0c1.24,1.24,1.24,3.25,0,4.49l-5.11,5.11
			C55.17,109.11,54.36,109.42,53.55,109.42L53.55,109.42z"/>
	</g>
</g>
<g id="_Staff_management" class="st0">
	<path class="st4" d="M117.99,67.51c2.42-2.73,3.77-6.44,3.78-10.31c0-3.87-1.35-7.58-3.76-10.32c-2.41-2.74-5.68-4.27-9.09-4.27
		s-6.68,1.54-9.09,4.27c-2.41,2.74-3.76,6.45-3.76,10.32c0,3.87,1.36,7.58,3.78,10.31c-2.85,1.72-5.29,4.2-7.1,7.24
		c-2.33-4.96-5.98-8.97-10.43-11.44c3.5-3.21,5.67-7.93,5.99-13.03c0.32-5.1-1.25-10.11-4.32-13.85c-3.07-3.74-7.37-5.86-11.88-5.86
		c-4.5,0-8.81,2.12-11.88,5.86c-3.07,3.74-4.64,8.75-4.32,13.85c0.32,5.1,2.48,9.82,5.99,13.03c-4.45,2.47-8.1,6.47-10.43,11.44
		c-1.81-3.04-4.25-5.52-7.1-7.24c2.42-2.73,3.77-6.44,3.78-10.31c0-3.87-1.35-7.58-3.76-10.32c-2.41-2.74-5.68-4.27-9.09-4.27
		s-6.68,1.54-9.09,4.27c-2.41,2.74-3.76,6.45-3.76,10.32c0,3.87,1.36,7.58,3.78,10.31c-3.14,1.88-5.77,4.69-7.61,8.14
		c-1.84,3.45-2.81,7.39-2.82,11.42v13.01c0,1.89,1.35,3.41,3.01,3.41c1.66,0,3.01-1.53,3.01-3.41V87.08
		c0.43-5.12,3.09-9.66,7.08-12.09c4-2.43,8.8-2.43,12.8,0c4,2.43,6.66,6.97,7.08,12.09v13.79c0,1.88,1.35,3.41,3.01,3.41
		c1.66,0,3.01-1.53,3.01-3.41V87.08c0.25-6.82,3.6-13,8.85-16.33c5.25-3.33,11.65-3.33,16.9,0c5.25,3.33,8.6,9.51,8.85,16.33v13.79
		c0,1.88,1.35,3.41,3.01,3.41c1.66,0,3.01-1.53,3.01-3.41V87.08c-0.33-4.29,0.94-8.55,3.5-11.73c2.57-3.18,6.19-4.99,9.99-4.99
		c3.8,0,7.42,1.81,9.99,4.99c2.57,3.18,3.84,7.44,3.5,11.73v13.01c0,1.89,1.35,3.41,3.01,3.41s3.01-1.53,3.01-3.41V87.08
		c-0.01-4.03-0.99-7.98-2.82-11.42C123.76,72.21,121.13,69.4,117.99,67.51L117.99,67.51z M28.46,57.27L28.46,57.27
		c-0.03-2.06,0.66-4.05,1.93-5.53c1.27-1.48,3-2.33,4.82-2.35c1.82-0.02,3.57,0.78,4.87,2.22c1.3,1.45,2.03,3.42,2.04,5.48
		c0.01,2.06-0.7,4.05-1.99,5.51c-1.28,1.46-3.03,2.29-4.84,2.29c-1.8,0-3.53-0.81-4.81-2.25c-1.28-1.44-2.01-3.39-2.02-5.44
		L28.46,57.27z M61.89,49.09L61.89,49.09c0-3.07,1.08-6.02,2.99-8.19c1.92-2.17,4.51-3.39,7.22-3.39c2.71,0,5.31,1.22,7.22,3.39
		c1.92,2.17,2.99,5.12,2.99,8.2c0,3.07-1.08,6.02-2.99,8.2c-1.92,2.17-4.51,3.39-7.22,3.39c-2.72,0-5.32-1.24-7.24-3.42
		c-1.92-2.19-2.99-5.15-2.98-8.24L61.89,49.09z M102.08,57.2c-0.02-2.06,0.69-4.05,1.97-5.52c1.28-1.47,3.02-2.3,4.84-2.3
		c1.82-0.01,3.56,0.81,4.85,2.27c1.29,1.46,2.01,3.44,2,5.5c-0.01,2.06-0.74,4.04-2.03,5.49c-1.29,1.45-3.04,2.26-4.86,2.24
		c-1.79-0.02-3.5-0.84-4.77-2.28C102.82,61.18,102.1,59.24,102.08,57.2L102.08,57.2z"/>
</g>
<g id="Manage_multiple_stores" class="st0">
	<g class="st1">
		<path class="st5" d="M93.68,31.77l-2.5-14.1H86.6l1.23,13.87C89.75,32.2,91.76,32.28,93.68,31.77z"/>
		<path class="st5" d="M103.46,95.53c-4.16,1.8-8.54,1.8-12.7,0c-1.38,0.59-2.82,0.99-4.3,1.18v18.47h5.71v-10.02
			c0-2.08,1.47-3.78,3.29-3.78h16.01c1.81,0,3.29,1.7,3.29,3.78v10.02h5.71V96.72c-1.48-0.19-2.92-0.59-4.3-1.18
			C112.04,97.31,107.58,97.31,103.46,95.53z"/>
		<path class="st2" d="M61.12,70.5c-0.23-1.27-1.17-2.2-2.24-2.2l-43.58,0c-1.07,0-2.01,0.92-2.24,2.2L9.46,90.85
			c-0.23,1.28,0.33,2.59,1.31,3.13c1.08,0.58,2.22,1.04,3.38,1.36l0.37,0.1v23.53c0,1.53,1.03,2.78,2.29,2.78h40.58
			c1.26,0,2.29-1.25,2.29-2.78V95.44l0.37-0.1c1.17-0.32,2.3-0.78,3.38-1.36c0.99-0.53,1.54-1.85,1.31-3.13L61.12,70.5z
			 M39.38,73.86h6.56l1.39,15.71l-0.37,0.13c-1.15,0.39-2.34,0.58-3.52,0.58c-1.25,0-2.51-0.22-3.72-0.65l-0.33-0.12V73.86z
			 M28.25,73.86h6.56v15.65l-0.33,0.12c-1.22,0.43-2.47,0.65-3.72,0.65c-1.18,0-2.37-0.19-3.52-0.58l-0.37-0.12L28.25,73.86z
			 M14.77,89.8l-0.42-0.13l2.8-15.8h6.5l-1.38,15.58l-0.29,0.11c-1.3,0.49-2.63,0.74-3.97,0.74C16.92,90.29,15.83,90.13,14.77,89.8z
			 M42.81,116.19H31.38v-8.24h11.43V116.19z M55.1,116.19h-7.71v-11.02c0-1.53-1.03-2.78-2.29-2.78H29.09
			c-1.26,0-2.29,1.25-2.29,2.78v11.02h-7.71V95.82l0.45-0.05c1.61-0.17,3.17-0.59,4.65-1.25l0.2-0.09l0.2,0.09
			c4.02,1.79,8.27,1.79,12.29,0l0.2-0.09l0.2,0.09c3.99,1.78,8.3,1.78,12.29,0l0.2-0.09l0.2,0.09c1.48,0.66,3.04,1.08,4.65,1.25
			l0.45,0.05V116.19z M59.42,89.8c-1.06,0.33-2.15,0.5-3.24,0.5c-1.33,0-2.67-0.25-3.97-0.74l-0.29-0.11l-1.38-15.58h6.5l2.8,15.8
			L59.42,89.8z"/>
		<path class="st2" d="M131.14,70.5c-0.23-1.27-1.17-2.2-2.24-2.2l-43.58,0c-1.07,0-2.01,0.92-2.24,2.2l-3.61,20.35
			c-0.23,1.28,0.33,2.59,1.31,3.13c1.08,0.58,2.22,1.04,3.38,1.36l0.37,0.1v23.53c0,1.53,1.03,2.78,2.29,2.78h40.58
			c1.26,0,2.29-1.25,2.29-2.78V95.44l0.37-0.1c1.17-0.32,2.3-0.78,3.38-1.36c0.99-0.53,1.54-1.85,1.31-3.13L131.14,70.5z
			 M109.4,73.86h6.56l1.39,15.71l-0.37,0.12c-1.15,0.39-2.34,0.58-3.52,0.58c-1.25,0-2.51-0.22-3.72-0.65l-0.33-0.12V73.86z
			 M98.27,73.86h6.56v15.65l-0.33,0.12c-1.22,0.43-2.47,0.65-3.72,0.65c-1.18,0-2.37-0.19-3.52-0.58l-0.37-0.12L98.27,73.86z
			 M84.79,89.8l-0.42-0.13l2.8-15.8h6.5l-1.38,15.58l-0.29,0.11c-1.3,0.49-2.63,0.74-3.97,0.74C86.94,90.29,85.85,90.13,84.79,89.8z
			 M112.83,116.19H101.4v-8.24h11.43V116.19z M125.11,116.19h-7.71v-11.02c0-1.53-1.03-2.78-2.29-2.78H99.11
			c-1.26,0-2.29,1.25-2.29,2.78v11.02h-7.71V95.82l0.45-0.05c1.61-0.17,3.17-0.59,4.65-1.25l0.2-0.09l0.2,0.09
			c4.02,1.79,8.27,1.79,12.29,0l0.2-0.09l0.2,0.09c3.99,1.78,8.3,1.78,12.29,0l0.2-0.09l0.2,0.09c1.48,0.66,3.04,1.08,4.65,1.25
			l0.45,0.05V116.19z M129.44,89.8c-1.06,0.33-2.15,0.5-3.24,0.5c-1.33,0-2.67-0.25-3.97-0.74l-0.29-0.11l-1.38-15.58h6.5l2.8,15.8
			L129.44,89.8z"/>
		<path class="st2" d="M46.17,36.78c1.08,0.58,2.22,1.04,3.38,1.36l0.37,0.1v23.53c0,1.53,1.03,2.78,2.29,2.78h40.58
			c1.26,0,2.29-1.25,2.29-2.78V38.25l0.37-0.1c1.16-0.32,2.3-0.78,3.38-1.36c0.99-0.53,1.54-1.85,1.31-3.13l-3.61-20.35
			c-0.23-1.27-1.17-2.2-2.24-2.2l-43.58,0c-1.07,0-2.01,0.92-2.24,2.2l-3.61,20.35C44.63,34.94,45.19,36.25,46.17,36.78z M78.21,59
			H66.78v-8.24h11.43V59z M92.44,16.67l2.8,15.8l-0.42,0.13c-1.06,0.33-2.15,0.5-3.24,0.5c-1.33,0-2.67-0.25-3.97-0.74l-0.29-0.11
			l-1.38-15.58H92.44z M74.78,16.67h6.56l1.39,15.71l-0.37,0.12c-1.15,0.39-2.34,0.58-3.52,0.58c-1.25,0-2.51-0.22-3.72-0.65
			l-0.33-0.12V16.67z M63.65,16.67h6.56v15.65l-0.33,0.12c-1.22,0.43-2.47,0.65-3.73,0.65c-1.18,0-2.36-0.19-3.52-0.58l-0.37-0.12
			L63.65,16.67z M59.79,37.25l0.2,0.09c4.02,1.8,8.27,1.8,12.29,0l0.2-0.09l0.2,0.09c3.99,1.78,8.3,1.78,12.29,0l0.2-0.09l0.2,0.09
			c1.48,0.66,3.04,1.08,4.65,1.25l0.45,0.05V59h-7.71V47.98c0-1.53-1.03-2.78-2.29-2.78H64.49c-1.26,0-2.29,1.25-2.29,2.78V59h-7.71
			V38.63l0.45-0.05c1.61-0.17,3.18-0.59,4.65-1.25L59.79,37.25z M52.55,16.67h6.5l-1.38,15.58l-0.29,0.11
			c-1.3,0.49-2.63,0.74-3.97,0.74c-1.09,0-2.18-0.17-3.24-0.5l-0.42-0.13L52.55,16.67z"/>
	</g>
</g>
<g id="Use_your_iPad_or_tablet">
	<g>
		<path class="st2" d="M119.07,26.25H23.13c-5.28,0-9.59,4.32-9.59,9.59v67.16c0,5.28,4.32,9.59,9.59,9.59h95.95
			c5.28,0,9.59-4.32,9.59-9.59l0-67.16C128.67,30.57,124.35,26.25,119.07,26.25L119.07,26.25z M123.87,103.01
			c0,2.64-2.16,4.8-4.8,4.8l-95.95,0c-2.64,0-4.8-2.16-4.8-4.8l0-67.16c0-2.64,2.16-4.8,4.8-4.8h95.95c2.64,0,4.8,2.16,4.8,4.8
			L123.87,103.01z"/>
		<path class="st2" d="M116.68,35.85H25.53c-1.44,0-2.4,0.96-2.4,2.4v52.77c0,1.44,0.96,2.4,2.4,2.4h91.15c1.44,0,2.4-0.96,2.4-2.4
			V38.25C119.07,36.81,118.12,35.85,116.68,35.85L116.68,35.85z M114.28,88.62H27.93V40.65h86.35V88.62z"/>
		<path class="st2" d="M73.26,98.45h-4.32c-1.44,0-2.4,0.96-2.4,2.4c0,1.44,0.96,2.4,2.4,2.4h4.32c1.44,0,2.4-0.96,2.4-2.4
			C75.66,99.41,74.7,98.45,73.26,98.45z"/>
		<circle class="st2" cx="71.1" cy="100.85" r="4.63"/>
	</g>
</g>
<g id="Sell_online_from_your_POS" class="st0">
	<g class="st1">
		<path class="st5" d="M71.1,31.58c-20.87,0-37.85,16.98-37.85,37.85s16.98,37.85,37.85,37.85c20.87,0,37.85-16.98,37.85-37.85
			S91.97,31.58,71.1,31.58z M47.49,71.37v-1.94c0-13.02,10.6-23.62,23.62-23.62h5.24l-3-3c-0.92-0.92-0.91-2.36,0.01-3.28l2.71-2.71
			c0.91-0.91,2.38-0.91,3.29,0L89.6,47.05c1.66,1.66,1.66,4.35,0,6.01L79.36,63.31c-0.44,0.44-1.02,0.68-1.64,0.68c0,0,0,0,0,0
			c-0.62,0-1.2-0.24-1.65-0.69l-2.71-2.71c-0.91-0.91-0.91-2.38-0.01-3.28l3-3H71.1c-8.34,0-15.12,6.78-15.12,15.12v1.93
			c0,1.3-1.02,2.32-2.33,2.32h-3.84C48.53,73.68,47.49,72.64,47.49,71.37z M94.72,69.43c0,13.02-10.6,23.62-23.62,23.62h-5.24l3,3
			c0.44,0.44,0.68,1.02,0.68,1.63c0,0.62-0.25,1.2-0.69,1.65l-2.71,2.71c-0.44,0.44-1.02,0.68-1.65,0.68c0,0,0,0,0,0
			c-0.62,0-1.21-0.24-1.64-0.68L52.6,91.8c-0.8-0.8-1.24-1.87-1.24-3s0.44-2.2,1.24-3l10.24-10.24c0.91-0.91,2.38-0.9,3.29,0
			l2.71,2.71c0.44,0.44,0.68,1.02,0.69,1.64c0,0.62-0.24,1.2-0.67,1.64l-3,3l5.24,0c8.34,0,15.12-6.78,15.12-15.12v-1.92
			c0-1.29,1.05-2.33,2.33-2.33h3.84c1.28,0,2.33,1.04,2.33,2.31V69.43z"/>
		<path class="st6" d="M55.23,71.36v-1.93c0-8.75,7.12-15.87,15.87-15.87h7.05l-4.28,4.28c-0.61,0.61-0.6,1.6,0.01,2.22l2.71,2.71
			c0.63,0.63,1.61,0.63,2.23,0l10.24-10.24c1.36-1.36,1.36-3.58,0-4.95L78.83,37.34c-0.61-0.61-1.62-0.61-2.23,0l-2.71,2.71
			c-0.63,0.63-0.63,1.6-0.01,2.22l4.28,4.28H71.1c-12.61,0-22.87,10.26-22.87,22.87v1.94c0,0.86,0.71,1.56,1.58,1.56h3.84
			C54.54,72.93,55.23,72.24,55.23,71.36z"/>
		<path class="st6" d="M92.39,65.93h-3.84c-0.89,0-1.58,0.69-1.58,1.58v1.92c0,8.75-7.12,15.87-15.87,15.87l-7.05,0l4.28-4.28
			c0.29-0.29,0.46-0.69,0.45-1.11c0-0.42-0.17-0.82-0.47-1.11l-2.71-2.71c-0.31-0.31-0.72-0.47-1.12-0.47c-0.4,0-0.8,0.16-1.11,0.47
			L53.14,86.33c-0.66,0.66-1.02,1.54-1.02,2.47s0.36,1.81,1.02,2.47l10.24,10.24c0.29,0.3,0.69,0.46,1.11,0.46c0,0,0,0,0,0
			c0.42,0,0.82-0.16,1.12-0.46l2.71-2.71c0.3-0.3,0.47-0.7,0.47-1.12c0-0.41-0.16-0.81-0.46-1.1l-4.28-4.28h7.05
			c12.61,0,22.87-10.26,22.87-22.87v-1.94C93.97,66.63,93.26,65.93,92.39,65.93z"/>
		<path class="st6" d="M71.1,25.22c-24.38,0-44.21,19.83-44.21,44.21s19.83,44.21,44.21,44.21c24.38,0,44.21-19.83,44.21-44.21
			S95.48,25.22,71.1,25.22z M71.1,108.03c-21.28,0-38.6-17.32-38.6-38.6c0-21.28,17.31-38.6,38.6-38.6c21.28,0,38.6,17.32,38.6,38.6
			C109.7,90.71,92.39,108.03,71.1,108.03z"/>
	</g>
</g>
<g id="Drive_your_sales" class="st0">
	<g class="st1">
		<path class="st2" d="M117.3,37.77l-74.59,0l-0.35-1.94c-0.84-4.95-5.09-8.54-10.1-8.54h-7.53c-1.69,0-3.07,1.38-3.07,3.07
			s1.38,3.07,3.07,3.07h7.63c1.95,0,3.61,1.37,4.03,3.33l6.42,39.11c0.01,0.13,0.02,0.18,0.03,0.22c0.03,0.15,0.08,0.37,0.08,0.65
			l1.11,6.76c0.94,5.94,6,10.25,12.03,10.25h50.05c1.69,0,3.07-1.38,3.07-3.07s-1.38-3.07-3.07-3.07H56.06
			c-2.97,0-5.48-2.15-5.97-5.11L49.5,78.7h58.64c1.41,0,2.62-0.93,3-2.32l9.15-34.78c0.24-0.98,0.05-1.96-0.53-2.68
			C119.32,38.41,118.5,37.77,117.3,37.77z M105.76,72.56H48.4l-4.7-28.65h69.62L105.76,72.56z"/>
		<path class="st2" d="M56.98,96.57c-5.73,0-10.39,4.71-10.39,10.5s4.71,10.5,10.5,10.5c5.73,0,10.39-4.71,10.39-10.5
			S62.76,96.57,56.98,96.57z M57.08,111.43c-2.36,0-4.36-2-4.36-4.36c0-2.36,2-4.36,4.36-4.36s4.36,2,4.36,4.36
			C61.44,109.43,59.44,111.43,57.08,111.43z"/>
		<path class="st2" d="M91.87,96.57c-5.89,0-10.5,4.61-10.5,10.5c0,5.88,4.61,10.5,10.5,10.5c5.79,0,10.5-4.71,10.5-10.5
			S97.66,96.57,91.87,96.57z M91.97,111.43c-2.5-0.13-4.36-2-4.36-4.36c0-2.36,2-4.36,4.36-4.36s4.36,2,4.36,4.36
			C96.33,109.43,94.33,111.43,91.97,111.43z"/>
	</g>
</g>
<g id="Get_local_to_online" class="st0">
	<g class="st1">
		<path class="st5" d="M74.95,54.07v13.52h15.58c-0.29-5.31-0.85-9.62-1.75-13.52H74.95z"/>
		<path class="st5" d="M74.95,32.62v15.76h12.12C84.24,40.09,79.74,34.25,74.95,32.62z"/>
		<path class="st5" d="M37.48,54.07c-2.07,4.44-3.25,8.98-3.53,13.52h14.03c0.26-4.73,0.76-9.27,1.5-13.52H37.48z"/>
		<path class="st5" d="M33.95,73.28c0.28,4.69,1.53,9.47,3.52,13.52h12.01c-0.74-4.25-1.24-8.79-1.5-13.52H33.95z"/>
		<path class="st5" d="M74.95,73.28v13.52h13.83c0.9-3.9,1.46-8.21,1.75-13.52H74.95z"/>
		<path class="st5" d="M87.07,92.22H74.95v15.76C79.9,106.32,84.29,100.61,87.07,92.22z"/>
		<path class="st5" d="M69.26,67.58V54.07H55.43c-0.9,3.91-1.46,8.21-1.75,13.52H69.26z"/>
		<path class="st5" d="M40.92,92.48c4.25,5.85,9.99,10.39,16.67,13.19c-2.58-3.5-4.75-7.93-6.44-13.19H40.92z"/>
		<path class="st5" d="M103.28,48.38c-4.42-6.08-10.31-10.75-16.7-13.23c2.6,3.5,4.77,7.95,6.47,13.23H103.28z"/>
		<path class="st5" d="M110.24,67.58c-0.5-4.46-1.68-9.01-3.52-13.52H94.72c0.74,4.25,1.24,8.8,1.5,13.52H110.24z"/>
		<path class="st5" d="M69.26,48.38V32.62c-4.8,1.63-9.29,7.48-12.12,15.76H69.26z"/>
		<path class="st5" d="M40.93,48.38h10.23c1.82-5.42,3.98-9.85,6.44-13.19C50.92,37.99,45.18,42.53,40.93,48.38z"/>
		<path class="st5" d="M106.72,86.79c2.07-4.44,3.26-8.98,3.53-13.52H96.22c-0.26,4.72-0.76,9.26-1.5,13.52H106.72z"/>
		<path class="st5" d="M69.26,108.24V92.48H57.14C59.96,100.77,64.46,106.61,69.26,108.24z"/>
		<path class="st5" d="M69.26,86.79V73.28H53.68c0.29,5.31,0.85,9.62,1.75,13.52H69.26z"/>
		<path class="st5" d="M103.28,92.49H93.05c-1.82,5.42-3.98,9.85-6.44,13.19C93.29,102.88,99.03,98.34,103.28,92.49z"/>
		<path class="st2" d="M72.1,27.07c-23.91,0-43.36,19.45-43.36,43.36c0,23.91,19.45,43.36,43.36,43.36
			c23.91,0,43.36-19.45,43.36-43.36S96.01,27.07,72.1,27.07z M40.23,48.49c4.51-6.37,10.74-11.24,18.02-14.1l0.86-0.34l-0.57,0.72
			c-2.67,3.4-5.02,8.09-6.97,13.94l-0.06,0.17H39.95L40.23,48.49z M33.44,67.82c0.25-4.74,1.48-9.48,3.66-14.11l0.07-0.14h12.92
			l-0.05,0.29c-0.77,4.38-1.3,9.08-1.55,13.98l-0.01,0.24H33.42L33.44,67.82z M37.1,87.15c-2.1-4.21-3.4-9.22-3.66-14.11l-0.01-0.26
			h15.04l0.01,0.24c0.26,4.89,0.78,9.6,1.55,13.99l0.05,0.29H37.17L37.1,87.15z M58.26,106.48c-7.28-2.86-13.51-7.74-18.02-14.1
			l-0.28-0.39h11.57l0.06,0.17c1.8,5.65,4.14,10.34,6.97,13.94l0.57,0.72L58.26,106.48z M69.76,108.92l-0.32-0.1
			c-5.13-1.54-9.95-7.71-12.88-16.51l-0.11-0.33h13.31V108.92z M69.76,87.29H55.03l-0.04-0.19c-0.95-4.05-1.53-8.51-1.82-14.06
			l-0.01-0.26h16.61V87.29z M69.76,68.08H53.15l0.01-0.26c0.29-5.54,0.87-10.01,1.82-14.06l0.04-0.19h14.72V68.08z M69.76,48.88
			H56.44l0.11-0.33c2.93-8.8,7.75-14.97,12.88-16.51l0.32-0.1V48.88z M107.11,53.72c1.93,4.69,3.16,9.43,3.65,14.08l0.03,0.28H95.74
			l-0.01-0.24c-0.26-4.89-0.78-9.6-1.55-13.99l-0.05-0.29h12.92L107.11,53.72z M85.94,34.38c6.94,2.48,13.34,7.49,18.03,14.11
			l0.28,0.39H92.69l-0.06-0.17c-1.8-5.65-4.14-10.34-6.97-13.94l-0.54-0.68L85.94,34.38z M74.45,31.94l0.32,0.1
			c5.13,1.54,9.95,7.71,12.88,16.51l0.11,0.33H74.45V31.94z M74.45,53.57h14.72l0.04,0.19c0.95,4.04,1.53,8.51,1.82,14.06l0.01,0.26
			H74.45V53.57z M74.45,72.78h16.61l-0.01,0.26c-0.29,5.54-0.87,10.01-1.82,14.06l-0.04,0.19H74.45V72.78z M74.77,108.57l-0.32,0.1
			V91.72h13.31l-0.11,0.33C84.77,100.95,80.08,106.97,74.77,108.57z M103.97,92.38c-4.51,6.37-10.74,11.25-18.02,14.1l-0.86,0.34
			l0.57-0.72c2.67-3.4,5.02-8.09,6.97-13.94l0.06-0.17h11.57L103.97,92.38z M110.77,73.04c-0.25,4.74-1.48,9.48-3.66,14.11
			l-0.07,0.14H94.13L94.18,87c0.77-4.39,1.3-9.09,1.55-13.99l0.01-0.24h15.04L110.77,73.04z"/>
	</g>
</g>
<g id="Online_marketing_capability" class="st0">
	<g class="st1">
		<g>
			<g>
				<path class="st2" d="M126.49,31.02c2.67-1.98,4.26-5.14,4.26-8.45c0-5.8-4.72-10.52-10.52-10.52c-3.25,0-6.26,1.44-8.25,3.96
					c-0.16,0.21-0.42,0.33-0.68,0.33H65.93c-3.04,0-5.91,1.19-8.06,3.34s-3.34,5.01-3.34,8.06v53.96c0,1.73,0.68,3.36,1.9,4.58
					c1.22,1.22,2.85,1.9,4.59,1.9c0,0,0,0,0,0c1.73,0,3.36-0.67,4.58-1.9l7.67-7.65c0.16-0.16,0.38-0.25,0.61-0.25h41.1
					c3.05,0,5.91-1.19,8.06-3.34c2.15-2.15,3.34-5.01,3.34-8.06V32.32c0,0-0.06-1.07,0.08-1.27L126.49,31.02z M120.76,66.99
					c0,1.54-0.6,2.99-1.69,4.08c0,0,0,0,0,0c-1.09,1.09-2.54,1.69-4.08,1.69H71.19l-9.56,9.56c-0.17,0.17-0.39,0.25-0.61,0.25
					c-0.11,0-0.22-0.02-0.33-0.07c-0.32-0.13-0.54-0.45-0.54-0.8l0-53.96c0-1.54,0.6-2.99,1.69-4.08c1.09-1.09,2.54-1.69,4.08-1.69
					h42.94c0.47,0,0.86,0.38,0.87,0.85c0.13,5.68,4.51,10.09,10.18,10.25c0.47,0.01,0.84,0.4,0.84,0.87V66.99z M120.34,26.77
					c-2.41-0.13-4.19-1.93-4.19-4.19c0-2.31,1.88-4.19,4.19-4.19s4.19,1.88,4.19,4.19S122.65,26.77,120.34,26.77z"/>
			</g>
			<g>
				<path class="st5" d="M47.15,111c1.34,0,2.43-1.09,2.43-2.43c0-1.34-1.09-2.43-2.43-2.43c-1.34,0-2.43,1.09-2.43,2.43
					C44.72,109.91,45.81,111,47.15,111z"/>
				<path class="st5" d="M24.21,113.28c0,2.63,2.14,4.77,4.77,4.77h36.34c2.63,0,4.77-2.14,4.77-4.77V99.05H24.21V113.28z
					 M47.15,101.39c3.96,0,7.18,3.22,7.18,7.18c0,3.96-3.22,7.18-7.18,7.18s-7.18-3.22-7.18-7.18
					C39.97,104.61,43.19,101.39,47.15,101.39z"/>
				<path class="st2" d="M70.09,93.83H24.21V52.37h25.37v-5.21H24.21V38.7c0-2.63,2.14-4.77,4.77-4.77v0h20.6v-4.75h-20.6
					c-5.25,0-9.52,4.27-9.52,9.52v74.58c0,5.25,4.27,9.52,9.52,9.52h36.34c2.54,0,4.93-0.99,6.73-2.79s2.79-4.19,2.79-6.73V84.47
					l-4.75,4.37V93.83z M70.09,113.28c0,2.63-2.14,4.77-4.77,4.77H28.98c-2.63,0-4.77-2.14-4.77-4.77V99.05h45.88V113.28z"/>
				<path class="st2" d="M47.15,115.75c3.96,0,7.18-3.22,7.18-7.18c0-3.96-3.22-7.18-7.18-7.18c-3.96,0-7.18,3.22-7.18,7.18
					C39.97,112.53,43.19,115.75,47.15,115.75z M47.15,106.14c1.34,0,2.43,1.09,2.43,2.43c0,1.34-1.09,2.43-2.43,2.43
					c-1.34,0-2.43-1.09-2.43-2.43C44.72,107.23,45.81,106.14,47.15,106.14z"/>
				<path class="st2" d="M39.17,38.16c-1.84,0-3.29,1.04-3.29,2.38s1.44,2.38,3.29,2.38h10.41v-4.75H39.17z"/>
			</g>
		</g>
		<g>
			<path class="st7" d="M107.24,29.61c0-0.41-0.23-0.76-0.6-0.93c-0.37-0.17-0.79-0.11-1.1,0.15l-0.6,0.52l-0.01-0.02
				c-2.26,1.8-9.75,7.31-16.81,7.75l-11.87,0.15c-0.28,0-0.54,0.11-0.73,0.31c-0.19,0.2-0.3,0.46-0.29,0.73l0.01,0.77h-0.01
				l0.01,0.45l-4.1,0.05c-0.28,0-0.54,0.11-0.73,0.31c-0.19,0.2-0.3,0.46-0.3,0.73l0.12,10.07c0,0.28,0.11,0.54,0.31,0.73
				c0.19,0.19,0.45,0.3,0.72,0.3l4.12-0.05l0.01,0.76c0.01,0.6,0.12,1.03,0.33,1.22c0.34,0.32,1.16,0.3,2.11,0.26
				c0.29-0.01,0.56-0.02,0.84-0.02l0.57-0.01l1.66,5.51l1.26,3.88c0.36,0.29,0.71,0.47,0.84,0.47l7.48-0.08
				c0.41,0.02,0.71-0.12,0.93-0.41c0.2-0.26,0.26-0.61,0.16-0.92l-2.57-8.52l1.19,0.18c7.75,1.18,15.43,7.41,15.75,7.67
				c0.32,0.26,0.76,0.3,1.13,0.11c0.38-0.19,0.58-0.56,0.55-1.04L107.24,29.61z M72.26,49.61l-0.09-8l3.07-0.03l0.09,8L72.26,49.61z
				 M77.44,51.81L77.29,39.3l9.06-0.1l0.14,12.52L77.44,51.81z M89.16,61.58l-5.43,0.06l-0.02-0.08l-2.33-7.72l5.43-0.06l0.02,0.08
				L89.16,61.58z M104.31,57.9c-3.08-2.06-9.12-5.59-15.05-6.13l-0.68-0.06l0-0.1l-0.14-12.46l0.68-0.08
				c5.92-0.68,11.88-4.35,14.91-6.48l1.18-0.83l0,0.21l0.31,26.73L104.31,57.9z"/>
		</g>
	</g>
</g>
<g id="Professional_e-commerce_design" class="st0">
	<g class="st1">
		<g>
			<path class="st2" d="M87.5,99.16c-0.44,0-0.89-0.1-1.32-0.31L52.04,82.14c-0.71-0.35-1.26-0.97-1.52-1.72s-0.21-1.58,0.14-2.29
				l26.62-54.4c0.73-1.49,2.53-2.1,4.01-1.38l34.14,16.71c0.71,0.35,1.26,0.97,1.52,1.72c0.26,0.75,0.21,1.58-0.14,2.29l-26.62,54.4
				C89.67,98.54,88.61,99.16,87.5,99.16z M57.37,78.07l28.75,14.07l23.99-49.01L81.36,29.06L57.37,78.07z"/>
			<path class="st2" d="M58.3,113.6c-0.47,0-0.94-0.11-1.37-0.33c-0.85-0.44-1.44-1.25-1.59-2.19l-4.99-30.66
				c-0.27-1.63,0.84-3.18,2.48-3.44c1.63-0.27,3.18,0.84,3.44,2.48l4.34,26.65l25.56-12.64c1.49-0.73,3.28-0.13,4.02,1.36
				c0.73,1.49,0.13,3.29-1.36,4.02l-29.2,14.44C59.21,113.49,58.76,113.6,58.3,113.6z"/>
		</g>
		<path class="st2" d="M57.62,113.6H28.09c-1.66,0-3-1.34-3-3s1.34-3,3-3h29.54c1.66,0,3,1.34,3,3S59.28,113.6,57.62,113.6z"/>
		<path class="st2" d="M62,86.68c-0.45,0-0.91-0.1-1.34-0.32c-1.48-0.74-2.08-2.55-1.33-4.03l27.19-54.12
			c0.74-1.48,2.55-2.08,4.03-1.33c1.48,0.74,2.08,2.55,1.33,4.03L64.69,85.02C64.16,86.07,63.1,86.68,62,86.68z"/>
		<path class="st2" d="M77.95,94.48c-0.45,0-0.91-0.1-1.34-0.32c-1.48-0.74-2.08-2.55-1.33-4.03l27.19-54.12
			c0.74-1.48,2.55-2.08,4.03-1.33c1.48,0.74,2.08,2.55,1.33,4.03L80.63,92.83C80.1,93.87,79.04,94.48,77.95,94.48z"/>
	</g>
</g>
<g id="Enhance_customer_relationship" class="st0">
	<g class="st1">
		<path class="st8" d="M126.14,69.68c-0.75-0.75-1.74-1.16-2.79-1.16c0,0,0,0,0,0c-1.05,0-2.04,0.41-2.79,1.16l-2.74,2.74l0.04-1.26
			c0.01-0.3,0.01-0.61,0.01-0.92c0-25.5-20.75-46.25-46.25-46.25c-12.68,0-24.52,5.03-33.32,14.17c-8.8,9.13-13.38,21.16-12.9,33.86
			c0.9,23.95,20.36,43.46,44.3,44.43c10.16,0.41,19.89-2.4,28.19-8.14c1.02-0.71,1.63-1.83,1.66-3.06c0.03-1.23-0.52-2.36-1.49-3.1
			l-0.26-0.19c-1.31-1-3.12-1.02-4.52-0.06c-6.39,4.38-13.88,6.7-21.66,6.7c-10.59,0-20.81-4.44-28.04-12.19
			C36.23,88.55,32.6,78.3,33.35,67.53c1.31-18.95,16.58-34.22,35.53-35.53c10.77-0.74,21.03,2.88,28.88,10.21
			c7.75,7.23,12.19,17.45,12.19,28.04c0,0.31,0,0.62-0.01,0.92l-0.03,1.17l-2.66-2.66c-0.75-0.75-1.74-1.16-2.79-1.16
			c0,0,0,0-0.01,0c-1.05,0-2.04,0.42-2.79,1.16c-1.54,1.54-1.54,4.05,0,5.59l9.45,9.45c0.75,0.75,1.74,1.16,2.79,1.16
			c0,0,0,0,0.01,0c1.05,0,2.04-0.41,2.79-1.16l9.45-9.45c0.75-0.75,1.16-1.75,1.16-2.8C127.3,71.42,126.89,70.42,126.14,69.68z"/>
		<path class="st8" d="M73.32,59.13c0-2.19-1.77-3.97-3.95-3.97c-2.18,0-3.95,1.78-3.95,3.97v17.77c0,2.18,1.77,3.96,3.94,3.97
			h13.38c2.18,0,3.95-1.77,3.95-3.95s-1.77-3.95-3.95-3.95h-9.41V59.13z"/>
	</g>
</g>
<g id="Highly_interactive_app" class="st0">
	<g class="st1">
		<g>
			<path class="st9" d="M95.02,123.82H53.19c-5.77,0-10.46-4.69-10.46-10.46V27.5c0-5.77,4.69-10.46,10.46-10.46h41.83
				c5.77,0,10.46,4.69,10.46,10.46v85.85C105.48,119.12,100.79,123.82,95.02,123.82L95.02,123.82z M53.19,21.52
				c-3.3,0-5.99,2.69-5.99,5.99v85.85c0,3.3,2.69,5.99,5.99,5.99h41.83c3.3,0,5.99-2.69,5.99-5.99V27.5c0-3.3-2.69-5.99-5.99-5.99
				L53.19,21.52L53.19,21.52z"/>
			<path class="st9" d="M74.1,115.71c-4.28,0-7.76-3.48-7.76-7.77s3.48-7.77,7.76-7.77c4.28,0,7.77,3.48,7.77,7.77
				C81.87,112.22,78.39,115.71,74.1,115.71z M74.1,104.64c-1.82,0-3.29,1.48-3.29,3.3c0,1.82,1.48,3.3,3.29,3.3
				c1.82,0,3.3-1.48,3.3-3.3C77.4,106.12,75.92,104.64,74.1,104.64z"/>
			<path class="st9" d="M84.07,31.86H64.92c-1.81,0-3.28-1-3.28-2.23c0-1.23,1.47-2.23,3.28-2.23h19.15c1.81,0,3.28,1,3.28,2.23
				C87.35,30.86,85.88,31.86,84.07,31.86z"/>
			<path class="st9" d="M84.33,31.86h-0.78c-1.23,0-2.23-1-2.23-2.23c0-1.23,1-2.23,2.23-2.23h0.78c1.23,0,2.23,1,2.23,2.23
				C86.57,30.86,85.57,31.86,84.33,31.86z"/>
		</g>
		<g>
			<rect x="55.75" y="48.19" class="st2" width="15.8" height="15.8"/>
		</g>
		<g>
			<path class="st2" d="M88.56,53.19v5.8h-5.8v-5.8H88.56 M93.56,48.19h-15.8v15.8h15.8V48.19L93.56,48.19z"/>
		</g>
		<g>
			<path class="st2" d="M66.56,74.83v5.8h-5.8v-5.8H66.56 M71.56,69.83h-15.8v15.8h15.8V69.83L71.56,69.83z"/>
		</g>
		<g>
			<rect x="77.76" y="69.83" class="st2" width="15.8" height="15.8"/>
		</g>
	</g>
</g>
<g id="Encourage_customers_to_return" class="st0">
	<g class="st1">
		<g>
			<path class="st2" d="M73.1,120.45c-27.03,0-49.02-21.99-49.02-49.02S46.08,22.41,73.1,22.41s49.02,21.99,49.02,49.02
				S100.13,120.45,73.1,120.45z M73.1,27.41c-24.27,0-44.02,19.75-44.02,44.02s19.75,44.02,44.02,44.02s44.02-19.75,44.02-44.02
				S97.37,27.41,73.1,27.41z"/>
			<path class="st2" d="M73.1,121.45c-27.58,0-50.02-22.44-50.02-50.02S45.52,21.41,73.1,21.41s50.02,22.44,50.02,50.02
				S100.68,121.45,73.1,121.45z M73.1,23.41c-26.48,0-48.02,21.54-48.02,48.02c0,26.48,21.54,48.02,48.02,48.02
				c26.48,0,48.02-21.54,48.02-48.02C121.12,44.95,99.58,23.41,73.1,23.41z M73.1,116.45c-24.82,0-45.02-20.19-45.02-45.02
				c0-24.82,20.19-45.02,45.02-45.02c24.82,0,45.02,20.19,45.02,45.02C118.12,96.25,97.93,116.45,73.1,116.45z M73.1,28.41
				c-23.72,0-43.02,19.3-43.02,43.02c0,23.72,19.3,43.02,43.02,43.02c23.72,0,43.02-19.3,43.02-43.02
				C116.12,47.71,96.82,28.41,73.1,28.41z"/>
		</g>
		<g>
			<g>
				<path class="st2" d="M76.99,87.47H53.65c-1.38,0-2.5-1.12-2.5-2.5s1.12-2.5,2.5-2.5h23.34c7.88,0,14.29-6.41,14.29-14.29
					s-6.41-14.29-14.29-14.29H66.6c-1.38,0-2.5-1.12-2.5-2.5s1.12-2.5,2.5-2.5h10.38c10.64,0,19.29,8.66,19.29,19.29
					C96.28,78.82,87.62,87.47,76.99,87.47z"/>
				<path class="st2" d="M76.98,88.47H53.65c-1.93,0-3.5-1.57-3.5-3.5s1.57-3.5,3.5-3.5h23.34c7.33,0,13.29-5.96,13.29-13.29
					c0-7.33-5.96-13.29-13.29-13.29H66.6c-1.93,0-3.5-1.57-3.5-3.5s1.57-3.5,3.5-3.5h10.38c11.19,0,20.29,9.1,20.29,20.29
					C97.28,79.37,88.18,88.47,76.98,88.47z M53.65,83.47c-0.83,0-1.5,0.67-1.5,1.5s0.67,1.5,1.5,1.5h23.34
					c10.09,0,18.29-8.21,18.29-18.29c0-10.09-8.21-18.29-18.29-18.29H66.6c-0.83,0-1.5,0.67-1.5,1.5s0.67,1.5,1.5,1.5h10.38
					c8.43,0,15.29,6.86,15.29,15.29c0,8.43-6.86,15.29-15.29,15.29H53.65z"/>
			</g>
			<g>
				<path class="st2" d="M65.35,100.07c-0.64,0-1.28-0.24-1.77-0.73L50.66,86.41c-0.98-0.98-0.98-2.56,0-3.54l12.26-12.26
					c0.98-0.98,2.56-0.98,3.54,0s0.98,2.56,0,3.54L55.96,84.64L67.12,95.8c0.98,0.98,0.98,2.56,0,3.54
					C66.63,99.82,65.99,100.07,65.35,100.07z"/>
				<path class="st2" d="M65.35,101.06c-0.93,0-1.81-0.36-2.47-1.03L49.95,87.12c-1.36-1.36-1.36-3.58,0-4.95l12.26-12.26
					c1.36-1.37,3.58-1.37,4.95,0c1.36,1.36,1.36,3.58,0,4.95l-9.79,9.79l10.45,10.45c0.66,0.66,1.03,1.54,1.03,2.47
					c0,0.94-0.36,1.81-1.03,2.47C67.16,100.7,66.28,101.06,65.35,101.06z M64.69,70.88c-0.38,0-0.77,0.15-1.06,0.44L51.37,83.58
					c-0.58,0.58-0.58,1.54,0,2.12l12.92,12.92c0.57,0.57,1.55,0.57,2.12,0c0.28-0.28,0.44-0.66,0.44-1.06s-0.16-0.78-0.44-1.06
					L54.55,84.64l11.2-11.2c0.58-0.58,0.58-1.54,0-2.12C65.46,71.03,65.07,70.88,64.69,70.88z"/>
			</g>
		</g>
	</g>
</g>
<g id="Initiate_collaborations_with_brands" class="st0">
	<g class="st1">
		<g>
			<path class="st2" d="M97.74,28.3l25.02,22.48c0.02,0.02,0.04,0.04,0.04,0.09c0,0.05-0.02,0.07-0.04,0.09L97.74,73.44v-6.23v-5h-5
				H62.29V39.52h30.46h5v-5V28.3 M96.98,22.31c-2.17,0-4.24,1.7-4.24,4.22v8H61.5c-2.33,0-4.21,1.89-4.21,4.21V63
				c0,2.33,1.89,4.21,4.21,4.21h31.24v8c0,2.52,2.07,4.22,4.24,4.22c0.97,0,1.95-0.34,2.79-1.09l26.34-23.66
				c2.27-2.04,2.27-5.59,0-7.62L99.77,23.4C98.93,22.65,97.94,22.31,96.98,22.31L96.98,22.31z"/>
		</g>
		<g>
			<path class="st2" d="M46.52,65.94v7.02v5h5h30.46v22.7H51.52h-5v5v7.03L17.45,89.41c-0.02-0.02-0.05-0.04-0.05-0.1
				c0-0.06,0.02-0.08,0.05-0.1L46.52,65.94 M47.29,60.08c-0.89,0-1.81,0.29-2.61,0.93l-30.35,24.3c-2.56,2.05-2.56,5.95,0,8
				l30.35,24.31c0.8,0.64,1.72,0.93,2.61,0.93c2.18,0,4.23-1.71,4.23-4.22v-8.67h31.24c2.33,0,4.21-1.89,4.21-4.21V77.17
				c0-2.33-1.89-4.21-4.21-4.21H51.52V64.3C51.52,61.8,49.47,60.08,47.29,60.08L47.29,60.08z"/>
		</g>
	</g>
</g>
<g id="Easy_redemption_process" class="st0">
	<g class="st1">
		<path class="st5" d="M93.14,103.42c-1.4,0-2.5,1.1-2.5,2.5c0,1.41,1.1,2.51,2.5,2.51s2.5-1.1,2.5-2.51
			C95.65,104.52,94.54,103.42,93.14,103.42z"/>
		<polygon class="st5" points="56.54,51.28 56.54,75.4 71.96,63.34 		"/>
		<polygon class="st5" points="61.88,81.38 95.02,81.38 78.45,68.42 		"/>
		<polygon class="st5" points="102.16,81.88 102.16,81.88 102.15,81.88 		"/>
		<polygon class="st5" points="93.72,46.32 63.19,46.32 78.45,58.26 		"/>
		<path class="st5" d="M62.05,103.42c-1.41,0-2.51,1.1-2.51,2.5c0,1.41,1.1,2.51,2.51,2.51c1.4,0,2.5-1.1,2.5-2.51
			C64.56,104.52,63.46,103.42,62.05,103.42z"/>
		<polygon class="st5" points="101.66,76.41 101.66,50.27 84.95,63.34 		"/>
		<path class="st2" d="M111.17,94.41l-67.65,0V42.82c0-0.63-0.24-1.24-0.73-1.85l-2.12-1.99l-9.87-9.87
			c-0.5-0.5-1.16-0.81-1.86-0.75c-0.63,0.02-1.21,0.28-1.62,0.74c-0.52,0.52-0.79,1.19-0.77,1.88c0.02,0.64,0.28,1.21,0.74,1.62
			l11.34,11.34v53.1c0,1.4,1.1,2.5,2.51,2.5h15.45l-0.77,0.84c-1.37,1.48-2.15,3.55-2.15,5.67c0,4.62,3.9,8.51,8.51,8.51
			c4.62,0,8.52-3.9,8.52-8.51c0-2.12-0.78-4.19-2.15-5.67l-0.77-0.84h20.03l-0.77,0.84c-1.37,1.48-2.15,3.55-2.15,5.67
			c0,4.62,3.9,8.51,8.52,8.51c0,0,0,0,0,0c2.22,0,4.31-0.91,5.87-2.56c1.55-1.64,2.4-3.79,2.4-6.07c0-2.12-0.78-4.19-2.15-5.67
			l-0.78-0.84h12.44c1.4,0,2.5-1.1,2.5-2.5S112.57,94.41,111.17,94.41z M62.05,109.43c-1.97,0-3.51-1.54-3.51-3.51
			s1.54-3.5,3.51-3.5s3.5,1.54,3.5,3.5S64.02,109.43,62.05,109.43z M93.14,109.43c-1.97,0-3.5-1.54-3.5-3.51s1.54-3.5,3.5-3.5
			s3.5,1.54,3.5,3.5S95.11,109.43,93.14,109.43z"/>
		<path class="st2" d="M53.04,87.39h52.12c1.4,0,2.5-1.1,2.5-2.5V42.82c0-1.4-1.1-2.5-2.5-2.5H53.04c-1.41,0-2.51,1.1-2.51,2.5
			v42.07C50.53,86.29,51.63,87.39,53.04,87.39z M58.98,82.38l19.47-15.23l19.47,15.23H58.98z M102.16,81.88L102.16,81.88
			L102.16,81.88L102.16,81.88z M102.66,78.47L83.32,63.34l19.33-15.12V78.47z M96.62,45.32L78.45,59.53L60.29,45.32H96.62z
			 M55.54,49.23l18.04,14.11L55.54,77.46V49.23z"/>
	</g>
</g>
<g id="New_insights_into_customers_interaction" class="st0">
	<g class="st1">
		<circle class="st5" cx="46.05" cy="55.98" r="5.32"/>
		<path class="st5" d="M117.85,64.04c-0.46-0.13-0.94-0.19-1.4-0.19c-0.91,0-1.82,0.24-2.63,0.71c-1.23,0.71-2.12,1.85-2.49,3.22
			c-0.37,1.37-0.19,2.8,0.52,4.04c0.71,1.24,1.85,2.12,3.22,2.49c2.83,0.77,5.76-0.9,6.53-3.73S120.69,64.81,117.85,64.04z"/>
		<circle class="st5" cx="93.31" cy="45.24" r="5.32"/>
		<circle class="st5" cx="69.73" cy="84.88" r="5.32"/>
		<path class="st5" d="M22.46,90.3c-2.93,0-5.32,2.39-5.32,5.32s2.39,5.32,5.32,5.32c2.93,0,5.32-2.39,5.32-5.32
			S25.4,90.3,22.46,90.3z"/>
		<path class="st2" d="M119.54,57.85c-2.95-0.8-6.1-0.43-8.65,1.03l-0.34,0.19l-7.29-7.64l0.19-0.33c1.04-1.79,1.59-3.82,1.59-5.86
			c0-6.48-5.27-11.74-11.74-11.74c-6.48,0-11.74,5.27-11.74,11.74c0,3.06,1.19,6,3.27,8.08l0.27,0.27L73.17,73.73l-0.37-0.11
			c-2.77-0.83-5.38-0.59-7.87,0.58l-0.35,0.17l-9.21-11.33l0.22-0.31c1.47-2.1,2.22-4.4,2.22-6.84c0-6.47-5.27-11.74-11.74-11.74
			c-6.47,0-11.74,5.31-11.74,11.84c0,3.1,1.2,6.01,3.37,8.18l0.28,0.28L26,84.47l-0.37-0.11c-1.08-0.32-2.12-0.48-3.17-0.48
			c-6.48,0-11.74,5.27-11.74,11.74c0,6.47,5.27,11.74,11.74,11.74c0,0,0,0,0,0c3.12,0,6.06-1.23,8.29-3.45
			c2.23-2.23,3.45-5.17,3.45-8.29c0-3.1-1.2-6-3.37-8.18l-0.28-0.28l12.04-20.04l0.37,0.11c2.77,0.83,5.38,0.59,7.87-0.58l0.35-0.17
			l9.21,11.33l-0.22,0.31c-1.47,2.1-2.22,4.4-2.22,6.84c0,6.48,5.27,11.74,11.74,11.74c6.47,0,11.74-5.31,11.74-11.84
			c0-3.07-1.16-5.97-3.27-8.19l-0.26-0.27l11.94-20.03l0.37,0.11c1.06,0.32,2.09,0.48,3.07,0.48c1.99,0,3.97-0.52,5.72-1.51
			l0.34-0.19l7.23,7.65l-0.21,0.33c-0.59,0.94-1.01,1.89-1.27,2.83c-0.82,3.01-0.41,6.17,1.15,8.91c1.56,2.73,4.08,4.69,7.09,5.51
			c6.24,1.71,12.71-1.99,14.42-8.24C129.49,66.02,125.79,59.55,119.54,57.85z M22.46,101.94c-3.49,0-6.32-2.83-6.32-6.32
			s2.83-6.32,6.32-6.32s6.32,2.83,6.32,6.32S25.95,101.94,22.46,101.94z M46.05,62.3c-3.49,0-6.32-2.83-6.32-6.32
			s2.83-6.32,6.32-6.32s6.32,2.83,6.32,6.32S49.53,62.3,46.05,62.3z M69.73,91.2c-3.49,0-6.32-2.83-6.32-6.32s2.83-6.32,6.32-6.32
			s6.32,2.83,6.32,6.32S73.21,91.2,69.73,91.2z M93.31,51.56c-3.49,0-6.32-2.83-6.32-6.32s2.83-6.32,6.32-6.32s6.32,2.83,6.32,6.32
			S96.8,51.56,93.31,51.56z M122.55,70.84c-0.77,2.81-3.32,4.66-6.1,4.66c-0.55,0-1.11-0.07-1.66-0.22
			c-3.36-0.92-5.35-4.4-4.43-7.76c0.44-1.63,1.5-2.99,2.96-3.82c1.47-0.84,3.17-1.05,4.8-0.61
			C121.48,63.99,123.47,67.48,122.55,70.84z"/>
	</g>
</g>
<g id="Get_stamps_with_every_purchase" class="st0">
	<g class="st1">
		<path class="st2" d="M83.95,65.05v11h7.42c0.79,0,1.19,0.96,0.63,1.51l-17.7,17.7c-0.17,0.17-0.4,0.26-0.63,0.26
			c-0.23,0-0.45-0.09-0.63-0.26l-17.7-17.7c-0.56-0.56-0.16-1.51,0.63-1.51h7.42v-11H83.95 M83.95,60.87H63.39
			c-2.3,0-4.17,1.87-4.17,4.17v6.83h-3.24c-2.05,0-3.89,1.23-4.67,3.12c-0.79,1.9-0.36,4.06,1.1,5.51l17.7,17.7
			c0.96,0.96,2.23,1.48,3.58,1.48c1.35,0,2.62-0.53,3.58-1.48l17.7-17.7c1.45-1.45,1.88-3.62,1.1-5.51
			c-0.79-1.9-2.62-3.12-4.68-3.12h-3.24v-6.83C88.13,62.74,86.26,60.87,83.95,60.87L83.95,60.87z"/>
		<path class="st2" d="M108.52,112.73H35.69c-1.23,0-2.28-0.89-2.47-2.11L23.61,49.9c-0.11-0.72,0.09-1.46,0.57-2.01
			c0.48-0.56,1.17-0.88,1.9-0.88h92.05c0.73,0,1.43,0.32,1.9,0.88c0.47,0.56,0.68,1.29,0.57,2.01l-9.61,60.72
			C110.8,111.84,109.75,112.73,108.52,112.73z M37.82,107.73h68.56l8.82-55.72h-86.2L37.82,107.73z"/>
		<path class="st2" d="M39.97,52.01c-1.38,0-2.5-1.12-2.5-2.5V32.63c0-1.38,1.12-2.5,2.5-2.5s2.5,1.12,2.5,2.5v16.88
			C42.47,50.89,41.35,52.01,39.97,52.01z"/>
		<path class="st2" d="M103.35,52.01c-1.38,0-2.5-1.12-2.5-2.5V32.63c0-1.38,1.12-2.5,2.5-2.5s2.5,1.12,2.5,2.5v16.88
			C105.85,50.89,104.73,52.01,103.35,52.01z"/>
	</g>
</g>
<g id="Get_stamps_by_playing_mini-games" class="st0">
	<g class="st1">
		<g>
			<path class="st5" d="M101.59,51.15c-3.95-1.09-7.47-0.52-10.43,1.7l-0.69,0.45l-0.79,0.29c-12.79,4.74-26.7,4.43-39.17-0.89
				l-0.63-0.28l-0.39-0.29c-2.08-1.48-4.38-2.24-6.82-2.24c-1.35,0-2.54,0.17-3.75,0.53c-6.5,1.93-13.03,8.63-17.05,17.5
				c-7,15.42-5.3,34.04,3.71,40.65c3.08,2.22,6.65,2.79,10.59,1.7c6.4-1.8,12.87-8.34,16.9-17.06c0.59-1.3,1.63-2.39,3-3.14
				c8.89-4.29,19-4.51,27.81-0.66l0.65,0.2c1.63,0.8,2.76,1.93,3.33,3.37c4.09,8.59,10.31,14.81,16.62,16.58
				c3.82,1.09,7.38,0.5,10.31-1.7l0.01,0c8.8-6.51,10.44-24.66,3.58-39.64C114.33,59.45,108.06,53.07,101.59,51.15z"/>
			<path class="st6" d="M125.49,64.3L125.49,64.3c-5.15-11.21-13.09-19.06-21.78-21.56c-5.91-1.66-11.59-0.81-16.41,2.46l-0.27,0.13
				c-3.64,1.29-7,2.11-10.25,2.52l-1.31,0.17v-8.43c0-7.45,3.2-8.56,5.11-8.56c4.88,0,10.69-2.19,10.69-12.62v-3.19H85.7v3.19
				c0,5.27-1.72,6.24-5.11,6.24c-6.49,0-10.69,5.86-10.69,14.94l0,8.63l-1.23-0.07c-4.97-0.3-10.11-1.48-14.86-3.42l-0.23-0.13
				c-3.26-2.3-6.98-3.48-10.82-3.48c-1.92,0-3.87,0.29-5.81,0.89C27.99,44.69,19.95,52.7,14.89,64c-9,19.84-6.22,42.6,6.34,51.83
				c3.33,2.45,7.13,3.69,11.29,3.69c1.85,0,3.74-0.28,5.6-0.82c8.58-2.54,16.44-10.04,21.53-20.57l0.18-0.38l0.39-0.17
				c6.5-2.9,13.99-3.01,20.54-0.3l0.41,0.17l0.19,0.39c5.12,10.44,12.83,17.78,21.13,20.14c6.06,1.67,11.82,0.68,16.64-2.87
				C131.54,105.95,134.33,83.64,125.49,64.3z M116.18,109.72L116.18,109.72c-3.53,2.65-7.8,3.37-12.34,2.08
				c-6.94-1.95-13.71-8.63-18.11-17.88c-0.37-0.92-1.08-1.63-2.13-2.17l-0.58-0.17c-8.21-3.62-17.64-3.41-25.89,0.56
				c-0.59,0.33-1.46,0.98-1.95,2.05c-4.37,9.48-11.24,16.33-18.39,18.34c-1.48,0.41-2.94,0.61-4.35,0.61c-2.98,0-5.77-0.9-8.23-2.67
				C14.2,103.1,12.2,83.59,19.75,66.96c4.36-9.61,11.28-16.62,18.5-18.77c1.42-0.43,2.83-0.63,4.41-0.63c2.93,0,5.68,0.9,8.18,2.68
				l0.28,0.2l0.24,0.09c11.98,5.11,25.28,5.41,37.52,0.87l0.64-0.23l0.26-0.19c3.51-2.63,7.82-3.35,12.45-2.07
				c7.23,2.14,13.88,8.82,18.26,18.33C127.77,83.15,125.8,102.59,116.18,109.72z"/>
		</g>
		<path class="st6" d="M99.95,69.79c-2.73,0-4.97-2.46-4.97-5.47c0-3.01,2.23-5.47,4.97-5.47c2.73,0,4.97,2.46,4.97,5.47
			C104.92,67.33,102.68,69.79,99.95,69.79z"/>
		<path class="st6" d="M99.95,89.55c-2.73,0-4.97-2.46-4.97-5.47c0-3.01,2.23-5.47,4.97-5.47c2.73,0,4.97,2.46,4.97,5.47
			C104.92,87.09,102.68,89.55,99.95,89.55z"/>
		<path class="st6" d="M110.78,78.61c-2.73,0-4.97-2.46-4.97-5.47s2.23-5.47,4.97-5.47c2.73,0,4.97,2.46,4.97,5.47
			S113.51,78.61,110.78,78.61z"/>
		<path class="st6" d="M88.25,78.61c-2.73,0-4.97-2.46-4.97-5.47s2.23-5.47,4.97-5.47c2.73,0,4.97,2.46,4.97,5.47
			S90.98,78.61,88.25,78.61z"/>
		<path class="st6" d="M47.52,60.83h-7.45v8.21h-7.45v8.21h7.45v8.21h7.45v-8.21h7.45v-8.21h-7.45L47.52,60.83z"/>
	</g>
</g>
<g id="Get_stamps_and_deals_by_filling_surveys" class="st0">
	<path class="st4" d="M37.72,23.01c-1.12,0-2.15,1.02-2.15,2.15v94.55c0,1.06,0.97,2.15,2.15,2.15h68.76c1.12,0,2.15-1.02,2.15-2.15
		V40.2c0-0.56-0.24-1.12-0.64-1.51L92.96,23.64c-0.39-0.4-0.95-0.63-1.51-0.64L37.72,23.01z M39.87,27.3H89.3V40.2
		c0.01,1,0.84,2.15,2.15,2.15h12.89v75.21H39.87L39.87,27.3z M93.59,30.36l7.69,7.69h-7.69V30.36z M46.32,34.82
		c-1.17,0-2.15,1.16-2.15,2.15v15.04c0,1.12,1.02,2.15,2.15,2.15h19.34c1.12,0,2.15-1.02,2.15-2.15V36.97
		c0-1.12-1.02-2.15-2.15-2.15H46.32z M48.47,39.12h15.04v10.74H48.47V39.12z M74.25,42.35c-1.19,0-2.15,0.96-2.15,2.15
		c0,1.19,0.96,2.15,2.15,2.15H85c1.19,0,2.15-0.96,2.15-2.15c0-1.19-0.96-2.15-2.15-2.15H74.25z M69.75,58.43
		c-0.63,0.06-1.23,0.42-1.58,0.94l-8.46,12.22l-4.67-3.12c-0.94-0.63-2.39-0.37-3.02,0.57c-0.63,0.94-0.34,2.39,0.6,3.02l6.45,4.3
		c0.93,0.63,2.36,0.36,2.99-0.57l9.67-13.97c0.48-0.67,0.52-1.64,0.1-2.35C71.42,58.76,70.57,58.34,69.75,58.43L69.75,58.43z
		 M46.32,60.61c-1.16,0.04-2.15,1.16-2.15,2.15V82.1c0,1.12,1.02,2.15,2.15,2.15h19.34c1.12,0,2.15-1.02,2.15-2.15v-2.15
		c0.02-1.14-1.01-2.18-2.15-2.18c-1.14,0-2.17,1.05-2.15,2.18H48.47V64.91h10.74c1.14,0.02,2.18-1.01,2.18-2.15
		c0-1.14-1.05-2.17-2.18-2.15L46.32,60.61z M74.25,70.28c-1.19,0-2.15,0.96-2.15,2.15c0,1.19,0.96,2.15,2.15,2.15h23.64
		c1.19,0,2.15-0.96,2.15-2.15c0-1.19-0.96-2.15-2.15-2.15H74.25z M46.32,90.69c-1.17,0-2.15,1.16-2.15,2.15v15.04
		c0,1.12,1.02,2.15,2.15,2.15h19.34c1.12,0,2.15-1.02,2.15-2.15V92.84c0-1.12-1.02-2.15-2.15-2.15H46.32z M48.47,94.99h15.04v10.74
		H48.47V94.99z M74.25,98.22c-1.19,0-2.15,0.96-2.15,2.15c0,1.19,0.96,2.15,2.15,2.15h23.64c1.19,0,2.15-0.96,2.15-2.15
		c0-1.19-0.96-2.15-2.15-2.15H74.25z"/>
</g>
<g id="Products_with_stamps" class="st0">
	<path class="st4" d="M108.81,120.39H76.73c-1.38,0-2.5-1.12-2.5-2.5V69.77c0-1.38,1.12-2.5,2.5-2.5h32.07c1.38,0,2.5,1.12,2.5,2.5
		v48.13C111.31,119.28,110.19,120.39,108.81,120.39z M79.23,115.39h27.07V72.27H79.23V115.39z M67.48,120.39H35.4
		c-1.38,0-2.5-1.12-2.5-2.5V69.77c0-1.38,1.12-2.5,2.5-2.5h32.07c1.38,0,2.5,1.12,2.5,2.5v48.13
		C69.98,119.28,68.86,120.39,67.48,120.39z M37.9,115.39h27.07V72.27H37.9V115.39z M120.23,63.27H79.61c-1.38,0-2.5-1.12-2.5-2.5
		V44.49c0-1.38,1.12-2.5,2.5-2.5h40.62c1.38,0,2.5,1.12,2.5,2.5v16.28C122.73,62.15,121.61,63.27,120.23,63.27z M82.11,58.27h35.62
		V46.99H82.11V58.27z M64.6,63.27H23.98c-1.38,0-2.5-1.12-2.5-2.5V44.49c0-1.38,1.12-2.5,2.5-2.5H64.6c1.38,0,2.5,1.12,2.5,2.5
		v16.28C67.1,62.15,65.98,63.27,64.6,63.27z M26.48,58.27H62.1V46.99H26.48V58.27z M84.3,37.99h-8.05c-1.38,0-2.5-1.12-2.5-2.5
		v-7.26c0-2.62,1.16-5.17,3.18-6.99c1.98-1.79,4.6-2.77,7.37-2.77c3.71,0,7.19,1.83,9.08,4.78c1.96,3.07,1.96,6.89,0,9.96
		C91.48,36.16,88.01,37.99,84.3,37.99z M78.75,32.99h5.55c2.02,0,3.89-0.95,4.87-2.48c0.91-1.43,0.91-3.14,0-4.57
		c-0.98-1.53-2.84-2.48-4.87-2.48c-1.51,0-2.97,0.54-4.02,1.48c-0.99,0.89-1.53,2.06-1.53,3.28V32.99z M67.87,37.99h-8.01
		c-2.76,0-5.37-0.99-7.34-2.78c-2.01-1.82-3.16-4.37-3.16-6.99c0-3.52,2.05-6.78,5.34-8.51c3.18-1.67,7.14-1.67,10.32,0
		c3.3,1.73,5.34,4.99,5.34,8.51v7.26C70.37,36.87,69.25,37.99,67.87,37.99z M59.87,23.46c-0.98,0-1.96,0.23-2.84,0.69l0,0
		c-1.64,0.86-2.66,2.42-2.66,4.08c0,1.23,0.54,2.39,1.52,3.28c1.04,0.94,2.49,1.48,3.98,1.48h5.51v-4.76c0-1.65-1.02-3.22-2.66-4.08
		C61.83,23.69,60.85,23.46,59.87,23.46z"/>
</g>
<g id="Highly_secured_cloud_base" class="st0">
	<g class="st1">
		<path class="st9" d="M100.67,50.85l-0.95-0.05v-0.95v-5.4c-0.01-6.84-2.67-13.27-7.51-18.11c-4.84-4.84-11.27-7.5-18.11-7.51
			c-6.84,0.01-13.27,2.67-18.11,7.51c-4.84,4.84-7.51,11.27-7.51,18.11v5.43v0.95l-0.95,0.05c-2.92,0.16-5.63,1.42-7.64,3.54
			c-2.01,2.12-3.11,4.91-3.11,7.83v42.4c0,3.04,1.18,5.89,3.33,8.04c2.15,2.15,5,3.33,8.04,3.33h51.89c3.04,0,5.89-1.18,8.04-3.33
			s3.33-5,3.33-8.04V62.22c0-2.93-1.1-5.71-3.11-7.83C106.31,52.27,103.59,51.01,100.67,50.85z M53.23,49.85v-5.4
			c0.01-5.57,2.18-10.81,6.12-14.75c3.94-3.94,9.18-6.11,14.75-6.12c5.57,0.01,10.81,2.18,14.76,6.12
			c3.94,3.94,6.11,9.18,6.12,14.75v5.4v1h-1H54.23h-1V49.85z M106.68,104.66c0,1.77-0.69,3.43-1.94,4.68
			c-1.25,1.25-2.92,1.94-4.68,1.94H48.16c-1.77,0-3.43-0.69-4.68-1.94c-1.25-1.25-1.94-2.92-1.94-4.68V62.22
			c0-1.77,0.69-3.43,1.94-4.68c1.25-1.25,2.92-1.94,4.68-1.94h51.89c1.77,0,3.43,0.69,4.68,1.94c1.25,1.25,1.94,2.91,1.94,4.68
			V104.66z"/>
		<path class="st9" d="M69.43,87.72c0.02,0.01,0.03,0.01,0.05,0.02v0C69.46,87.73,69.45,87.72,69.43,87.72z"/>
		<path class="st9" d="M70.48,88.09L70.48,88.09c0.02,0.01,0.05,0.02,0.07,0.03C70.53,88.11,70.51,88.1,70.48,88.09z"/>
		<path class="st9" d="M74.11,88.65c-0.24,0-0.47-0.02-0.7-0.03C73.64,88.62,73.87,88.65,74.11,88.65
			C74.11,88.65,74.11,88.65,74.11,88.65z"/>
		<path class="st9" d="M77.73,88.09L77.73,88.09c-0.68,0.21-1.38,0.36-2.1,0.45C76.34,88.45,77.05,88.3,77.73,88.09z"/>
		<path class="st9" d="M84.02,81.7c0.05-0.1,0.09-0.2,0.14-0.3c0.11-0.23,0.23-0.45,0.32-0.68c0.06-0.14,0.1-0.29,0.15-0.43
			c0.07-0.2,0.15-0.39,0.21-0.6c0.05-0.16,0.08-0.33,0.12-0.5c0.05-0.19,0.1-0.37,0.14-0.56c0.03-0.17,0.05-0.34,0.08-0.51
			c0.03-0.19,0.07-0.39,0.09-0.58c0.02-0.17,0.02-0.34,0.02-0.51c0.01-0.2,0.03-0.4,0.03-0.6c0,0,0,0,0,0c0,0,0,0,0,0
			c0-0.08-0.01-0.16-0.01-0.25c-0.07-2.9-1.22-5.62-3.28-7.68c-0.26-0.26-0.54-0.51-0.82-0.74c-0.03-0.03-0.07-0.05-0.1-0.08
			c-0.23-0.18-0.46-0.36-0.7-0.52c-0.18-0.12-0.37-0.23-0.55-0.34c-0.1-0.06-0.19-0.12-0.29-0.17c-0.23-0.13-0.47-0.25-0.71-0.36
			c-0.04-0.02-0.09-0.05-0.13-0.07v0c-1.44-0.65-3-1.01-4.62-1.01v0c-2.66,0-5.17,0.92-7.19,2.61c-0.1,0.08-0.19,0.17-0.28,0.26
			c-0.16,0.14-0.32,0.28-0.47,0.43c-0.53,0.53-1,1.11-1.41,1.72c-0.04,0.06-0.07,0.13-0.11,0.19c-0.16,0.25-0.31,0.49-0.45,0.75
			c-0.06,0.11-0.1,0.23-0.16,0.34c-0.11,0.21-0.21,0.43-0.31,0.65c-0.07,0.16-0.11,0.32-0.17,0.48c-0.07,0.18-0.14,0.36-0.19,0.55
			c-0.05,0.16-0.08,0.33-0.12,0.5c-0.05,0.19-0.1,0.37-0.14,0.56c-0.03,0.17-0.05,0.34-0.07,0.51c-0.03,0.19-0.07,0.39-0.09,0.58
			c-0.02,0.17-0.02,0.34-0.02,0.51c-0.01,0.2-0.03,0.4-0.03,0.6c0,0,0,0,0,0c0,0,0,0,0,0c0,0.08,0.01,0.16,0.01,0.25
			c0.07,2.9,1.22,5.62,3.28,7.68c0.26,0.26,0.54,0.51,0.82,0.74c0.03,0.03,0.07,0.05,0.11,0.08c0.23,0.18,0.46,0.36,0.7,0.52
			c0.18,0.12,0.37,0.23,0.55,0.34c0.1,0.06,0.19,0.12,0.29,0.17c0.23,0.13,0.47,0.25,0.71,0.36c0.04,0.02,0.09,0.05,0.13,0.07v0
			c0.33,0.15,0.66,0.28,1,0.4v0v1.05c0.02,0.01,0.05,0.02,0.07,0.03c-0.02-0.01-0.05-0.02-0.07-0.03V100h7.25v-11.9
			c-0.68,0.21-1.38,0.36-2.1,0.45c0.71-0.09,1.42-0.23,2.1-0.45v-1.05c1.29-0.44,2.5-1.11,3.56-2c0.1-0.08,0.19-0.17,0.28-0.26
			c0.16-0.14,0.32-0.28,0.47-0.43c0.53-0.53,1-1.11,1.41-1.72c0.04-0.06,0.07-0.13,0.11-0.19C83.73,82.2,83.88,81.95,84.02,81.7z
			 M69.52,71.85c1.22-1.22,2.85-1.9,4.58-1.9c1.73,0,3.36,0.67,4.58,1.9c1.22,1.22,1.89,2.84,1.9,4.57c0,1.73-0.68,3.35-1.9,4.57
			c-1.22,1.22-2.85,1.9-4.58,1.9c-1.73,0-3.36-0.67-4.58-1.9c-1.22-1.22-1.89-2.84-1.9-4.57C67.63,74.7,68.3,73.07,69.52,71.85z
			 M74.11,88.65c-0.23,0-0.47-0.02-0.7-0.03C73.64,88.62,73.88,88.65,74.11,88.65C74.11,88.65,74.11,88.65,74.11,88.65z"/>
	</g>
</g>
<g id="Right_data_x2C__Right_decisions" class="st0">
	<g class="st1">
		<g>
			<path class="st2" d="M74.1,115.45c-24.27,0-44.02-19.75-44.02-44.02S49.83,27.41,74.1,27.41s44.02,19.75,44.02,44.02
				S98.38,115.45,74.1,115.45z M74.1,31.9c-21.79,0-39.53,17.73-39.53,39.53s17.73,39.53,39.53,39.53s39.53-17.73,39.53-39.53
				S95.9,31.9,74.1,31.9z"/>
			<path class="st2" d="M74.1,116.45c-24.82,0-45.02-20.19-45.02-45.02c0-24.82,20.19-45.02,45.02-45.02
				c24.82,0,45.02,20.19,45.02,45.02C119.12,96.25,98.93,116.45,74.1,116.45z M74.1,28.41c-23.72,0-43.02,19.3-43.02,43.02
				s19.3,43.02,43.02,43.02c23.72,0,43.02-19.3,43.02-43.02S97.82,28.41,74.1,28.41z M74.1,111.96c-22.35,0-40.53-18.18-40.53-40.53
				c0-22.35,18.18-40.53,40.53-40.53c22.35,0,40.53,18.18,40.53,40.53C114.63,93.78,96.45,111.96,74.1,111.96z M74.1,32.9
				c-21.24,0-38.53,17.28-38.53,38.53s17.28,38.53,38.53,38.53c21.24,0,38.53-17.28,38.53-38.53S95.35,32.9,74.1,32.9z"/>
		</g>
		<polygon class="st2" points="68.89,93.55 48.78,73.43 53.73,68.49 68.89,83.65 97.16,55.38 102.11,60.33 		"/>
	</g>
</g>
<g id="Know_your_customers" class="st0">
	<g class="st1">
		<path class="st5" d="M95.44,60.87c-0.1-0.88-0.25-1.8-0.45-2.73c-0.12-0.55-0.25-1.1-0.41-1.65c-0.38-1.35-0.84-2.66-1.39-3.89
			l-0.11-0.26c-0.47-1.04-1.02-2.07-1.61-3.05c-1.13-1.85-2.5-3.6-4.07-5.19l-0.12-0.13c-0.81-0.81-1.66-1.56-2.54-2.26
			c-3.58-2.81-7.83-4.74-12.3-5.58c-0.7-0.13-1.46-0.24-2.37-0.33l-0.53-0.05c-0.86-0.07-1.62-0.11-2.34-0.11l-0.21,0
			c-0.73,0-1.48,0.04-2.3,0.11l-0.44,0.04c-0.78,0.08-1.58,0.2-2.36,0.34l-0.46,0.09c-0.81,0.17-1.54,0.35-2.24,0.55l-0.12,0.03
			c-0.75,0.22-1.49,0.48-2.33,0.81l-0.48,0.19c-0.78,0.32-1.49,0.65-2.17,1l-0.3,0.16c-0.64,0.34-1.28,0.72-1.92,1.12l-0.35,0.22
			c-0.64,0.42-1.3,0.89-1.95,1.41c-0.13,0.11-0.27,0.21-0.4,0.32c-0.75,0.61-1.34,1.13-1.88,1.65c-1.64,1.59-3.09,3.39-4.3,5.33
			c-2.71,4.33-4.21,9.33-4.32,14.43c-0.04,1.72,0.08,3.45,0.35,5.15c1.08,6.8,4.59,12.98,9.88,17.39c1.75,1.46,3.68,2.71,5.73,3.71
			c0.99,0.48,2.03,0.92,3.11,1.3c0.19,0.07,0.38,0.12,0.57,0.17c0.16,0.04,0.32,0.09,0.49,0.14l0.18,0.05
			c0.68,0.21,1.32,0.4,1.96,0.55c0.27,0.06,0.54,0.1,0.8,0.14l0.75,0.12c0.57,0.1,1.14,0.2,1.71,0.26c0.31,0.03,0.62,0.04,0.93,0.06
			l0.82,0.04c0.56,0.03,1.11,0.06,1.68,0.05l0.45-0.01c1.02-0.03,2.01-0.12,2.96-0.25l0.4-0.06c1.04-0.16,2.04-0.36,2.97-0.61
			l0.31-0.09c1.08-0.3,2.05-0.62,2.98-0.99l0.18-0.08c1.08-0.44,2.06-0.9,2.99-1.42c0.67-0.37,1.36-0.79,2.17-1.33
			c0.17-0.11,0.33-0.23,0.5-0.34c0.8-0.56,1.43-1.04,2-1.53c1.15-0.97,2.25-2.07,3.27-3.26l0.1-0.11c1.06-1.25,1.99-2.58,2.8-3.96
			c2.6-4.43,3.96-9.49,3.93-14.63l0-0.12C95.62,62.85,95.56,61.87,95.44,60.87z M84.36,80.66c-1.77,1.9-3.74,3.45-5.85,4.6
			c-3.47,1.91-7.4,2.91-11.36,2.91c-3.57,0-7.16-0.83-10.36-2.4c-2.52-1.23-4.79-2.9-6.73-4.95l-0.35-0.37l0.09-0.5
			c0.94-5.22,4.19-9.72,8.79-12.3c-1.98-2.15-3.1-4.97-3.1-7.93c0-6.46,5.26-11.72,11.72-11.72c6.46,0,11.72,5.26,11.72,11.72
			c0,2.96-1.11,5.78-3.09,7.93c4.55,2.54,7.78,6.99,8.76,12.14l0.09,0.5L84.36,80.66z"/>
		<path class="st6" d="M101.61,91.74c-2.17,2.98-4.79,5.54-7.81,7.65l13.11,13.11c1.38,1.37,3.4,1.91,5.28,1.41
			c1.88-0.5,3.36-1.98,3.86-3.86c0.5-1.88-0.04-3.9-1.41-5.28L101.61,91.74z"/>
		<path class="st6" d="M104.61,65.75c0.09-2.29-0.02-4.6-0.35-6.88c-0.71-4.94-2.42-9.66-5.07-14.03c-0.83-1.37-1.73-2.68-2.68-3.87
			l-0.22-0.29c-0.16-0.21-0.33-0.42-0.5-0.62c-1.44-1.71-3.01-3.26-4.65-4.62l-0.08-0.07c-0.76-0.63-1.66-1.31-2.61-1.96
			c-0.17-0.12-0.35-0.23-0.53-0.34c-0.14-0.08-0.27-0.17-0.41-0.25l-0.1-0.07c-0.59-0.38-1.18-0.76-1.79-1.11
			c-0.25-0.14-0.5-0.26-0.75-0.39l-0.68-0.35c-0.51-0.27-1.02-0.53-1.55-0.77c-0.28-0.13-0.57-0.24-0.86-0.36l-0.56-0.23
			c-0.55-0.23-1.1-0.45-1.67-0.65c-0.35-0.12-0.7-0.23-1.05-0.33l-0.46-0.14c-0.55-0.17-1.11-0.34-1.67-0.48
			c-0.38-0.1-0.76-0.17-1.14-0.25l-0.31-0.06c-0.6-0.13-1.2-0.25-1.81-0.35c-0.48-0.08-0.96-0.13-1.44-0.19
			c-0.67-0.08-1.27-0.14-1.89-0.19c-0.51-0.03-1.01-0.05-1.52-0.07c-0.16,0-0.32-0.01-0.48-0.02c-0.69-0.04-1.39-0.02-2.08,0.01
			c-9.27,0.38-18.03,4.16-24.66,10.66c-3.29,3.23-5.93,6.99-7.85,11.18c-0.59,1.29-1.12,2.71-1.67,4.48
			c-0.92,2.95-1.47,5.9-1.65,8.77c-0.21,3.44,0.05,6.89,0.78,10.26c1.21,5.58,3.74,10.89,7.29,15.36c0.61,0.77,1.28,1.54,1.99,2.3
			c0.12,0.13,0.25,0.25,0.38,0.38c0.1,0.1,0.21,0.2,0.31,0.31l0.07,0.07c0.46,0.46,0.92,0.92,1.4,1.36
			c0.17,0.16,0.35,0.31,0.54,0.46l0.42,0.35c0.45,0.38,0.9,0.77,1.37,1.12c0.2,0.16,0.42,0.3,0.63,0.45l0.42,0.3
			c0.46,0.33,0.93,0.67,1.41,0.98c0.25,0.16,0.5,0.31,0.75,0.45l0.29,0.17c0.52,0.31,1.03,0.62,1.56,0.9
			c0.26,0.14,0.52,0.27,0.79,0.4l0.3,0.15c0.54,0.27,1.08,0.53,1.63,0.77c0.32,0.14,0.64,0.27,0.96,0.39l0.16,0.06
			c0.57,0.23,1.13,0.44,1.71,0.64c0.37,0.13,0.75,0.25,1.13,0.36c0.02,0,0.04,0.01,0.05,0.02l1.4,0.4c0.28,0.08,0.57,0.17,0.85,0.24
			c1.04,0.26,1.85,0.43,2.62,0.56l0.04,0.01l0.05,0.01c1.02,0.17,2.09,0.29,3.19,0.38c0.22,0.02,0.44,0.02,0.65,0.03l0.98,0.04
			c0.41,0.02,0.82,0.04,1.23,0.04l0.44-0.01c0.21,0,0.42-0.01,0.64-0.02l0.29-0.01c0.72-0.03,1.43-0.07,2.14-0.14l0.14-0.01
			c0.33-0.03,0.66-0.06,0.99-0.1c0.68-0.09,1.36-0.2,2.04-0.32c0.64-0.12,1.27-0.25,1.91-0.4l0.43-0.1
			c0.34-0.08,0.68-0.16,1.02-0.25l0.21,0.73l-0.2-0.74c3.58-0.99,6.96-2.5,10.06-4.47l0.1-0.06c0.14-0.09,0.27-0.19,0.39-0.28
			c0.13-0.1,0.26-0.2,0.4-0.29c4.05-2.76,7.45-6.16,10.11-10.11c3.18-4.74,5.26-10.24,6.01-15.9
			C104.47,68.03,104.57,66.88,104.61,65.75z M93.44,79.57c-0.86,1.48-1.87,2.9-2.97,4.21l-0.11,0.12c-1.12,1.3-2.29,2.48-3.53,3.52
			c-0.62,0.52-1.3,1.04-2.14,1.63c-0.18,0.12-0.36,0.25-0.54,0.37c-0.86,0.58-1.6,1.03-2.32,1.43c-1,0.55-2.04,1.04-3.2,1.51
			l-0.19,0.08c-1,0.4-2.04,0.75-3.19,1.06l0,0l-0.33,0.09c-1,0.26-2.07,0.48-3.18,0.65l-0.42,0.07c-1.01,0.14-2.08,0.23-3.17,0.26
			l-0.48,0.01c-0.08,0-0.15,0-0.23,0c-0.53,0-1.06-0.03-1.59-0.06l-0.79-0.04c-0.35-0.01-0.7-0.03-1.05-0.07
			c-0.63-0.07-1.26-0.18-1.86-0.28l-0.7-0.12c-0.31-0.05-0.63-0.1-0.94-0.17c-0.72-0.16-1.43-0.38-2.11-0.59l-0.18-0.06
			c-0.14-0.04-0.28-0.08-0.42-0.12c-0.24-0.06-0.48-0.13-0.71-0.21c-1.15-0.4-2.27-0.87-3.33-1.39c-2.19-1.08-4.26-2.41-6.13-3.98
			c-5.66-4.72-9.42-11.33-10.57-18.61c-0.29-1.82-0.41-3.67-0.37-5.51c0.13-5.47,1.73-10.81,4.63-15.45c1.3-2.08,2.85-4,4.61-5.7
			c0.58-0.56,1.21-1.12,2-1.76c0.14-0.12,0.28-0.23,0.43-0.35c0.7-0.55,1.4-1.05,2.08-1.5l0.38-0.24c0.67-0.43,1.36-0.83,2.05-1.19
			l0.32-0.17c0.74-0.38,1.5-0.73,2.33-1.07l0.51-0.21c0.89-0.35,1.69-0.63,2.44-0.85l0.12-0.03c0.8-0.23,1.59-0.42,2.46-0.6
			l0.48-0.1c0.85-0.16,1.7-0.28,2.53-0.37l0.47-0.04c0.88-0.08,1.68-0.12,2.47-0.12l0.22,0c0.77,0,1.59,0.04,2.51,0.12l0.57,0.05
			c0.97,0.1,1.78,0.21,2.54,0.36c4.78,0.9,9.33,2.97,13.16,5.97c0.95,0.74,1.86,1.55,2.71,2.4c0.05,0.05,0.09,0.09,0.13,0.14
			c1.69,1.72,3.16,3.58,4.37,5.57c0.64,1.04,1.22,2.14,1.73,3.26l0.12,0.27c0.59,1.33,1.09,2.73,1.49,4.17
			c0.16,0.59,0.31,1.18,0.44,1.77c0.21,0.99,0.38,1.97,0.48,2.92c0.12,1.06,0.19,2.11,0.2,3.13l0,0.14
			C97.67,69.41,96.22,74.83,93.44,79.57z"/>
		<path class="st6" d="M73.73,68.82l-1.43-0.65l1.2-1.02c2.19-1.85,3.45-4.56,3.45-7.42c0-5.36-4.36-9.72-9.72-9.72
			s-9.72,4.36-9.72,9.72c0,2.86,1.26,5.57,3.45,7.42l1.2,1.02l-1.43,0.66c-4.53,2.07-7.81,6.15-8.85,10.99
			c1.7,1.71,3.65,3.11,5.8,4.17c2.94,1.44,6.21,2.2,9.48,2.2c3.62,0,7.21-0.92,10.39-2.67c1.78-0.97,3.46-2.26,4.99-3.84
			C81.47,74.9,78.21,70.87,73.73,68.82z"/>
	</g>
</g>
<g id="Maximize_revenue" class="st0">
	<g class="st1">
		<path class="st8" d="M27.77,34.99c-0.01,0.13-0.01,0.26,0,0.39v68.01c-0.02,0.18-0.02,0.36,0,0.53
			c0.73,6.56,13.38,9.99,25.91,9.99c4.39,0.02,8.77-0.42,13.07-1.31c1.33,6.17,13.63,9.41,25.8,9.41c12.95,0,25.91-3.61,25.91-10.52
			V77.48c0.01-0.13,0.01-0.26,0-0.39c0.01-0.05,0.01-0.1,0-0.15c-0.73-6.56-13.38-9.99-25.91-9.99c-4.35-0.04-8.69,0.36-12.95,1.21
			v1.15c0-0.38-0.09-0.75-0.27-1.09h0h0.28V35.38c0.01-0.13,0.01-0.26,0-0.39c0.01-0.05,0.01-0.1,0-0.15h0
			c-0.73-6.56-13.31-9.99-25.91-9.99c-12.6,0-25.25,3.51-25.91,9.99C27.76,34.89,27.76,34.94,27.77,34.99L27.77,34.99z M92.54,71.81
			c13.89,0,21.05,3.97,21.05,5.67c0,1.7-7.16,5.67-21.05,5.67c-4.96,0.04-9.91-0.61-14.69-1.94v0l-1.05-0.34
			c-3.87-1.33-5.31-2.82-5.31-3.45c0.02-0.11,0.02-0.22,0-0.32l0.28-0.24l0.23-0.26c1.39-1.25,3.05-2.16,4.86-2.64v0h0.21l0.79-0.26
			C82.64,72.38,87.58,71.75,92.54,71.81L92.54,71.81z M71.49,106.58l0.39,0.21l0.4,0.21c0.57,0.28,1.2,0.55,1.88,0.81l1.05,0.39
			c5.61,1.74,11.46,2.58,17.33,2.48c2.79,0.03,5.58-0.12,8.36-0.44v0l1.15-0.16c0.74-0.1,1.47-0.23,2.19-0.36
			c1.07-0.23,2.19-0.47,3.24-0.76l0.89-0.26c1.1-0.3,2.19-0.67,3.24-1.12l0.87-0.39c0.39-0.18,0.76-0.37,1.12-0.57v4.86
			c0,1.7-7.16,5.67-21.05,5.67s-21.05-4.05-21.05-5.67L71.49,106.58z M71.49,100.15c0.02-0.34-0.03-0.68-0.16-1
			c0.07-0.16,0.12-0.32,0.16-0.49c0.02-0.17,0.02-0.34,0-0.5h0v-2.91l0.39,0.21l0.4,0.21c0.57,0.28,1.2,0.55,1.88,0.81l1.05,0.39
			c0.42,0.16,0.86,0.29,1.3,0.41c5.22,1.44,10.62,2.13,16.03,2.07c2.79,0.03,5.58-0.12,8.36-0.44v0l1.15-0.16
			c0.74-0.1,1.47-0.23,2.19-0.36c1.07-0.23,2.19-0.47,3.24-0.76l0.89-0.26c1.1-0.3,2.19-0.67,3.24-1.12l0.87-0.39
			c0.39-0.18,0.76-0.37,1.12-0.57v4.86c0,1.7-7.16,5.67-21.05,5.67c-5.33,0.09-10.64-0.65-15.74-2.22l0,0
			C72.93,102.27,71.49,100.78,71.49,100.15L71.49,100.15z M71.49,88.81c0.02-0.34-0.03-0.69-0.16-1c0.07-0.16,0.12-0.32,0.16-0.49
			c0.02-0.17,0.02-0.34,0-0.5h0v-2.91l0.39,0.21l0.4,0.21c0.57,0.28,1.18,0.55,1.88,0.81l1.05,0.39c0.42,0.16,0.86,0.29,1.3,0.4
			c5.22,1.44,10.62,2.13,16.03,2.07c2.79,0.03,5.58-0.12,8.36-0.44v0l1.15-0.16c0.74-0.1,1.47-0.23,2.19-0.36
			c1.07-0.23,2.19-0.49,3.24-0.76l0.89-0.26c1.1-0.31,2.18-0.68,3.24-1.12l0.87-0.39c0.39-0.18,0.76-0.37,1.12-0.57v4.86
			c0,1.7-7.16,5.67-21.05,5.67c-4.96,0.07-9.9-0.57-14.69-1.88v0l-1.05-0.34C72.93,90.93,71.49,89.44,71.49,88.81L71.49,88.81z
			 M32.62,98.45c4.96,2.72,12.95,4.13,21.05,4.13c4.35,0.02,8.69-0.41,12.95-1.28v-1.15c-0.01,0.39,0.04,0.77,0.13,1.15h0h-0.13
			v6.35c-4.25,0.98-8.6,1.45-12.95,1.41v0c-13.89,0-21.05-4.05-21.05-5.67V98.45z M32.62,87.11c4.96,2.72,12.95,4.13,21.05,4.13
			c4.35,0.02,8.69-0.41,12.95-1.28v-1.15c-0.01,0.39,0.04,0.77,0.13,1.15h0h-0.13v6.35c-4.25,0.98-8.6,1.45-12.95,1.41v0
			c-13.89,0-21.05-4.05-21.05-5.67V87.11z M32.62,75.78c4.96,2.72,12.95,4.13,21.05,4.13c4.35,0.03,8.69-0.4,12.95-1.28v-1.15
			c-0.01,0.39,0.04,0.77,0.13,1.15h0h-0.13v6.35c-4.25,0.98-8.6,1.45-12.95,1.41v0c-13.89,0-21.05-4.05-21.05-5.67V75.78z
			 M32.62,64.44c4.96,2.72,12.95,4.13,21.05,4.13s16.1-1.41,21.05-4.02v4.86c-0.01,0.07-0.01,0.15,0,0.23
			c-2.25,0.7-4.32,1.88-6.07,3.45c-4.87,1.37-9.92,2.03-14.98,1.96v0c-13.89,0-21.05-4.05-21.05-5.67V64.44z M32.62,53.11
			c4.96,2.72,12.95,4.13,21.05,4.13s16.1-1.41,21.05-4.05v4.86c0,1.7-7.16,5.67-21.05,5.67s-21.05-4.05-21.05-5.67V53.11z
			 M32.62,41.77c4.96,2.72,12.95,4.13,21.05,4.13s16.1-1.41,21.05-4.05v4.86c0,1.7-7.16,5.67-21.05,5.67s-21.05-4.05-21.05-5.67
			V41.77z M53.68,41.04c-13.89,0-21.05-3.97-21.05-5.67c0-1.7,7.16-5.67,21.05-5.67s21.05,3.97,21.05,5.67
			C74.73,37.08,67.57,41.04,53.68,41.04L53.68,41.04z"/>
		<polygon class="st8" points="109.73,43.13 97.33,30.73 84.92,43.13 91.06,43.13 91.06,60.76 103.59,60.76 103.59,43.13 		"/>
	</g>
</g>
<g id="Earn_a_share_of_marketing_revenue" class="st0">
	<g class="st1">
		<path class="st10" d="M68.69,108.38c-12.08,0-23.43-4.7-31.96-13.23S23.5,75.27,23.5,63.19c0-12.07,4.7-23.42,13.23-31.97
			c8.52-8.54,19.87-13.27,31.95-13.33c12.09,0,23.44,4.7,31.97,13.23S113.88,51,113.88,63.08c0,5.64-1.1,11.29-3.28,16.8
			c-0.58,1.47-2.24,2.18-3.7,1.6c-1.47-0.58-2.18-2.24-1.6-3.7c1.91-4.84,2.88-9.78,2.88-14.7c0-21.77-17.71-39.48-39.48-39.48
			C46.92,23.7,29.2,41.46,29.2,63.19c0,21.77,17.71,39.48,39.48,39.48c1.22,0,2.38,0,3.51-0.1c1.57-0.14,2.96,1.01,3.1,2.58
			c0.14,1.57-1.01,2.96-2.58,3.1C71.33,108.38,69.98,108.38,68.69,108.38z"/>
		<g>
			<path class="st2" d="M109.01,107.85c-1.85,0-3.51,0.68-4.88,1.85l-10.04-5.17v-0.78v-0.78l10.04-5.17
				c1.37,1.17,3.12,1.85,4.88,1.85c4.1,0,7.51-3.32,7.51-7.51c0-4.1-3.32-7.51-7.51-7.51c-4.1,0-7.51,3.32-7.51,7.51v0.78
				L91.45,98.1c-1.37-1.17-3.12-1.85-4.88-1.85c-4.1,0-7.51,3.32-7.51,7.51c0,4.1,3.32,7.51,7.51,7.51c1.85,0,3.51-0.68,4.88-1.85
				l10.14,5.17v0.78c0,4.1,3.32,7.51,7.51,7.51c4.1,0,7.51-3.32,7.51-7.51C116.51,111.17,113.1,107.85,109.01,107.85L109.01,107.85z
				"/>
			<path class="st10" d="M109.1,122.97c-4.2,0-7.61-3.41-7.61-7.61v-0.72l-10.02-5.11c-1.42,1.2-3.11,1.83-4.89,1.83
				c-4.2,0-7.61-3.41-7.61-7.61c0-4.2,3.41-7.61,7.61-7.61c1.73,0,3.5,0.67,4.89,1.83l9.93-5.11v-0.72c0-4.2,3.41-7.61,7.61-7.61
				c4.2,0,7.61,3.41,7.61,7.61c0,4.2-3.41,7.61-7.61,7.61c-1.73,0-3.5-0.67-4.89-1.83l-9.93,5.11v1.44l9.93,5.11
				c1.42-1.2,3.11-1.83,4.89-1.83c4.15,0,7.61,3.41,7.71,7.61C116.71,119.56,113.3,122.97,109.1,122.97z M91.44,109.29l0.06,0.03
				l10.2,5.2v0.84c0,4.08,3.32,7.41,7.41,7.41s7.41-3.32,7.41-7.41c-0.1-4.08-3.46-7.41-7.5-7.41c-1.75,0-3.41,0.63-4.81,1.83
				l-0.05,0.04l-0.06-0.03l-10.1-5.2v-1.68l10.16-5.23l0.05,0.04c1.36,1.16,3.11,1.83,4.81,1.83c4.08,0,7.41-3.32,7.41-7.41
				s-3.32-7.41-7.41-7.41s-7.41,3.32-7.41,7.41V93l-10.16,5.23l-0.05-0.04c-1.36-1.16-3.11-1.83-4.81-1.83
				c-4.08,0-7.41,3.32-7.41,7.41c0,4.08,3.32,7.41,7.41,7.41c1.75,0,3.41-0.63,4.81-1.83L91.44,109.29z"/>
		</g>
		<g>
			<path class="st2" d="M73.34,85.34v4.86c0,0.95-0.81,1.76-1.76,1.76h-5.27c-0.95,0-1.76-0.81-1.76-1.76v-4.73
				c-5.54-0.68-9.72-5-10.4-10.53c0-0.54,0.13-0.95,0.4-1.35c0.4-0.4,0.81-0.54,1.35-0.54h5.4c0.81,0,1.62,0.54,1.76,1.35
				c0.27,1.35,1.49,2.3,2.84,2.3h4.59c2.43,0,4.59-1.76,4.86-4.05c0.13-1.35-0.27-2.57-1.21-3.51c-0.81-0.95-2.16-1.49-3.38-1.49
				h-3.51c-7.16,0-13.23-5.27-13.91-12.15c-0.68-7.02,4.05-13.37,10.94-14.58v-4.73c0-0.95,0.81-1.76,1.76-1.76h5.27
				c0.95,0,1.76,0.81,1.76,1.76l0,4.59c5.54,0.68,9.72,5,10.4,10.53c0,0.4-0.13,0.95-0.4,1.35c-0.27,0.4-0.81,0.54-1.35,0.54h-5.4
				c-0.81,0-1.49-0.54-1.76-1.35c-0.27-1.35-1.49-2.3-2.97-2.3h-4.73c-2.43,0-4.59,1.76-4.86,4.05c-0.13,1.35,0.27,2.57,1.21,3.51
				c0.81,0.95,2.16,1.49,3.38,1.49h4.05c3.78,0,7.43,1.62,9.99,4.46c2.57,2.84,3.78,6.48,3.38,10.4
				C83.73,79.26,79.28,83.98,73.34,85.34L73.34,85.34z"/>
			<path class="st10" d="M71.58,92.05h-5.27c-1.01,0-1.86-0.85-1.86-1.86v-4.64c-5.54-0.72-9.71-4.97-10.4-10.61
				c0-0.55,0.13-0.98,0.42-1.42c0.42-0.42,0.83-0.59,1.44-0.59h5.4c0.92,0,1.72,0.62,1.86,1.44c0.26,1.28,1.41,2.21,2.74,2.21h4.59
				c2.41,0,4.5-1.74,4.76-3.96c0.13-1.33-0.28-2.52-1.19-3.43c-0.76-0.89-2.05-1.46-3.3-1.46h-3.51c-3.49,0-6.85-1.25-9.45-3.52
				c-2.61-2.28-4.23-5.37-4.56-8.72c-0.33-3.43,0.61-6.81,2.65-9.54c2.03-2.71,4.97-4.53,8.28-5.14v-4.64
				c0-1.01,0.85-1.86,1.86-1.86h5.27c1.01,0,1.86,0.85,1.86,1.86l0,4.5c5.54,0.72,9.71,4.97,10.4,10.61c0,0.48-0.16,1.04-0.42,1.42
				c-0.32,0.48-0.96,0.59-1.44,0.59h-5.4c-0.84,0-1.56-0.56-1.85-1.42c-0.26-1.32-1.44-2.23-2.87-2.23h-4.73
				c-2.41,0-4.5,1.74-4.76,3.96c-0.13,1.33,0.28,2.52,1.19,3.43c0.76,0.89,2.05,1.46,3.3,1.46h4.05c3.82,0,7.49,1.64,10.07,4.49
				c2.6,2.87,3.8,6.59,3.4,10.48c-0.27,5.73-4.55,10.53-10.67,11.95v4.78C73.44,91.2,72.59,92.05,71.58,92.05z M55.92,73.15
				c-0.55,0-0.92,0.15-1.28,0.51c-0.26,0.39-0.38,0.78-0.38,1.28c0.68,5.56,4.82,9.76,10.31,10.43l0.09,0.01v4.82
				c0,0.9,0.76,1.65,1.65,1.65h5.27c0.9,0,1.65-0.76,1.65-1.65v-4.94l0.08-0.02c6.07-1.38,10.32-6.12,10.59-11.79
				c0.4-3.83-0.79-7.5-3.35-10.32c-2.54-2.81-6.16-4.42-9.92-4.42h-4.05c-1.31,0-2.66-0.6-3.45-1.52c-0.95-0.95-1.38-2.19-1.24-3.59
				c0.27-2.32,2.45-4.14,4.96-4.14h4.73c1.53,0,2.79,0.98,3.07,2.38c0.26,0.77,0.91,1.27,1.66,1.27h5.4c0.43,0,0.99-0.09,1.27-0.49
				c0.24-0.35,0.39-0.86,0.39-1.29c-0.68-5.56-4.82-9.76-10.31-10.43l-0.09-0.01l0-4.68c0-0.9-0.76-1.65-1.65-1.65h-5.27
				c-0.9,0-1.65,0.76-1.65,1.65V41l-0.08,0.01c-6.86,1.21-11.53,7.43-10.85,14.47c0.66,6.76,6.73,12.06,13.81,12.06h3.51
				c1.31,0,2.66,0.6,3.45,1.52c0.95,0.95,1.38,2.19,1.24,3.59c-0.27,2.32-2.45,4.14-4.96,4.14h-4.59c-1.43,0-2.66-1-2.94-2.38
				c-0.13-0.8-0.95-1.27-1.66-1.27H55.92z"/>
		</g>
	</g>
</g>
<g id="Save_money_and_increase_efficiency" class="st0">
	<g class="st1">
		<path class="st2" d="M101.65,119.7H42.56c-1.57,0-3.07-0.62-4.18-1.73c-1.11-1.11-1.73-2.61-1.73-4.18v-70.9
			c0-0.52,0.21-1.02,0.58-1.39l15.76-15.76c0.37-0.37,0.87-0.58,1.39-0.58h47.27c1.57,0,3.07,0.62,4.18,1.73
			c1.11,1.11,1.73,2.61,1.73,4.18v11.82h-3.94V31.07c0-0.52-0.21-1.02-0.58-1.39s-0.87-0.58-1.39-0.58H55.19l-14.6,14.6v70.09
			c0,0.52,0.21,1.02,0.58,1.39c0.37,0.37,0.87,0.58,1.39,0.58h59.09c0.52,0,1.02-0.21,1.39-0.58c0.37-0.37,0.58-0.87,0.58-1.39
			V40.86h3.94v72.93c0,1.57-0.62,3.07-1.73,4.18C104.72,119.08,103.21,119.7,101.65,119.7L101.65,119.7z"/>
		<path class="st2" d="M50.44,44.86H38.62v-3.94h11.82c0.52,0,1.02-0.21,1.39-0.58c0.37-0.37,0.58-0.87,0.58-1.39V27.13h3.94
			l0,11.82c0,1.57-0.62,3.07-1.73,4.18C53.51,44.23,52.01,44.86,50.44,44.86L50.44,44.86z"/>
		<path class="st2" d="M74.11,100H68.2c-1.09,0-1.97-0.88-1.97-1.97v-5.42c-0.27-0.11-0.55-0.22-0.82-0.34l-3.84,3.84v0
			c-0.77,0.77-2.02,0.77-2.78,0l-8.36-8.36c-0.77-0.77-0.77-2.02,0-2.78l3.84-3.84c-0.12-0.27-0.23-0.55-0.34-0.82H48.5
			c-1.09,0-1.97-0.88-1.97-1.97V66.52c0-1.09,0.88-1.97,1.97-1.97h5.42c0.11-0.27,0.22-0.55,0.34-0.82l-3.84-3.84
			c-0.77-0.77-0.77-2.02,0-2.78l8.36-8.36c0.77-0.77,2.02-0.77,2.78,0l3.84,3.84c0.27-0.12,0.55-0.23,0.82-0.34v-5.42
			c0-1.09,0.88-1.97,1.97-1.97h5.91v3.94h-3.94v4.84c0,0.86-0.56,1.62-1.38,1.88c-0.99,0.32-1.95,0.72-2.87,1.2
			c-0.76,0.4-1.7,0.26-2.31-0.35l-3.43-3.44l-5.57,5.57l3.43,3.43c0.61,0.61,0.75,1.54,0.35,2.31c-0.48,0.92-0.89,1.88-1.2,2.87
			c-0.26,0.82-1.02,1.38-1.88,1.38h-4.84v7.88l4.84,0c0.86,0,1.62,0.56,1.88,1.38c0.32,0.99,0.72,1.95,1.2,2.87
			c0.4,0.76,0.26,1.7-0.35,2.31l-3.44,3.43l5.57,5.57l3.43-3.43c0.61-0.61,1.54-0.75,2.31-0.35c0.92,0.48,1.88,0.89,2.87,1.2
			c0.82,0.26,1.38,1.02,1.38,1.88v4.84h3.94L74.11,100z"/>
		<path class="st2" d="M72.14,84.25c-4.22,0-8.12-2.25-10.23-5.91c-2.11-3.66-2.11-8.16,0-11.82c2.11-3.66,6.01-5.91,10.23-5.91
			v3.94c-2.81,0-5.42,1.5-6.82,3.94c-1.41,2.44-1.41,5.44,0,7.88c1.41,2.44,4.01,3.94,6.82,3.94V84.25z"/>
		<path class="st2" d="M70.1,96.06h3.94v-4.84c0-0.86,0.56-1.62,1.38-1.88c0.99-0.31,1.95-0.72,2.87-1.2
			c0.76-0.4,1.7-0.26,2.31,0.35l3.43,3.43l5.57-5.57l-3.44-3.43c-0.61-0.61-0.75-1.54-0.35-2.31c0.48-0.92,0.89-1.88,1.2-2.87
			c0.26-0.82,1.02-1.38,1.88-1.38l4.84,0v-7.88h-4.84c-0.86,0-1.62-0.56-1.88-1.38c-0.31-0.99-0.72-1.95-1.2-2.87
			c-0.4-0.76-0.26-1.7,0.35-2.31l3.43-3.43l-5.57-5.57l-3.43,3.44c-0.61,0.61-1.54,0.75-2.31,0.35c-0.92-0.48-1.88-0.89-2.87-1.2
			c-0.82-0.26-1.38-1.02-1.38-1.88v-4.84H70.1v-3.94h5.91c1.09,0,1.97,0.88,1.97,1.97v5.42c0.27,0.11,0.55,0.22,0.82,0.34l3.84-3.84
			c0.77-0.77,2.02-0.77,2.78,0l8.36,8.36c0.77,0.77,0.77,2.02,0,2.78l-3.84,3.84c0.12,0.27,0.23,0.55,0.34,0.82h5.42
			c1.09,0,1.97,0.88,1.97,1.97v11.82c0,1.09-0.88,1.97-1.97,1.97h-5.42c-0.11,0.27-0.22,0.55-0.34,0.82l3.84,3.84
			c0.77,0.77,0.77,2.02,0,2.78l-8.36,8.36c-0.77,0.77-2.02,0.77-2.78,0v0l-3.84-3.84c-0.27,0.12-0.55,0.23-0.82,0.34v5.42
			c0,1.09-0.88,1.97-1.97,1.97H70.1L70.1,96.06z"/>
		<path class="st2" d="M72.07,80.31c2.81,0,5.42-1.5,6.82-3.94c1.41-2.44,1.41-5.44,0-7.88c-1.41-2.44-4.01-3.94-6.82-3.94v-3.94
			c4.22,0,8.12,2.25,10.23,5.91c2.11,3.66,2.11,8.16,0,11.82c-2.11,3.66-6.01,5.91-10.23,5.91V80.31z"/>
	</g>
</g>
<g id="Make_retailers_life_easier" class="st0">
	<g class="st1">
		<path class="st9" d="M21.12,37.16c0.5,0.47,1.22,0.63,1.88,0.44l9.11-2.7l10.6,10.59l2.71-2.75L35.18,32.45l2.42-10.14
			c0.16-0.68-0.06-1.4-0.57-1.88l-8.13-7.53c-0.51-0.47-1.22-0.64-1.89-0.44l-10.7,3.17c-0.67,0.2-1.18,0.74-1.34,1.42l-2.56,10.7
			c-0.16,0.68,0.06,1.4,0.57,1.88L21.12,37.16z M18.5,19.05l8.56-2.54l6.5,6l-2.02,8.5l-8.56,2.54l-6.5-6L18.5,19.05z"/>
		<path class="st11" d="M104.18,120.82l8.14,7.53v0c0.5,0.47,1.22,0.63,1.88,0.44l10.7-3.17c0.67-0.2,1.18-0.73,1.34-1.41l2.56-10.7
			c0.16-0.68-0.06-1.4-0.57-1.88l-8.13-7.54c-0.5-0.47-1.22-0.63-1.88-0.44l-9.11,2.7L98.56,95.83l-2.75,2.75l10.22,10.22
			l-2.42,10.14v0C103.44,119.63,103.66,120.35,104.18,120.82L104.18,120.82z M109.68,110.24l8.56-2.54l6.5,6l-2.03,8.5l-8.56,2.54
			l-6.5-6L109.68,110.24z"/>
		<path class="st9" d="M97.92,46.11l11.21-11.21l9.11,2.7l0,0c0.66,0.2,1.37,0.03,1.88-0.44l8.14-7.53v0
			c0.52-0.48,0.74-1.19,0.57-1.88l-2.56-10.7c-0.16-0.68-0.67-1.21-1.34-1.41l-10.7-3.17c-0.67-0.22-1.41-0.05-1.93,0.43l-8.14,7.53
			v0c-0.52,0.48-0.74,1.19-0.57,1.88l2.42,10.14l-10.9,10.91L97.92,46.11z M114.15,16.52l8.56,2.54l2.03,8.5l-6.5,6l-8.56-2.54
			l-2.03-8.5L114.15,16.52z"/>
		<path class="st9" d="M40.96,53.04l2.67,2.66c-1.3,2.27-2.31,4.69-2.99,7.21h-3.77c-1.56,0.07-3.02,0.75-4.08,1.89
			c-1.06,1.14-1.62,2.66-1.56,4.22v4.15c-0.06,1.56,0.5,3.07,1.56,4.22c1.06,1.14,2.52,1.82,4.08,1.89h3.77
			c0.69,2.52,1.69,4.95,2.99,7.22l-2.68,2.69c-1.05,1.15-1.6,2.67-1.54,4.22c0.06,1.56,0.73,3.02,1.87,4.09l2.92,2.92
			c1.18,1.19,2.78,1.87,4.45,1.89c1.45,0.02,2.86-0.54,3.89-1.57l2.67-2.67c2.27,1.3,4.69,2.3,7.22,2.99v3.77v0
			c0.06,1.56,0.73,3.04,1.87,4.1c1.14,1.06,2.66,1.63,4.22,1.58h4.16c1.56,0.06,3.08-0.5,4.22-1.56c1.14-1.06,1.82-2.53,1.89-4.09
			v-3.77c2.52-0.69,4.95-1.69,7.22-2.99l2.66,2.68c1.03,1.02,2.43,1.59,3.89,1.57c1.67-0.02,3.28-0.7,4.45-1.89l2.92-2.92
			c1.21-1.2,1.89-2.84,1.89-4.54c0.03-1.46-0.54-2.86-1.57-3.89l-2.67-2.67c1.3-2.27,2.31-4.69,2.99-7.22h3.77
			c1.56-0.07,3.02-0.75,4.08-1.89c1.06-1.14,1.62-2.66,1.56-4.22v-4.07c0.06-1.56-0.51-3.07-1.56-4.21
			c-1.06-1.14-2.52-1.82-4.08-1.89h-3.77c-0.69-2.52-1.69-4.95-2.99-7.22l2.67-2.67c1.05-1.15,1.61-2.67,1.55-4.23
			c-0.06-1.56-0.74-3.03-1.88-4.09l-2.92-2.92c-1.18-1.19-2.78-1.87-4.45-1.9c-1.45-0.02-2.86,0.54-3.89,1.57l-2.67,2.67
			c-2.27-1.3-4.69-2.3-7.21-2.99v-3.8c-0.07-1.56-0.74-3.02-1.89-4.08c-1.14-1.06-2.66-1.62-4.21-1.56h-4.16
			c-1.56-0.06-3.07,0.5-4.22,1.56c-1.14,1.06-1.82,2.52-1.89,4.08v3.78c-2.52,0.69-4.95,1.7-7.22,2.99l-2.67-2.69
			c-1.03-1.02-2.44-1.58-3.89-1.56c-1.68,0.02-3.28,0.7-4.45,1.9l-2.92,2.92c-1.14,1.07-1.81,2.54-1.87,4.1
			C39.34,50.38,39.9,51.9,40.96,53.04L40.96,53.04z M44.04,47.48l2.92-2.92h0c0.45-0.46,1.06-0.73,1.7-0.75
			c0.41-0.01,0.8,0.14,1.1,0.42l3.75,3.75c0.65,0.65,1.65,0.75,2.42,0.26c2.7-1.74,5.7-2.99,8.84-3.68c0.91-0.2,1.55-1.02,1.53-1.94
			v-5.26c0.15-1.09,1.13-1.87,2.23-1.75h4.16c1.09-0.11,2.07,0.67,2.22,1.75v5.3c-0.02,0.93,0.62,1.75,1.53,1.94
			c3.13,0.68,6.12,1.92,8.82,3.65c0.77,0.49,1.78,0.38,2.42-0.26l3.75-3.75v0c0.3-0.28,0.69-0.44,1.1-0.43
			c0.65,0.02,1.26,0.29,1.7,0.76l2.92,2.92c0.85,0.69,1,1.94,0.33,2.81l-3.72,3.74c-0.64,0.65-0.75,1.65-0.26,2.42
			c1.73,2.7,2.97,5.69,3.66,8.82c0.2,0.91,1.02,1.55,1.94,1.53h5.26c1.09,0.15,1.86,1.13,1.75,2.22v4.15
			c0.11,1.09-0.67,2.07-1.75,2.22h-5.3c-0.93-0.02-1.75,0.62-1.94,1.53c-0.69,3.13-1.92,6.12-3.66,8.82
			c-0.49,0.77-0.38,1.78,0.26,2.42l3.75,3.75c0.29,0.28,0.46,0.67,0.47,1.07c-0.02,0.65-0.29,1.26-0.76,1.71l-2.92,2.92
			c-0.45,0.46-1.06,0.73-1.7,0.75c-0.41,0.01-0.81-0.14-1.11-0.43l-3.77-3.69c-0.64-0.65-1.65-0.78-2.42-0.29
			c-2.7,1.74-5.68,2.99-8.81,3.69c-0.91,0.2-1.55,1.02-1.53,1.94v5.3c-0.17,1.07-1.15,1.83-2.23,1.71h-4.16
			c-1.09,0.1-2.07-0.68-2.22-1.76v-5.29c0.02-0.93-0.62-1.75-1.53-1.94c-3.14-0.68-6.13-1.92-8.83-3.65
			c-0.77-0.49-1.78-0.38-2.42,0.26l-3.75,3.74c-0.3,0.29-0.7,0.44-1.11,0.43c-0.64-0.02-1.25-0.29-1.7-0.75l-2.92-2.92
			c-0.85-0.7-0.99-1.94-0.33-2.81l3.76-3.75c0.65-0.65,0.76-1.66,0.26-2.43c-1.73-2.7-2.97-5.69-3.66-8.82
			c-0.2-0.91-1.02-1.55-1.94-1.53h-5.28c-1.08-0.16-1.85-1.13-1.75-2.22v-4.13c-0.09-1.09,0.67-2.06,1.75-2.22h5.3
			c0.93,0.02,1.75-0.62,1.94-1.53c0.68-3.13,1.92-6.12,3.66-8.82c0.5-0.77,0.39-1.78-0.26-2.43l-3.79-3.74
			C43.04,49.43,43.19,48.18,44.04,47.48L44.04,47.48z"/>
		<path class="st9" d="M70.6,89.59c0.98,0,1.95-0.07,2.92-0.22c1.07-0.17,1.81-1.17,1.64-2.25s-1.17-1.81-2.25-1.64
			c-4.5,0.69-9.08-0.69-12.44-3.77c-3.36-3.07-5.16-7.51-4.87-12.05c0.28-4.55,2.61-8.72,6.33-11.36c3.72-2.63,8.43-3.44,12.81-2.2
			c4.38,1.24,7.97,4.4,9.76,8.6c1.78,4.19,1.57,8.97-0.57,12.99c-0.48,0.94-0.12,2.1,0.82,2.6c0.94,0.5,2.1,0.15,2.62-0.77
			c2.61-4.92,2.92-10.73,0.86-15.9c-2.06-5.17-6.29-9.17-11.56-10.95c-5.27-1.78-11.06-1.15-15.83,1.72
			c-4.77,2.87-8.03,7.69-8.93,13.18c-0.9,5.49,0.66,11.1,4.26,15.34C59.76,87.15,65.04,89.59,70.6,89.59L70.6,89.59z"/>
		<path class="st9" d="M51.64,70.63c0,0.98,0.07,1.95,0.22,2.92c0.17,1.07,1.17,1.81,2.25,1.64s1.81-1.17,1.64-2.25
			c-0.69-4.5,0.69-9.08,3.77-12.44c3.07-3.36,7.51-5.16,12.05-4.87c4.55,0.28,8.72,2.61,11.36,6.33c2.63,3.72,3.44,8.43,2.2,12.81
			c-1.24,4.38-4.4,7.97-8.6,9.76c-4.19,1.78-8.97,1.57-12.99-0.57c-0.94-0.48-2.1-0.12-2.6,0.82c-0.5,0.94-0.15,2.1,0.77,2.62
			c4.92,2.61,10.73,2.92,15.9,0.86c5.17-2.06,9.17-6.29,10.95-11.56c1.78-5.27,1.15-11.06-1.72-15.83
			c-2.87-4.77-7.69-8.03-13.18-8.93c-5.49-0.9-11.1,0.66-15.34,4.26C54.09,59.78,51.64,65.06,51.64,70.63L51.64,70.63z"/>
		<path class="st9" d="M14.97,124.2c0.16,0.68,0.67,1.21,1.34,1.41l10.7,3.17c0.66,0.2,1.37,0.03,1.88-0.44l8.14-7.53
			c0.52-0.48,0.74-1.19,0.57-1.88l-2.42-10.14l9.89-9.88l-2.76-2.75l-10.19,10.21l-9.11-2.7v0c-0.66-0.2-1.37-0.03-1.88,0.44
			l-8.14,7.53c-0.52,0.48-0.74,1.19-0.57,1.88L14.97,124.2z M22.96,107.66l8.56,2.54l2.03,8.5l-6.5,6l-8.56-2.54l-2.03-8.5
			L22.96,107.66z"/>
	</g>
</g>
<g id="Share_marketing_costs" class="st0">
	<g class="st1">
		<g>
			<path class="st2" d="M82,13.76h-2.02v40.39h40.39v-2.02C120.37,30.97,103.16,13.76,82,13.76z M84.02,33.69l15.34-11.16
				c2.45,1.45,4.71,3.18,6.73,5.17L84.02,43.75L84.02,33.69z M95.29,20.5L84.02,28.7V17.85C88,18.09,91.79,19.03,95.29,20.5z
				 M84.02,48.75l24.78-18.02c1.7,2.12,3.16,4.43,4.32,6.92L95.99,50.11H84.02L84.02,48.75z M102.85,50.11l11.78-8.57
				c0.89,2.73,1.47,5.59,1.64,8.57H102.85z"/>
			<path class="st10" d="M120.87,54.64H79.48V13.26H82c21.43,0,38.87,17.44,38.87,38.87V54.64z M80.48,53.64h39.39v-1.52
				c0-20.88-16.99-37.87-37.87-37.87h-1.52V53.64z M116.8,50.61h-15.49l13.58-9.88l0.21,0.66c0.93,2.88,1.49,5.8,1.66,8.69
				L116.8,50.61z M104.39,49.61h11.35c-0.18-2.41-0.64-4.85-1.37-7.25L104.39,49.61z M96.15,50.61H83.52l0-2.11l25.37-18.45
				l0.3,0.37c1.75,2.19,3.23,4.55,4.38,7.02l0.17,0.37L96.15,50.61z M84.52,49.61h11.3l16.66-12.12c-1.03-2.12-2.29-4.16-3.78-6.07
				L84.52,49L84.52,49.61z M83.52,44.74v-11.3l15.81-11.5l0.28,0.17c2.49,1.47,4.79,3.23,6.83,5.24l0.42,0.41L83.52,44.74z
				 M84.52,33.95v8.82l20.79-15.12c-1.79-1.71-3.78-3.22-5.93-4.51L84.52,33.95z M83.52,29.68V17.32l0.53,0.03
				c3.9,0.23,7.75,1.13,11.43,2.69l0.82,0.34L83.52,29.68z M84.52,18.39v9.33l9.75-7.09C91.11,19.39,87.84,18.64,84.52,18.39z"/>
		</g>
		<g>
			<path class="st2" d="M82.64,97.57c17.26-4.01,29.65-19.51,29.65-37.37v-2.02H75.94l0-36.35h-2.02
				c-21.16,0-38.37,17.21-38.37,38.37c0,5.99,1.34,11.73,3.99,17.06l0.56,1.12l2.53-4.04c-1.74-3.83-2.69-7.9-2.93-12.12l68.49,0
				c-0.85,14.5-10.81,26.93-24.67,30.95L82.64,97.57z M71.91,55.06L52.12,33.75c5.45-4.5,12.29-7.38,19.79-7.82V55.06z M49.14,36.48
				l20.15,21.7h-29.6C40.18,49.79,43.67,42.19,49.14,36.48L49.14,36.48z"/>
			<path class="st10" d="M82,98.24l1.1-5.46l0.29-0.08c13.53-3.93,23.23-15.93,24.27-29.97H40.24c0.29,4.04,1.25,7.88,2.85,11.41
				l0.11,0.24l-3.15,5.02l-0.95-1.92c-2.68-5.4-4.04-11.21-4.04-17.28c0-21.43,17.44-38.87,38.87-38.87h2.52v36.35h36.35v2.52
				c0,17.9-12.63,33.82-30.04,37.86L82,98.24z M83.96,93.57l-0.67,3.33c16.56-4.22,28.5-19.53,28.5-36.7v-1.52H75.44V22.33h-1.52
				c-20.88,0-37.87,16.99-37.87,37.87c0,5.91,1.32,11.57,3.94,16.83l0.16,0.32l1.91-3.05c-1.65-3.73-2.62-7.78-2.86-12.05
				l-0.03-0.53h69.56l-0.03,0.53C107.84,76.84,97.91,89.38,83.96,93.57z M70.44,58.68H39.16l0.03-0.53
				c0.48-8.25,3.89-16.07,9.59-22.02l0.37-0.38L70.44,58.68z M40.23,57.68h27.92L49.14,37.21C43.94,42.81,40.8,50.04,40.23,57.68z
				 M72.41,56.33L51.39,33.7l0.41-0.34c5.76-4.76,12.71-7.5,20.08-7.93l0.53-0.03V56.33z M52.85,33.8l18.56,19.99V26.46
				C64.62,26.97,58.22,29.49,52.85,33.8z"/>
		</g>
		<path class="st2" d="M30.88,99.83c1.08,0.58,2.22,1.04,3.38,1.36l0.37,0.1v23.53c0,1.53,1.03,2.78,2.29,2.78h40.58
			c1.26,0,2.29-1.25,2.29-2.78v-23.53l0.37-0.1c1.16-0.32,2.3-0.78,3.38-1.36c0.99-0.53,1.54-1.85,1.31-3.13l-3.61-20.35
			c-0.23-1.27-1.17-2.2-2.24-2.2l-43.58,0c-1.07,0-2.01,0.92-2.24,2.2L29.56,96.7C29.34,97.98,29.89,99.29,30.88,99.83z
			 M62.91,122.04H51.48v-8.24h11.43V122.04z M77.14,79.72l2.8,15.8l-0.42,0.13c-1.06,0.33-2.15,0.5-3.24,0.5
			c-1.33,0-2.67-0.25-3.97-0.74l-0.29-0.11l-1.38-15.58H77.14z M59.48,79.72h6.56l1.39,15.71l-0.37,0.12
			c-1.15,0.39-2.34,0.58-3.52,0.58c-1.25,0-2.51-0.22-3.72-0.65l-0.33-0.12V79.72z M48.35,79.72h6.56v15.65l-0.33,0.12
			c-1.22,0.43-2.47,0.65-3.73,0.65c-1.18,0-2.36-0.19-3.52-0.58l-0.37-0.12L48.35,79.72z M44.5,100.29l0.2,0.09
			c4.02,1.8,8.27,1.8,12.29,0l0.2-0.09l0.2,0.09c3.99,1.78,8.3,1.78,12.29,0l0.2-0.09l0.2,0.09c1.48,0.66,3.04,1.08,4.65,1.25
			l0.45,0.05v20.37h-7.71v-11.02c0-1.53-1.03-2.78-2.29-2.78H49.19c-1.26,0-2.29,1.25-2.29,2.78v11.02h-7.71v-20.36l0.45-0.05
			c1.61-0.17,3.18-0.59,4.65-1.25L44.5,100.29z M37.25,79.72h6.5L42.37,95.3l-0.29,0.11c-1.3,0.49-2.63,0.74-3.97,0.74
			c-1.09,0-2.18-0.17-3.24-0.5l-0.42-0.13L37.25,79.72z"/>
	</g>
</g>
<g id="Create_integrated_experiences" class="st0">
	<g class="st1">
		<g>
			<path class="st2" d="M71.24,62.82c-7.72,0-13.92,7.09-13.92,15.69c0,8.61,6.2,15.69,13.92,15.69s13.92-7.09,13.92-15.69
				S78.96,62.82,71.24,62.82z M71.24,90.28c-5.57,0-10.13-5.32-10.13-11.9c0-6.58,4.56-11.9,10.13-11.9s10.13,5.32,10.13,11.9
				C81.36,84.97,76.81,90.28,71.24,90.28z"/>
			<path class="st10" d="M71.24,94.71c-7.95,0-14.42-7.26-14.42-16.19c0-8.93,6.47-16.19,14.42-16.19c7.95,0,14.42,7.26,14.42,16.19
				C85.66,87.44,79.19,94.71,71.24,94.71z M71.24,63.32c-7.4,0-13.42,6.82-13.42,15.19c0,8.38,6.02,15.19,13.42,15.19
				c7.4,0,13.42-6.82,13.42-15.19C84.66,70.13,78.64,63.32,71.24,63.32z M71.24,90.78c-5.86,0-10.63-5.56-10.63-12.4
				s4.77-12.4,10.63-12.4c5.86,0,10.62,5.56,10.62,12.4S77.1,90.78,71.24,90.78z M71.24,66.99c-5.31,0-9.63,5.11-9.63,11.4
				s4.32,11.4,9.63,11.4s9.62-5.11,9.62-11.4S76.54,66.99,71.24,66.99z"/>
		</g>
		<g>
			<path class="st2" d="M71.24,91.27c-11.9,0-21.52,7.62-21.52,17.04v10.63c0,0.8,0.89,1.5,1.9,1.5h39.36c1.01,0,1.9-0.7,1.9-1.5
				l0-10.63C92.75,98.88,83.13,91.27,71.24,91.27L71.24,91.27z M88.95,117.43H53.52v-9.12c0-7.72,7.97-14.04,17.72-14.04
				c9.75,0,17.72,6.32,17.72,14.04L88.95,117.43z"/>
			<path class="st10" d="M90.98,120.94H51.62c-1.3,0-2.4-0.92-2.4-2v-10.63c0-9.67,9.88-17.54,22.02-17.54
				c12.08,0,22.01,7.87,22.14,17.54l0,10.63C93.38,120.02,92.28,120.94,90.98,120.94z M71.24,91.77c-11.59,0-21.02,7.42-21.02,16.54
				v10.63c0,0.52,0.68,1,1.4,1h39.36c0.72,0,1.4-0.49,1.4-1l0-10.63C92.26,99.19,82.77,91.77,71.24,91.77z M89.45,117.93H53.02
				v-9.62c0-8.01,8.17-14.54,18.22-14.54c10.05,0,18.22,6.52,18.22,14.54V117.93z M54.02,116.93h34.44v-8.62
				c0-7.46-7.72-13.54-17.22-13.54s-17.22,6.07-17.22,13.54V116.93z"/>
		</g>
		<g>
			<path class="st2" d="M129.96,61.99c-0.25-0.63-0.76-1.14-1.39-1.27l-10.76-2.66l-5.82-9.37c-0.38-0.51-1.01-0.89-1.65-0.89
				c-0.63,0-1.27,0.38-1.65,0.89l-5.82,9.37l-10.76,2.66c-0.63,0.13-1.14,0.63-1.39,1.27s-0.13,1.27,0.38,1.77l7.09,8.35
				l-0.89,11.01c0,0.63,0.25,1.27,0.76,1.65c0.51,0.38,1.27,0.51,1.9,0.25l10.25-4.18l10.25,4.18c0.25,0.13,0.51,0.13,0.76,0.13
				c0.38,0,0.76-0.13,1.14-0.38c0.51-0.38,0.89-1.01,0.76-1.65l-0.89-11.01l7.09-8.35C130.09,63.26,130.21,62.63,129.96,61.99
				L129.96,61.99z M119.08,70.35c-0.38,0.38-0.51,0.89-0.51,1.39l0.76,8.73l-8.1-3.29c-0.51-0.25-1.01-0.25-1.39,0l-8.1,3.29
				l0.63-8.73c0-0.51-0.13-1.01-0.51-1.39l-5.7-6.71l8.48-2.03c0.51-0.13,0.89-0.38,1.14-0.89l4.56-7.47l4.56,7.47
				c0.25,0.38,0.63,0.76,1.14,0.89l8.48,2.03L119.08,70.35z"/>
			<path class="st10" d="M99.25,85.66c-0.53,0-1.06-0.17-1.49-0.49c-0.6-0.45-0.96-1.22-0.96-2.04l0.87-10.84l-6.95-8.2
				c-0.62-0.61-0.79-1.46-0.46-2.28c0.33-0.83,0.99-1.42,1.76-1.57l10.54-2.6l5.71-9.19c0.53-0.71,1.31-1.12,2.07-1.12
				s1.54,0.42,2.05,1.09l5.74,9.23l10.56,2.61c0.75,0.15,1.4,0.74,1.74,1.57l0,0c0.36,0.9,0.08,1.74-0.77,2.33l-6.91,8.14l0.87,10.8
				c0.14,0.7-0.23,1.54-0.96,2.08c-0.48,0.32-0.96,0.48-1.44,0.48c-0.28,0-0.62,0-0.98-0.18l-10.03-4.08l-10.06,4.1
				C99.87,85.61,99.56,85.66,99.25,85.66z M110.34,48.32c-0.44,0-0.94,0.28-1.25,0.69l-5.91,9.5l-10.96,2.71
				c-0.46,0.09-0.84,0.45-1.05,0.97c-0.18,0.46-0.09,0.87,0.27,1.23l7.25,8.54l-0.9,11.22c0,0.48,0.21,0.94,0.56,1.21
				c0.39,0.29,0.97,0.37,1.41,0.19l10.44-4.25l10.44,4.25c0.42,0.21,0.91,0.15,1.43-0.21c0.32-0.24,0.63-0.7,0.55-1.13l-0.91-11.28
				l7.33-8.6c0.64-0.43,0.58-0.85,0.45-1.17v0c-0.21-0.51-0.59-0.87-1.03-0.96l-10.98-2.71l-5.93-9.54
				C111.28,48.59,110.78,48.32,110.34,48.32z M119.9,81.24l-8.86-3.6c-0.38-0.19-0.7-0.2-0.93-0.05l-0.09,0.05l-8.84,3.59l0.69-9.54
				c0-0.42-0.12-0.76-0.36-1l-6.25-7.36l9.27-2.21c0.4-0.1,0.64-0.28,0.81-0.62l5-8.2l4.98,8.17c0.16,0.24,0.44,0.56,0.83,0.66
				l9.25,2.21l-5.98,7.36c-0.24,0.24-0.36,0.59-0.36,1.04L119.9,81.24z M97.08,63.94l5.17,6.09c0.41,0.4,0.62,0.99,0.62,1.72
				l-0.58,7.97l7.31-2.97c0.53-0.33,1.2-0.33,1.85,0l7.31,2.97l-0.69-7.92c0-0.76,0.21-1.34,0.63-1.77l4.93-6.07l-7.71-1.84
				c-0.7-0.18-1.17-0.69-1.44-1.1l-4.14-6.78l-4.13,6.77c-0.28,0.56-0.76,0.94-1.45,1.11L97.08,63.94z"/>
		</g>
		<g>
			<path class="st2" d="M51.11,63.77c0.38-0.51,0.51-1.14,0.38-1.77c-0.13-0.63-0.76-1.14-1.39-1.27l-10.76-2.66l-5.82-9.37
				c-0.38-0.51-1.01-0.89-1.65-0.89c-0.63,0-1.27,0.38-1.65,0.89l-5.82,9.37l-10.76,2.66c-0.63,0.13-1.14,0.63-1.39,1.27
				s-0.13,1.27,0.38,1.77l7.09,8.35l-0.89,11.01c0,0.63,0.25,1.27,0.76,1.65c0.38,0.25,0.76,0.38,1.14,0.38c0.25,0,0.51,0,0.76-0.13
				l10.25-4.18L42,85.03c0.63,0.25,1.27,0.13,1.9-0.25c0.51-0.38,0.89-1.01,0.76-1.65l-0.89-11.01L51.11,63.77z M40.61,70.35
				c-0.38,0.38-0.51,0.89-0.51,1.39l0.63,8.73l-8.1-3.29c-0.25-0.13-0.51-0.13-0.76-0.13c-0.25,0-0.51,0-0.76,0.13l-7.97,3.29
				l0.63-8.73c0-0.51-0.13-1.01-0.51-1.39l-5.7-6.71l8.48-2.03c0.51-0.13,0.89-0.38,1.14-0.89l4.56-7.47l4.56,7.47
				c0.25,0.38,0.63,0.76,1.14,0.89l8.48,2.03L40.61,70.35z"/>
			<path class="st10" d="M42.66,85.66c-0.29,0-0.57-0.06-0.85-0.17l-10.07-4.1l-10.06,4.1c-0.32,0.16-0.67,0.16-0.95,0.16
				c-0.48,0-0.96-0.16-1.42-0.46c-0.62-0.47-0.98-1.23-0.98-2.06l0.87-10.84l-6.95-8.2c-0.61-0.61-0.79-1.45-0.46-2.28
				c0.33-0.83,0.99-1.42,1.76-1.57l10.54-2.6l5.71-9.19c0.53-0.71,1.31-1.12,2.07-1.12c0.76,0,1.54,0.42,2.05,1.09l5.74,9.23
				l10.56,2.61c0.73,0.15,1.59,0.76,1.76,1.65c0.16,0.79-0.01,1.56-0.47,2.17l-0.02,0.03l-7.21,8.19l0.87,10.8
				c0.14,0.7-0.23,1.54-0.96,2.08C43.66,85.5,43.15,85.66,42.66,85.66z M31.74,80.31l10.44,4.25c0.45,0.18,0.91,0.11,1.45-0.22
				c0.3-0.23,0.61-0.69,0.53-1.12l-0.91-11.28l7.47-8.5C51,63.07,51.1,62.59,51,62.09c-0.08-0.39-0.52-0.78-1-0.87l-10.98-2.71
				l-5.93-9.54c-0.28-0.37-0.78-0.65-1.22-0.65s-0.94,0.28-1.25,0.69l-5.9,9.5l-10.96,2.71c-0.46,0.09-0.84,0.45-1.05,0.97
				c-0.18,0.46-0.09,0.87,0.27,1.23l7.25,8.54l-0.9,11.22c0,0.48,0.21,0.94,0.56,1.21c0.49,0.32,1.03,0.37,1.38,0.21L31.74,80.31z
				 M22.59,81.24l0.69-9.54c0-0.41-0.12-0.76-0.36-1l-6.25-7.36l9.27-2.21c0.4-0.1,0.64-0.28,0.81-0.62l5-8.2l4.98,8.17
				c0.16,0.24,0.45,0.56,0.83,0.66l9.24,2.21l-5.84,7.37c-0.24,0.24-0.36,0.59-0.36,1.04l0.69,9.5l-8.84-3.59
				c-0.18-0.09-0.35-0.09-0.57-0.09c-0.22,0-0.39,0-0.54,0.07L22.59,81.24z M31.88,76.56c0.28,0,0.62,0,0.98,0.18l7.32,2.97
				l-0.57-7.93c0-0.75,0.21-1.33,0.63-1.76l4.81-6.07l-7.72-1.84c-0.7-0.18-1.17-0.69-1.44-1.09l-4.14-6.79l-4.13,6.77
				c-0.28,0.56-0.76,0.94-1.44,1.11l-7.69,1.84l5.17,6.09c0.41,0.4,0.62,0.99,0.62,1.72L23.7,79.7l7.23-2.98
				C31.25,76.56,31.6,76.56,31.88,76.56z"/>
		</g>
		<g>
			<path class="st2" d="M59.21,44.72l-0.89,11.01c0,0.63,0.25,1.27,0.76,1.65c0.51,0.38,1.27,0.51,1.9,0.25l10.25-4.18l10.25,4.18
				c0.25,0.13,0.51,0.13,0.76,0.13c0.38,0,0.76-0.13,1.14-0.38c0.51-0.38,0.89-1.01,0.76-1.65l-0.89-11.01l7.09-8.35
				c0.38-0.51,0.51-1.14,0.38-1.77c-0.13-0.63-0.76-1.14-1.39-1.27L78.7,30.67l-5.82-9.37c-0.38-0.63-1.01-0.89-1.64-0.89
				c-0.63,0-1.27,0.38-1.65,0.89l-5.82,9.37l-10.76,2.66c-0.63,0.13-1.14,0.63-1.39,1.27s-0.13,1.27,0.38,1.77L59.21,44.72z
				 M65.54,34.22c0.51-0.13,0.89-0.38,1.14-0.89l4.56-7.47l4.56,7.47c0.25,0.38,0.63,0.76,1.14,0.89l8.48,2.03l-5.7,6.71
				c-0.38,0.38-0.51,0.89-0.51,1.39l0.63,8.73L72,49.66c-0.25-0.13-0.51-0.13-0.76-0.13s-0.51,0-0.76,0.13l-8.1,3.29l0.63-8.73
				c0-0.51-0.13-1.01-0.51-1.39l-5.7-6.71L65.54,34.22z"/>
			<path class="st10" d="M60.28,58.26c-0.54,0-1.08-0.17-1.5-0.48c-0.6-0.45-0.96-1.21-0.96-2.05l0.87-10.84l-7.08-8.19
				c-0.62-0.62-0.8-1.46-0.47-2.28c0.33-0.83,0.99-1.42,1.76-1.57l10.54-2.6l5.71-9.19c0.53-0.71,1.31-1.12,2.07-1.12
				c0.89,0,1.64,0.41,2.07,1.13l5.71,9.19l10.43,2.61c0.73,0.15,1.58,0.76,1.76,1.65c0.16,0.79-0.01,1.56-0.47,2.17l-6.97,8.22
				l0.87,10.8c0.14,0.7-0.23,1.54-0.96,2.09c-0.48,0.32-0.96,0.48-1.44,0.48c-0.28,0-0.62,0-0.98-0.18l-10.03-4.08l-10.06,4.1
				C60.89,58.2,60.59,58.26,60.28,58.26z M71.24,20.92c-0.44,0-0.94,0.28-1.25,0.69l-5.9,9.5l-10.96,2.71
				c-0.46,0.09-0.84,0.45-1.05,0.97c-0.18,0.46-0.09,0.87,0.27,1.23l7.38,8.54l-0.9,11.22c0,0.48,0.21,0.94,0.56,1.21
				c0.39,0.29,0.97,0.37,1.41,0.19l10.44-4.25l10.44,4.25c0.42,0.2,0.91,0.14,1.43-0.21c0.32-0.24,0.63-0.7,0.55-1.13l-0.91-11.27
				l7.22-8.51c0.27-0.36,0.37-0.85,0.27-1.35c-0.08-0.39-0.52-0.78-1-0.87l-10.85-2.71l-5.93-9.54
				C72.13,21.03,71.61,20.92,71.24,20.92z M80.4,53.86l-8.61-3.75c-0.34-0.17-0.8-0.16-1.1-0.01l-8.88,3.61l0.69-9.54
				c0-0.41-0.12-0.76-0.36-1l-6.26-7.37l9.54-2.07c0.4-0.1,0.64-0.28,0.8-0.62l5-8.2l4.98,8.17c0.16,0.24,0.45,0.56,0.83,0.66
				l9.27,2.21l-6.22,7.33c-0.27,0.27-0.39,0.62-0.39,1.07L80.4,53.86z M71.24,49.03c0.28,0,0.62,0,0.98,0.18l7.07,3.08l-0.57-7.91
				c0-0.76,0.22-1.35,0.65-1.78l5.14-6.06l-7.69-1.84c-0.7-0.18-1.17-0.69-1.44-1.09l-4.14-6.79l-4.13,6.77
				c-0.28,0.56-0.76,0.94-1.44,1.11l-7.93,1.73l5.16,6.07c0.41,0.4,0.62,0.99,0.62,1.72l-0.58,7.97l7.35-2.99
				C70.61,49.03,70.96,49.03,71.24,49.03z"/>
		</g>
	</g>
</g>
</svg>
