<?xml version="1.0" encoding="utf-8"?>
<!-- Generator: Adobe Illustrator 26.0.2, SVG Export Plug-In . SVG Version: 6.00 Build 0)  -->
<svg version="1.1" id="Layer_1" xmlns="http://www.w3.org/2000/svg" xmlns:xlink="http://www.w3.org/1999/xlink" x="0px" y="0px"
	 viewBox="0 0 58.1 50.17" style="enable-background:new 0 0 58.1 50.17;" xml:space="preserve">
<style type="text/css">
	.st0{fill:#29ACE3;}
</style>
<g>
	<path class="st0" d="M55.22,23.54c-2.41-5.24-6.14-8.96-10.3-10.15c-2.83-0.8-5.6-0.4-7.95,1.19c-1.51,0.53-3.01,0.93-4.58,1.13
		v-3.25c0-2.99,1.14-3.38,1.81-3.38c2.05,0,5.42-0.8,5.42-6.3V0.78h-3.61v1.99c0,2.12-0.54,2.32-1.81,2.32
		c-3.31,0-5.42,2.92-5.42,7.36l0,3.38c-2.23-0.13-4.52-0.66-6.62-1.53c-2.35-1.66-5.24-2.12-8.07-1.26
		C9.88,14.31,6.09,18.03,3.68,23.4c-4.22,9.29-2.89,19.97,3.07,24.35c1.63,1.19,3.49,1.79,5.48,1.79c0.9,0,1.81-0.13,2.71-0.4
		c4.03-1.19,7.77-4.71,10.18-9.69c2.83-1.26,6.08-1.33,8.97-0.13c2.41,4.91,6.02,8.36,10,9.49c2.89,0.8,5.72,0.33,8.07-1.39
		C57.99,43.11,59.38,32.62,55.22,23.54L55.22,23.54z M50.17,44.1c-1.51,1.13-3.31,1.39-5.18,0.86c-3.07-0.86-6.02-3.85-7.95-7.89
		c-0.24-0.6-0.72-0.99-1.26-1.26l-0.24-0.07c-3.91-1.72-8.43-1.59-12.28,0.27c-0.48,0.27-0.9,0.66-1.14,1.19
		c-1.93,4.18-5,7.23-8.07,8.09c-1.93,0.53-3.73,0.27-5.3-0.86C4.4,41.25,3.56,32.49,6.87,25.19c1.93-4.25,5-7.36,8.13-8.29
		c0.66-0.2,1.26-0.27,1.87-0.27c1.26,0,2.41,0.4,3.43,1.13l0.18,0.13l0.18,0.07c5.6,2.39,11.8,2.52,17.52,0.4l0.36-0.13l0.18-0.13
		c1.51-1.13,3.31-1.39,5.24-0.86c3.13,0.93,6.08,3.91,8.01,8.09C55.22,32.43,54.38,40.98,50.17,44.1L50.17,44.1z"/>
	<path class="st0" d="M43.06,26.27c-1.25,0-2.27-1.13-2.27-2.5c0-1.38,1.02-2.5,2.27-2.5s2.27,1.13,2.27,2.5
		C45.33,25.14,44.31,26.27,43.06,26.27z"/>
	<path class="st0" d="M43.06,35.3c-1.25,0-2.27-1.13-2.27-2.5c0-1.38,1.02-2.5,2.27-2.5s2.27,1.13,2.27,2.5
		C45.33,34.18,44.31,35.3,43.06,35.3z"/>
	<path class="st0" d="M48.01,30.3c-1.25,0-2.27-1.13-2.27-2.5s1.02-2.5,2.27-2.5s2.27,1.13,2.27,2.5S49.26,30.3,48.01,30.3z"/>
	<path class="st0" d="M37.71,30.3c-1.25,0-2.27-1.13-2.27-2.5s1.02-2.5,2.27-2.5s2.27,1.13,2.27,2.5S38.96,30.3,37.71,30.3z"/>
	<path class="st0" d="M19.08,22.17h-3.41v3.75h-3.41v3.75h3.41v3.75h3.41v-3.75h3.41v-3.75h-3.41L19.08,22.17z"/>
</g>
</svg>
