<?xml version="1.0" encoding="utf-8"?>
<!-- Generator: Adobe Illustrator 26.0.2, SVG Export Plug-In . SVG Version: 6.00 Build 0)  -->
<svg version="1.1" id="Layer_1" xmlns="http://www.w3.org/2000/svg" xmlns:xlink="http://www.w3.org/1999/xlink" x="0px" y="0px"
	 viewBox="0 0 37.56 53.87" style="enable-background:new 0 0 37.56 53.87;" xml:space="preserve">
<style type="text/css">
	.st0{fill:#29ACE3;}
</style>
<g>
	<path class="st0" d="M37.56,21.46l0-0.17c0-1.84-0.67-3.68-1.84-5.02L23.33,2.54c-1.17-1.34-2.85-2.01-4.52-2.01
		c-1.17,0-2.34,0.34-3.18,1l-3.18,3.18L2.24,16.27c-1.17,1.34-1.84,3.18-1.84,5.02v24.74c0,4.19,3.35,7.53,7.53,7.53h22.43
		c4.19,0,7.53-3.35,7.53-7.53v-8.54L37.56,21.46z M37.56,34.14v-7.2 M34.38,45.86c0,2.34-1.84,4.19-4.19,4.19l-22.43,0
		c-2.34,0-4.19-1.84-4.19-4.19V21.12c0-1,0.34-2.01,1-2.85C5.26,17.61,17.14,4.22,16.97,4.55c0.5-0.5,1.17-0.84,2.01-0.84
		c0.84,0,1.51,0.34,2.01,0.84l12.39,13.73c0.67,0.84,1,1.84,1,2.85C34.38,21.79,34.38,48.2,34.38,45.86L34.38,45.86z"/>
	<g>
		<path class="st0" d="M19.97,43.4c-0.75,0.75-1.76,0.75-2.26,0l-6.03-6.03c-3.02-3.02-1.26-8.04,3.02-8.3
			c1.26,0,2.77,0.5,3.77,1.51c0.25,0.25,0.25,0.25,0.5,0.5c0-0.25,0.25-0.25,0.5-0.5c2.01-2.01,5.03-2.01,7.04,0
			c1.76,2.01,1.76,5.03-0.25,7.04C25.75,37.61,19.72,43.65,19.97,43.4L19.97,43.4z"/>
	</g>
	<path class="st0" d="M18.98,17.27c2.18,0,4.02-1.84,4.02-4.02s-1.84-4.02-4.02-4.02s-4.02,1.84-4.02,4.02S16.64,17.27,18.98,17.27z
		"/>
</g>
</svg>
