<?xml version="1.0" encoding="utf-8"?>
<!-- Generator: Adobe Illustrator 26.0.2, SVG Export Plug-In . SVG Version: 6.00 Build 0)  -->
<svg version="1.1" id="Layer_1" xmlns="http://www.w3.org/2000/svg" xmlns:xlink="http://www.w3.org/1999/xlink" x="0px" y="0px"
	 viewBox="0 0 43.5 40.85" style="enable-background:new 0 0 43.5 40.85;" xml:space="preserve">
<style type="text/css">
	.st0{fill:#29ACE3;}
</style>
<g>
	<path class="st0" d="M16.2,35.24l0.48,1.6l4.28-0.05l-2.12-7.01l-4.28,0.05L16.2,35.24L16.2,35.24z M5.75,16.19l-1.73,0.02
		l0.08,7.22l1.73-0.02L5.75,16.19z M12.06,35.41l-1.67-5.54c-2.46,0.03-4.47,0.53-4.51-2.46l-3.73,0.04
		c-1.11,0.01-2.01-0.88-2.02-1.98L0,14.25c-0.01-1.1,0.88-2.01,1.98-2.02l0,0l3.72-0.04L5.7,11.67l0,0
		c-0.02-1.1,0.87-2.01,1.98-2.03l5.19-0.06l8-0.11c9.11-0.57,18.89-8.98,18.92-9l0,0c1.28-1.09,3.28-0.21,3.3,1.5l0.4,34.63
		c0.1,1.93-1.99,2.77-3.26,1.73c-0.03-0.02-8.62-7.07-17.15-8.37l2.48,8.21c0.38,1.26-0.53,2.61-2.02,2.58l-8.34,0.09
		c-0.69,0.01-1.67-0.88-1.67-0.88 M11.73,25.86l6.55-0.08l-0.14-12.26l-8.4,0.1l0.14,12.26L11.73,25.86L11.73,25.86z M22.14,13.38
		l0.14,12.47c6.65,0.61,13.32,4.4,17.17,6.97L39.15,6.01C35.36,8.67,28.78,12.61,22.14,13.38L22.14,13.38z"/>
</g>
</svg>
