<?xml version="1.0" encoding="utf-8"?>
<!-- Generator: Adobe Illustrator 26.0.2, SVG Export Plug-In . SVG Version: 6.00 Build 0)  -->
<svg version="1.1" id="Layer_1" xmlns="http://www.w3.org/2000/svg" xmlns:xlink="http://www.w3.org/1999/xlink" x="0px" y="0px"
	 viewBox="0 0 45.28 42.31" style="enable-background:new 0 0 45.28 42.31;" xml:space="preserve">
<style type="text/css">
	.st0{fill:#29ACE3;}
</style>
<path class="st0" d="M30.61,1.26c-2.8,0.28-5.56,1.4-7.92,2.96c-2.37-1.57-5.13-2.68-7.93-2.96c-3.4-0.35-6.95,0.52-9.7,3.27
	C0.01,9.58-0.47,17.47,3.63,23.06c0.11,0.27,0.28,0.51,0.49,0.72l16.94,16.95c0.9,0.9,2.34,0.9,3.24,0l16.95-16.95
	c0.22-0.22,0.38-0.46,0.49-0.72c4.09-5.58,3.61-13.48-1.43-18.53C37.56,1.78,34.02,0.91,30.61,1.26L30.61,1.26z M37.78,20.67
	c-0.06,0.09-0.13,0.17-0.18,0.27L22.69,35.86L7.78,20.94c-0.06-0.1-0.12-0.18-0.19-0.27c-3.04-3.79-2.81-9.38,0.72-12.89
	C9.91,6.16,12,5.59,14.3,5.82c2.34,0.25,4.83,1.34,6.9,3c0.43,0.35,0.96,0.52,1.49,0.5c0.52,0.02,1.05-0.16,1.48-0.51
	c2.07-1.65,4.56-2.74,6.91-3c2.3-0.23,4.39,0.34,5.99,1.96C40.59,11.29,40.83,16.88,37.78,20.67L37.78,20.67z"/>
</svg>
