<?xml version="1.0" encoding="utf-8"?>
<!-- Generator: Adobe Illustrator 26.0.2, SVG Export Plug-In . SVG Version: 6.00 Build 0)  -->
<svg version="1.1" id="Layer_1" xmlns="http://www.w3.org/2000/svg" xmlns:xlink="http://www.w3.org/1999/xlink" x="0px" y="0px"
	 viewBox="0 0 37.03 51.31" style="enable-background:new 0 0 37.03 51.31;" xml:space="preserve">
<style type="text/css">
	.st0{fill:#29ABE2;}
</style>
<g>
	<path class="st0" d="M26.79,13.49H10.33c-0.82,0-1.49-0.67-1.49-1.49V6.58c0-1.63,1.32-2.95,2.95-2.95h2.39
		c0.82,0,1.49,0.67,1.49,1.49c0,0.82-0.67,1.49-1.49,1.49h-2.36v3.89H25.3V6.62h-2.36c-0.82,0-1.49-0.67-1.49-1.49
		s0.67-1.49,1.49-1.49h2.39c1.63,0,2.95,1.32,2.95,2.95V12C28.29,12.82,27.62,13.49,26.79,13.49L26.79,13.49z M25.34,6.62
		L25.34,6.62L25.34,6.62z"/>
	<path class="st0" d="M35.18,50.95H1.94c-0.82,0-1.49-0.67-1.49-1.49V7.78c0-0.82,0.67-1.49,1.49-1.49h8.39
		c0.82,0,1.49,0.67,1.49,1.49s-0.67,1.49-1.49,1.49l-6.89,0v38.69h30.25V9.27h-6.89c-0.82,0-1.49-0.67-1.49-1.49
		s0.67-1.49,1.49-1.49l8.39,0c0.82,0,1.49,0.67,1.49,1.49v41.67C36.67,50.28,36.01,50.95,35.18,50.95L35.18,50.95z"/>
	<path class="st0" d="M22.95,8.73h-8.77c-0.82,0-1.49-0.67-1.49-1.49V1.99c0-0.82,0.67-1.49,1.49-1.49h8.77
		c0.82,0,1.49,0.67,1.49,1.49v5.25C24.44,8.06,23.77,8.73,22.95,8.73z M15.67,5.74h5.78V3.48h-5.78V5.74z"/>
	<path class="st0" d="M28.8,20.77H16.36c-0.82,0-1.49-0.67-1.49-1.49s0.67-1.49,1.49-1.49H28.8c0.82,0,1.49,0.67,1.49,1.49
		C30.29,20.1,29.62,20.77,28.8,20.77L28.8,20.77z"/>
	<path class="st0" d="M9.36,21.37c-0.38,0-0.76-0.15-1.06-0.44L7.27,19.9c-0.58-0.58-0.58-1.53,0-2.11
		c0.58-0.58,1.51-0.58,2.09-0.02l1.35-1.35c0.58-0.58,1.53-0.58,2.11,0s0.58,1.53,0,2.11l-2.4,2.4
		C10.13,21.22,9.74,21.37,9.36,21.37L9.36,21.37z"/>
	<path class="st0" d="M28.8,28.8H16.36c-0.82,0-1.49-0.67-1.49-1.49c0-0.82,0.67-1.49,1.49-1.49H28.8c0.82,0,1.49,0.67,1.49,1.49
		C30.29,28.14,29.62,28.8,28.8,28.8L28.8,28.8z"/>
	<path class="st0" d="M9.36,29.4c-0.4,0-0.78-0.16-1.06-0.44l-1.04-1.04c-0.58-0.58-0.58-1.53,0-2.11c0.58-0.58,1.51-0.58,2.09-0.02
		l1.35-1.35c0.58-0.58,1.53-0.58,2.11,0s0.58,1.53,0,2.11l-2.4,2.4C10.14,29.25,9.76,29.4,9.36,29.4L9.36,29.4z"/>
	<path class="st0" d="M28.8,36.83H16.36c-0.82,0-1.49-0.67-1.49-1.49c0-0.82,0.67-1.49,1.49-1.49H28.8c0.82,0,1.49,0.67,1.49,1.49
		C30.29,36.17,29.62,36.83,28.8,36.83L28.8,36.83z"/>
	<path class="st0" d="M9.36,37.44c-0.4,0-0.78-0.16-1.06-0.44l-1.04-1.04c-0.58-0.58-0.58-1.53,0-2.11
		c0.58-0.58,1.51-0.58,2.09-0.02l1.35-1.35c0.58-0.58,1.53-0.58,2.11,0s0.58,1.53,0,2.11l-2.4,2.4
		C10.14,37.28,9.76,37.44,9.36,37.44L9.36,37.44z"/>
	<path class="st0" d="M28.8,44.87H16.36c-0.82,0-1.49-0.67-1.49-1.49s0.67-1.49,1.49-1.49H28.8c0.82,0,1.49,0.67,1.49,1.49
		C30.29,44.2,29.62,44.87,28.8,44.87L28.8,44.87z"/>
	<path class="st0" d="M9.36,45.47c-0.38,0-0.76-0.15-1.06-0.44L7.27,44c-0.58-0.58-0.58-1.53,0-2.11c0.58-0.58,1.51-0.58,2.09-0.02
		l1.35-1.35c0.58-0.58,1.53-0.58,2.11,0s0.58,1.53,0,2.11l-2.4,2.4C10.13,45.32,9.74,45.47,9.36,45.47L9.36,45.47z"/>
</g>
</svg>
