<?xml version="1.0" encoding="utf-8"?>
<!-- Generator: Adobe Illustrator 26.0.2, SVG Export Plug-In . SVG Version: 6.00 Build 0)  -->
<svg version="1.1" id="Layer_1" xmlns="http://www.w3.org/2000/svg" xmlns:xlink="http://www.w3.org/1999/xlink" x="0px" y="0px"
	 viewBox="0 0 42.81 42.81" style="enable-background:new 0 0 42.81 42.81;" xml:space="preserve">
<style type="text/css">
	.st0{fill:#29ABE2;}
</style>
<path class="st0" d="M21.47,42.44c11.66,0,21.07-9.4,21.07-21.07c0-11.66-9.4-21.07-21.07-21.07S0.4,9.72,0.4,21.38
	C0.4,33.04,9.81,42.44,21.47,42.44L21.47,42.44z M6.17,31.91h5.27c0.88,2.76,2.01,5.02,3.39,6.77C11.31,37.3,8.3,34.92,6.17,31.91z
	 M40.03,20.12H33c-0.13-2.38-0.38-4.64-0.75-6.77h6.02C39.15,15.48,39.78,17.74,40.03,20.12L40.03,20.12z M20.21,31.91v7.9
	c-2.51-0.75-4.76-3.76-6.14-7.9H20.21z M13.32,29.4c-0.5-2.13-0.75-4.39-0.88-6.77h7.77v6.77H13.32z M22.72,39.69v-7.9h6.14
	C27.49,36.05,25.23,38.93,22.72,39.69z M22.72,29.4v-6.77h7.77c-0.13,2.38-0.38,4.64-0.88,6.77H22.72z M33.01,22.63h7.02
	c-0.13,2.38-0.75,4.64-1.76,6.77h-6.02C32.63,27.27,32.88,25.01,33.01,22.63L33.01,22.63z M30.5,20.12h-7.77v-6.77h6.9
	C30.12,15.48,30.37,17.74,30.5,20.12L30.5,20.12z M22.72,10.84v-7.9c2.51,0.75,4.76,3.76,6.14,7.9H22.72z M20.21,2.95v7.9h-6.14
	C15.45,6.71,17.71,3.7,20.21,2.95z M20.21,13.35v6.77h-7.77c0.13-2.38,0.38-4.64,0.88-6.77L20.21,13.35z M9.93,20.12H2.91
	c0.13-2.38,0.75-4.64,1.76-6.77h6.02C10.31,15.48,10.06,17.74,9.93,20.12L9.93,20.12z M9.93,22.63c0.13,2.38,0.38,4.64,0.75,6.77
	H4.67c-1-2.01-1.63-4.39-1.76-6.77H9.93z M28.11,38.68c1.38-1.76,2.51-4.14,3.39-6.77h5.27C34.64,34.92,31.63,37.3,28.11,38.68z
	 M36.77,10.85H31.5c-0.88-2.76-2.01-5.02-3.39-6.77C31.63,5.33,34.64,7.84,36.77,10.85z M14.82,4.08c-1.38,1.76-2.51,4.14-3.39,6.77
	H6.17C8.3,7.84,11.31,5.45,14.82,4.08z"/>
</svg>
