<?xml version="1.0" encoding="utf-8"?>
<!-- Generator: Adobe Illustrator 26.0.2, SVG Export Plug-In . SVG Version: 6.00 Build 0)  -->
<svg version="1.1" id="Layer_1" xmlns="http://www.w3.org/2000/svg" xmlns:xlink="http://www.w3.org/1999/xlink" x="0px" y="0px"
	 viewBox="0 0 35.83 46.27" style="enable-background:new 0 0 35.83 46.27;" xml:space="preserve">
<style type="text/css">
	.st0{fill:#29ABE2;}
</style>
<g>
	<path class="st0" d="M14.18,7.2c0-0.68,0.81-1.23,1.8-1.23h10.79c0.99,0,1.8,0.55,1.8,1.23c0,0.68-0.81,1.23-1.8,1.23H15.97
		C14.98,8.43,14.18,7.88,14.18,7.2z"/>
	<path class="st0" d="M15.97,13.37c-0.99,0-1.8-0.55-1.8-1.23c0-0.68,0.81-1.23,1.8-1.23h10.79c0.99,0,1.8,0.55,1.8,1.23
		s-0.81,1.23-1.8,1.23L15.97,13.37L15.97,13.37z"/>
	<path class="st0" d="M0.65,13.12c-0.21,0.26-0.3,0.6-0.25,0.93l0,27.04c0,2.72,1.91,4.94,4.63,4.94h25.31
		c2.72,0,5.25-2.22,5.25-4.94V5.28c0-2.72-2.53-4.94-5.25-4.94H14.6c-0.28,0-0.54,0.11-0.74,0.31L0.65,13.12L0.65,13.12z
		 M13.99,12.07c0,0.68-0.86,1.23-1.54,1.23H3.92l10.06-9.14L13.99,12.07z M5.04,43.55c-1.36,0-2.16-1.11-2.16-2.47V15.77h9.57
		c2.04,0,4.01-1.67,4.01-3.7V2.81h13.89c1.36,0,2.78,1.11,2.78,2.47v35.81c0,1.36-1.42,2.47-2.78,2.47L5.04,43.55L5.04,43.55z"/>
	<path class="st0" d="M18.94,40.34h-2.76c-0.54,0-0.99-0.55-0.99-1.23v-6.67c0-0.68,0.44-1.23,0.99-1.23h2.76
		c0.26,0,0.51,0.13,0.7,0.36c0.18,0.23,0.29,0.55,0.29,0.87v6.67c0,0.33-0.1,0.64-0.29,0.87C19.46,40.21,19.2,40.34,18.94,40.34
		L18.94,40.34z"/>
	<path class="st0" d="M27.57,40.34h-2.78c-0.55,0-0.99-0.55-0.99-1.23v-9.63c0-0.68,0.44-1.23,0.99-1.23h2.78
		c0.26,0,0.52,0.13,0.7,0.36c0.19,0.23,0.29,0.55,0.29,0.87v9.63c0,0.33-0.1,0.64-0.29,0.87C28.08,40.21,27.83,40.34,27.57,40.34
		L27.57,40.34z"/>
	<path class="st0" d="M10.42,40.34h-2.7c-0.53,0-0.96-0.55-0.96-1.23v-3.7c0-0.68,0.43-1.23,0.96-1.23h2.7
		c0.26,0,0.5,0.13,0.68,0.36c0.18,0.23,0.28,0.55,0.28,0.87v3.7c0,0.33-0.1,0.64-0.28,0.87C10.92,40.21,10.67,40.34,10.42,40.34
		L10.42,40.34z"/>
	<path class="st0" d="M7.75,28.98C7.39,29,7.05,28.84,6.83,28.55c-0.45-0.5-0.43-1.27,0.06-1.73l5.68-5.43
		c0.46-0.45,1.18-0.48,1.67-0.06l4.51,4.01l7.9-6.17h0c0.53-0.42,1.3-0.34,1.73,0.19c0.4,0.56,0.32,1.33-0.18,1.79l-8.7,6.73
		c-0.47,0.37-1.13,0.37-1.6,0l-4.45-3.95l-4.82,4.69v0C8.39,28.85,8.08,28.98,7.75,28.98L7.75,28.98z"/>
	<path class="st0" d="M27.26,26.39h-0.12h0c-0.33-0.03-0.63-0.19-0.84-0.45c-0.21-0.26-0.31-0.58-0.27-0.91l0.31-3.89l-4.32-0.31v0
		c-0.68-0.09-1.18-0.67-1.17-1.36c0.03-0.33,0.19-0.63,0.45-0.84c0.25-0.21,0.58-0.31,0.91-0.27l5.56,0.37v0
		c0.31,0.04,0.6,0.2,0.8,0.43c0.25,0.24,0.36,0.59,0.31,0.93l-0.37,5.12v0C28.43,25.86,27.91,26.36,27.26,26.39L27.26,26.39z"/>
</g>
</svg>
