<?xml version="1.0" encoding="utf-8"?>
<!-- Generator: Adobe Illustrator 26.0.2, SVG Export Plug-In . SVG Version: 6.00 Build 0)  -->
<svg version="1.1" id="Layer_1" xmlns="http://www.w3.org/2000/svg" xmlns:xlink="http://www.w3.org/1999/xlink" x="0px" y="0px"
	 viewBox="0 0 43.01 43.54" style="enable-background:new 0 0 43.01 43.54;" xml:space="preserve">
<style type="text/css">
	.st0{fill:#29ACE3;}
</style>
<g>
	<g>
		<path class="st0" d="M21.52,14.57c-4.04,0-7.31,3.27-7.31,7.31v0.91c0,0.51-0.4,0.92-0.92,0.92h-1.81c-0.51,0-0.92-0.41-0.92-0.91
			v-0.91c0-6.05,4.91-10.96,10.96-10.96h2.9L22.71,9.2c-0.36-0.36-0.36-0.93,0.01-1.3l1.28-1.28c0.36-0.36,0.95-0.36,1.3,0
			l4.83,4.83c0.71,0.71,0.71,1.87,0,2.58l-4.83,4.83c-0.36,0.36-0.94,0.36-1.3,0l-1.28-1.28c-0.36-0.36-0.36-0.94-0.01-1.3
			l1.72-1.72L21.52,14.57z"/>
		<path class="st0" d="M21.52,29.19c4.04,0,7.31-3.27,7.31-7.31v-0.9c0-0.51,0.41-0.92,0.92-0.92h1.81c0.51,0,0.92,0.4,0.92,0.91
			v0.91c0,6.05-4.91,10.96-10.96,10.96h-2.9l1.72,1.72c0.36,0.36,0.36,0.93-0.01,1.3l-1.28,1.28c-0.36,0.36-0.95,0.36-1.3,0
			l-4.83-4.83c-0.71-0.71-0.71-1.87,0-2.58l4.83-4.83c0.36-0.36,0.94-0.36,1.3,0l1.28,1.28c0.36,0.36,0.36,0.94,0.01,1.3l-1.72,1.72
			L21.52,29.19z"/>
	</g>
	<path class="st0" d="M21.52,42.91C9.93,42.91,0.5,33.48,0.5,21.88c0-11.59,9.43-21.03,21.03-21.03c11.59,0,21.03,9.43,21.03,21.03
		C42.55,33.48,33.12,42.91,21.52,42.91z M21.52,3.85c-9.94,0-18.03,8.09-18.03,18.03c0,9.94,8.09,18.03,18.03,18.03
		c9.94,0,18.03-8.09,18.03-18.03C39.55,11.94,31.46,3.85,21.52,3.85z"/>
</g>
</svg>
