<?xml version="1.0" encoding="utf-8"?>
<!-- Generator: Adobe Illustrator 26.0.2, SVG Export Plug-In . SVG Version: 6.00 Build 0)  -->
<svg version="1.1" id="Layer_1" xmlns="http://www.w3.org/2000/svg" xmlns:xlink="http://www.w3.org/1999/xlink" x="0px" y="0px"
	 viewBox="0 0 40.36 41.1" style="enable-background:new 0 0 40.36 41.1;" xml:space="preserve">
<style type="text/css">
	.st0{fill:#29ABE2;}
</style>
<g>
	<g>
		<path class="st0" d="M39.35,36.14L39.35,36.14l-5.72-5.72c-1,1.49-2.3,2.76-3.81,3.73l5.76,5.76v0c0.67,0.67,1.65,0.93,2.57,0.69
			c0.92-0.25,1.64-0.96,1.88-1.88C40.28,37.8,40.02,36.81,39.35,36.14z"/>
	</g>
	<path class="st0" d="M27.89,15.91l-2-0.27c-0.27-0.59-0.32-0.76-0.59-1.35l1.19-1.62c0.32-0.43,0.27-1.03-0.11-1.41l-1.62-1.62
		c-0.38-0.38-0.97-0.43-1.41-0.11l-1.62,1.19c-0.59-0.32-0.76-0.38-1.35-0.65l-0.27-2c-0.05-0.54-0.54-0.92-1.08-0.92h-2.33
		c-0.54,0-0.97,0.38-1.08,0.92l-0.27,2c-0.65,0.27-0.81,0.32-1.41,0.59l-1.62-1.19c-0.43-0.32-1.03-0.27-1.41,0.11l-1.62,1.62
		c-0.38,0.38-0.43,0.97-0.11,1.41l1.19,1.62c-0.27,0.59-0.32,0.76-0.59,1.35l-2,0.27c-0.54,0.05-0.92,0.54-0.92,1.08v2.33
		c0,0.54,0.38,0.97,0.92,1.08l2,0.27c0.27,0.59,0.32,0.76,0.59,1.35l-1.19,1.62C8.85,24.02,8.9,24.62,9.28,25l1.62,1.62
		c0.38,0.38,0.97,0.43,1.41,0.11l1.62-1.19c0.59,0.27,0.76,0.32,1.35,0.59l0.27,2c0.05,0.54,0.54,0.92,1.08,0.92h2.33
		c0.54,0,0.97-0.38,1.08-0.92l0.27-2c0.59-0.27,0.76-0.32,1.35-0.59l1.62,1.19c0.43,0.32,1.03,0.27,1.41-0.11L26.32,25
		c0.38-0.38,0.43-0.97,0.11-1.41l-1.19-1.62c0.27-0.59,0.32-0.76,0.54-1.35l2-0.27c0.54-0.05,0.92-0.54,0.92-1.08v-2.33
		C28.81,16.45,28.43,15.97,27.89,15.91L27.89,15.91z M17.83,22.19c-2.22,0-4-1.78-4-4s1.78-4,4-4c2.22,0,4,1.78,4,4
		S20.04,22.19,17.83,22.19z"/>
	<path class="st0" d="M17.83,35.89c-9.77,0-17.71-7.94-17.71-17.71S8.06,0.47,17.83,0.47c9.77,0,17.71,7.94,17.71,17.71
		S27.59,35.89,17.83,35.89z M17.83,3.47c-8.11,0-14.71,6.6-14.71,14.71s6.6,14.71,14.71,14.71c8.11,0,14.71-6.6,14.71-14.71
		S25.94,3.47,17.83,3.47z"/>
</g>
</svg>
