<?xml version="1.0" encoding="utf-8"?>
<!-- Generator: Adobe Illustrator 27.8.1, SVG Export Plug-In . SVG Version: 6.00 Build 0)  -->
<svg version="1.1" id="Calque_1" xmlns="http://www.w3.org/2000/svg" xmlns:xlink="http://www.w3.org/1999/xlink" x="0px" y="0px"
	 viewBox="0 0 162.3 44.8" style="enable-background:new 0 0 162.3 44.8;" xml:space="preserve">
<style type="text/css">
	.st0{fill:#16132B;}
	.st1{fill:#FFFFFF;}
	.st2{fill:url(#SVGID_1_);}
	.st3{fill:url(#SVGID_00000003791133941875143240000005889906190549021352_);}
	.st4{fill:url(#SVGID_00000111165561864148011280000000121537511415719097_);}
	.st5{fill:url(#SVGID_00000079460330682672517420000014293244323850756787_);}
	.st6{opacity:0;}
	.st7{fill:url(#SVGID_00000093875751323658625820000016667187340334380437_);}
	.st8{fill:url(#SVGID_00000181049185408706373080000004169562743809060796_);}
	.st9{fill:url(#SVGID_00000155838260106585564830000016911256527995184535_);}
	.st10{fill:url(#SVGID_00000181049108985315105860000017646919058101955498_);}
	.st11{fill:url(#SVGID_00000094580513929319408230000006458325799670420389_);}
	.st12{fill:url(#SVGID_00000103228853830887335370000013654195449446811063_);}
	.st13{fill:url(#SVGID_00000078733143103817774790000010822718483236351888_);}
	.st14{fill:url(#SVGID_00000047777018931469008150000017181444074149377210_);}
	.st15{fill:url(#SVGID_00000069366212343209765140000014200351877282266017_);}
	.st16{fill:url(#SVGID_00000063623470136183111230000012897071975678271115_);}
	.st17{fill:url(#SVGID_00000137126888633917889710000015649979824234406832_);}
	.st18{fill:url(#SVGID_00000057145883354284720800000005169338756447249830_);}
	.st19{fill:url(#SVGID_00000042701568793514788480000008721988896407993220_);}
	.st20{fill:url(#SVGID_00000092454710845536957670000003001075185959851940_);}
	.st21{fill:url(#SVGID_00000038404330761245325480000001641726937814535613_);}
	.st22{fill:url(#SVGID_00000025425788972452889530000000386511511944043951_);}
	.st23{fill:url(#SVGID_00000137115726859213532910000005097933769561896117_);}
	.st24{fill:url(#SVGID_00000119804628593499441950000016707129703238556348_);}
	.st25{fill:url(#SVGID_00000049184271098914854500000005211862123158467716_);}
	.st26{fill:url(#SVGID_00000085251893371294037570000013510138616347764640_);}
	.st27{fill:url(#SVGID_00000077321216163719486100000010141773002372224172_);}
	.st28{fill:url(#SVGID_00000144324645575493693760000017062136503918766515_);}
	.st29{fill:url(#SVGID_00000150086802097724984410000010408227048027940276_);}
	.st30{fill:url(#SVGID_00000165198054686497074740000012464061269232439444_);}
	.st31{fill:url(#SVGID_00000040544920610263325420000005341878024060659131_);}
	.st32{fill:url(#SVGID_00000132789025250865868730000001885751331561679543_);}
	.st33{fill:url(#SVGID_00000072270355942458878850000016071131827597351818_);}
	.st34{fill:url(#SVGID_00000147927834049330548090000008960423047734339240_);}
	.st35{fill:url(#SVGID_00000182519073095416917730000010380290707302669725_);}
	.st36{fill:url(#SVGID_00000123440352484463749500000017469472310759654049_);}
	.st37{fill:url(#SVGID_00000161621677158382370740000018085684237867021238_);}
	.st38{fill:url(#SVGID_00000031205434747439512030000013864893008183719345_);}
	.st39{fill:url(#SVGID_00000036252059438077817680000005179725844039057838_);}
</style>
<g>
	<g>
		<path class="st0" d="M149.4,30.1c0,1.8-1.4,3.2-3.2,3.2c-1.8,0-3.2-1.4-3.2-3.2v-1.2h6.4V30.1z"/>
		<g>
			<circle class="st1" cx="146.2" cy="28.7" r="3.2"/>
			<g>
				<g>
					<path class="st1" d="M160.7,32.5c0-0.3-0.1-0.5-0.3-0.7l-11.9-21.4c-0.3-0.5-0.6-0.9-1.1-1.2c-0.4-0.3-0.9-0.4-1.4-0.4
						c-0.5,0-0.9,0.1-1.4,0.4c-0.4,0.3-0.8,0.7-1.1,1.2l-11.3,20.3h-8.8c-1.4,0-5.6,0-5.6-2.7V11.1c0-1.3-0.8-2.1-2.2-2.1
						c-1.4,0-2.1,0.8-2.1,2.1v16.9c0,4.6,3.4,6.9,10.1,6.9h10h0l0,0c0,0,0.1,0,0.1,0c0.2,0,0.4,0,0.6-0.1c0,0,0.1,0,0.1,0l0,0
						c0.1,0,0.1-0.1,0.2-0.1c0.3-0.2,0.6-0.4,0.8-0.8l3.4-6.1l1.6-3l5.7-10.7l5.6,10.6l1.7,3l3.6,6.4l0,0l0,0
						c0.2,0.3,0.5,0.6,0.8,0.8c0.3,0.2,0.6,0.3,0.9,0.3c0.6,0,1.1-0.2,1.5-0.6c0.4-0.4,0.6-0.9,0.6-1.6
						C160.8,32.9,160.8,32.7,160.7,32.5z"/>
					<path class="st1" d="M70.2,9H55.9c-1,0-1.6,0.7-1.6,1.8v22c0,1.1,0.6,1.8,1.6,1.8H72c4.4,0,7.9-3.6,7.9-8.2v-8.3
						C79.9,13.6,76.9,9,70.2,9z M58.6,13.1h11.6c3.1,0,5.5,2.5,5.5,5.6v5.9c0,3.3-2.5,5.9-5.6,5.9H58.6V13.1z"/>
					<path class="st1" d="M99.7,19.4h-6.2c-3.8,0-3.8-1.5-3.8-2v-1.8c0-1.7,0.9-2.5,2.9-2.5H98c0.5,0,1.7-0.2,1.7-2
						C99.7,9.2,98.5,9,98,9H93c-3.5,0-7.6,1.1-7.6,6.4v2.4c0,3.8,2.9,5.8,8.6,5.8h6.1c3.9,0,4.4,1.5,4.4,2.6v2.1
						c0,1-0.4,2.3-3.5,2.3H87c-0.5,0-1.7,0.2-1.7,2c0,1.9,1.2,2.1,1.7,2.1h13.5c3.7,0,8.2-1.1,8.2-6.3v-2.6
						C108.8,21.6,105.7,19.4,99.7,19.4z"/>
				</g>
			</g>
		</g>
		<g>
			<g>
				<path class="st0" d="M160.7,34.3c0-0.3-0.1-0.5-0.3-0.7l-11.9-21.4c-0.3-0.5-0.6-0.9-1.1-1.2c-0.4-0.3-0.9-0.4-1.4-0.4
					c-0.5,0-0.9,0.1-1.4,0.4c-0.4,0.3-0.8,0.7-1.1,1.2l-11.3,20.3h-8.8c-1.4,0-5.6,0-5.6-2.7V12.9c0-1.3-0.8-2.1-2.2-2.1
					c-1.4,0-2.1,0.8-2.1,2.1v16.9c0,4.6,3.4,6.9,10.1,6.9h10h0l0,0c0,0,0.1,0,0.1,0c0.2,0,0.4,0,0.6-0.1c0,0,0.1,0,0.1,0l0,0
					c0.1,0,0.1-0.1,0.2-0.1c0.3-0.2,0.6-0.4,0.8-0.8l3.4-6.1l1.6-3l5.7-10.7l5.6,10.6l1.7,3l3.6,6.4l0,0l0,0
					c0.2,0.3,0.5,0.6,0.8,0.8c0.3,0.2,0.6,0.3,0.9,0.3c0.6,0,1.1-0.2,1.5-0.6c0.4-0.4,0.6-0.9,0.6-1.6
					C160.8,34.6,160.8,34.5,160.7,34.3z"/>
				<path class="st0" d="M70.2,10.8H55.9c-1,0-1.6,0.7-1.6,1.8v22c0,1.1,0.6,1.8,1.6,1.8H72c4.4,0,7.9-3.6,7.9-8.2v-8.3
					C79.9,15.3,76.9,10.8,70.2,10.8z M58.6,14.9h11.6c3.1,0,5.5,2.5,5.5,5.6v5.9c0,3.3-2.5,5.9-5.6,5.9H58.6V14.9z"/>
				<path class="st0" d="M99.7,21.2h-6.2c-3.8,0-3.8-1.5-3.8-2v-1.8c0-1.7,0.9-2.5,2.9-2.5H98c0.5,0,1.7-0.2,1.7-2
					c0-1.9-1.2-2.1-1.7-2.1H93c-3.5,0-7.6,1.1-7.6,6.4v2.4c0,3.8,2.9,5.8,8.6,5.8h6.1c3.9,0,4.4,1.5,4.4,2.6V30c0,1-0.4,2.3-3.5,2.3
					H87c-0.5,0-1.7,0.2-1.7,2c0,1.9,1.2,2.1,1.7,2.1h13.5c3.7,0,8.2-1.1,8.2-6.3v-2.6C108.8,23.3,105.7,21.2,99.7,21.2z"/>
			</g>
		</g>
		<g>
			<g>
				<linearGradient id="SVGID_1_" gradientUnits="userSpaceOnUse" x1="137.1589" y1="9.2889" x2="137.1589" y2="35.1368">
					<stop  offset="0" style="stop-color:#FFFFFF"/>
					<stop  offset="1" style="stop-color:#DADBE8"/>
				</linearGradient>
				<path class="st2" d="M160.7,32.8c0-0.3-0.1-0.5-0.3-0.7l-11.9-21.4c-0.3-0.5-0.6-0.9-1.1-1.2c-0.4-0.3-0.9-0.4-1.4-0.4
					c-0.5,0-0.9,0.1-1.4,0.4c-0.4,0.3-0.8,0.7-1.1,1.2l-11.3,20.3h-8.8c-1.4,0-5.6,0-5.6-2.7V11.5c0-1.3-0.8-2.1-2.2-2.1
					c-1.4,0-2.1,0.8-2.1,2.1v16.9c0,4.6,3.4,6.9,10.1,6.9h10h0l0,0c0,0,0.1,0,0.1,0c0.2,0,0.4,0,0.6-0.1c0,0,0.1,0,0.1,0l0,0
					c0.1,0,0.1-0.1,0.2-0.1c0.3-0.2,0.6-0.4,0.8-0.8l3.4-6.1l1.6-3l5.7-10.7l5.6,10.6l1.7,3l3.6,6.4l0,0l0,0
					c0.2,0.3,0.5,0.6,0.8,0.8c0.3,0.2,0.6,0.3,0.9,0.3c0.6,0,1.1-0.2,1.5-0.6c0.4-0.4,0.6-0.9,0.6-1.6
					C160.8,33.2,160.8,33.1,160.7,32.8z"/>
				
					<linearGradient id="SVGID_00000121265574077354025720000000061186007689314705_" gradientUnits="userSpaceOnUse" x1="67.0624" y1="9.2862" x2="67.0624" y2="34.7531">
					<stop  offset="0" style="stop-color:#FFFFFF"/>
					<stop  offset="1" style="stop-color:#DADBE8"/>
				</linearGradient>
				<path style="fill:url(#SVGID_00000121265574077354025720000000061186007689314705_);" d="M70.2,9.3H55.9c-1,0-1.6,0.7-1.6,1.8
					v22c0,1.1,0.6,1.8,1.6,1.8H72c4.4,0,7.9-3.6,7.9-8.2v-8.3C79.9,13.9,76.9,9.3,70.2,9.3z M58.6,13.5h11.6c3.1,0,5.5,2.5,5.5,5.6
					V25c0,3.3-2.5,5.9-5.6,5.9H58.6V13.5z"/>
				
					<linearGradient id="SVGID_00000046302453276107175450000011482211462645085855_" gradientUnits="userSpaceOnUse" x1="97.0123" y1="9.2862" x2="97.0123" y2="34.7531">
					<stop  offset="0" style="stop-color:#FFFFFF"/>
					<stop  offset="1" style="stop-color:#DADBE8"/>
				</linearGradient>
				<path style="fill:url(#SVGID_00000046302453276107175450000011482211462645085855_);" d="M99.7,19.8h-6.2c-3.8,0-3.8-1.5-3.8-2
					V16c0-1.7,0.9-2.5,2.9-2.5H98c0.5,0,1.7-0.2,1.7-2c0-1.9-1.2-2.1-1.7-2.1H93c-3.5,0-7.6,1.1-7.6,6.4v2.4c0,3.8,2.9,5.8,8.6,5.8
					h6.1c3.9,0,4.4,1.5,4.4,2.6v2.1c0,1-0.4,2.3-3.5,2.3H87c-0.5,0-1.7,0.2-1.7,2c0,1.9,1.2,2.1,1.7,2.1h13.5c3.7,0,8.2-1.1,8.2-6.3
					v-2.6C108.8,21.9,105.7,19.8,99.7,19.8z"/>
			</g>
		</g>
		
			<linearGradient id="SVGID_00000070097480923299511750000002376239350412655026_" gradientUnits="userSpaceOnUse" x1="146.2487" y1="8.8935" x2="146.2487" y2="35.17">
			<stop  offset="0" style="stop-color:#FFFFFF"/>
			<stop  offset="1" style="stop-color:#DADBE8"/>
		</linearGradient>
		<circle style="fill:url(#SVGID_00000070097480923299511750000002376239350412655026_);" cx="146.2" cy="29" r="3.2"/>
		<g class="st6">
			
				<linearGradient id="SVGID_00000065070428002738845270000011320969622602964616_" gradientUnits="userSpaceOnUse" x1="155.0002" y1="34.9451" x2="155.0002" y2="30.8202">
				<stop  offset="1.889029e-04" style="stop-color:#B7B9CC;stop-opacity:0"/>
				<stop  offset="1" style="stop-color:#B7B9CC"/>
			</linearGradient>
			<path style="fill:url(#SVGID_00000065070428002738845270000011320969622602964616_);" d="M151.6,25l1.7,3l3.6,6.4l0,0l0,0
				c0.2,0.3,0.5,0.6,0.8,0.8c0.3,0.2,0.6,0.3,0.9,0.3c0.6,0,1.1-0.2,1.5-0.6c0.4-0.4,0.6-0.9,0.6-1.6c0-0.2,0-0.3-0.1-0.5
				c0-0.3-0.1-0.5-0.3-0.7l-6.5-11.7c-1.5,0-3.1,0-4.6,0.1L151.6,25z"/>
			
				<linearGradient id="SVGID_00000013160770288699691530000014318869259628866999_" gradientUnits="userSpaceOnUse" x1="128.1168" y1="34.9451" x2="128.1168" y2="30.8202">
				<stop  offset="1.889029e-04" style="stop-color:#B7B9CC;stop-opacity:0"/>
				<stop  offset="1" style="stop-color:#B7B9CC"/>
			</linearGradient>
			<path style="fill:url(#SVGID_00000013160770288699691530000014318869259628866999_);" d="M123.6,35.2h10h0l0,0c0,0,0.1,0,0.1,0
				c0.2,0,0.4,0,0.6-0.1c0,0,0.1,0,0.1,0l0,0c0.1,0,0.1-0.1,0.2-0.1c0.3-0.2,0.6-0.4,0.8-0.8l3.4-6.1l1.6-3l2.3-4.4
				c-1.7,0.1-3.3,0.2-4.9,0.3L132.2,31h-8.8c-1.4,0-5.6,0-5.6-2.7v-5.6c-1.7,0.2-3.1,0.4-4.3,0.5v5.1
				C113.5,32.8,116.9,35.2,123.6,35.2z"/>
			
				<linearGradient id="SVGID_00000147209653339333779620000001892072422786296495_" gradientUnits="userSpaceOnUse" x1="67.0507" y1="34.9451" x2="67.0507" y2="30.8202">
				<stop  offset="1.889029e-04" style="stop-color:#B7B9CC;stop-opacity:0"/>
				<stop  offset="1" style="stop-color:#B7B9CC"/>
			</linearGradient>
			<path style="fill:url(#SVGID_00000147209653339333779620000001892072422786296495_);" d="M55.9,35h16.1c4.4,0,7.9-3.6,7.9-8.2V26
				c-1.5,0-2.9,0-4.3,0c-0.5,2.8-2.7,4.9-5.5,4.9H58.5v-6.5c-1.6-0.3-3-0.7-4.3-1.1v9.9C54.3,34.3,54.9,35,55.9,35z"/>
			
				<linearGradient id="SVGID_00000133491443696321270670000017071690678346268093_" gradientUnits="userSpaceOnUse" x1="97.0005" y1="34.9451" x2="97.0005" y2="30.8202">
				<stop  offset="1.889029e-04" style="stop-color:#B7B9CC;stop-opacity:0"/>
				<stop  offset="1" style="stop-color:#B7B9CC"/>
			</linearGradient>
			<path style="fill:url(#SVGID_00000133491443696321270670000017071690678346268093_);" d="M104.5,26.5v2.1c0,1-0.4,2.3-3.5,2.3H87
				c-0.5,0-1.7,0.2-1.7,2c0,1.9,1.2,2.1,1.7,2.1h13.5c3.7,0,8.2-1.1,8.2-6.3v-2.6c0-0.8-0.1-1.6-0.4-2.3c-1.8,0.2-3.5,0.4-5.2,0.6
				C104.3,25,104.5,25.8,104.5,26.5z"/>
			
				<linearGradient id="SVGID_00000060739137668383005800000012592642941687788677_" gradientUnits="userSpaceOnUse" x1="146.237" y1="34.9451" x2="146.237" y2="30.8202">
				<stop  offset="1.889029e-04" style="stop-color:#B7B9CC;stop-opacity:0"/>
				<stop  offset="1" style="stop-color:#B7B9CC"/>
			</linearGradient>
			<path style="fill:url(#SVGID_00000060739137668383005800000012592642941687788677_);" d="M146.2,25.8c-1.8,0-3.2,1.4-3.2,3.2
				c0,1.8,1.4,3.2,3.2,3.2c1.8,0,3.2-1.4,3.2-3.2C149.4,27.3,148,25.8,146.2,25.8z"/>
		</g>
		<g>
			
				<linearGradient id="SVGID_00000176027871587008031520000004438776841263518899_" gradientUnits="userSpaceOnUse" x1="145.8504" y1="24.5244" x2="145.8504" y2="6.9793">
				<stop  offset="0" style="stop-color:#FFFFFF"/>
				<stop  offset="1" style="stop-color:#DADBE8"/>
			</linearGradient>
			<path style="fill:url(#SVGID_00000176027871587008031520000004438776841263518899_);" d="M148.5,10.7c-0.3-0.5-0.6-0.9-1.1-1.2
				c-0.4-0.3-0.9-0.4-1.4-0.4c-0.5,0-0.9,0.1-1.4,0.4c-0.4,0.3-0.8,0.7-1.1,1.2L137.8,21c1.6-0.1,3.2-0.2,4.9-0.3l3.4-6.3l3.2,6
				c1.6,0,3.1-0.1,4.6-0.1L148.5,10.7z"/>
			
				<linearGradient id="SVGID_00000001645187333714572820000001545725404693731984_" gradientUnits="userSpaceOnUse" x1="115.6631" y1="24.5244" x2="115.6631" y2="6.9793">
				<stop  offset="0" style="stop-color:#FFFFFF"/>
				<stop  offset="1" style="stop-color:#DADBE8"/>
			</linearGradient>
			<path style="fill:url(#SVGID_00000001645187333714572820000001545725404693731984_);" d="M115.6,9.3c-1.4,0-2.1,0.8-2.1,2.1v11.8
				c1.2-0.1,2.6-0.3,4.3-0.5V11.4C117.8,10.1,117,9.3,115.6,9.3z"/>
			
				<linearGradient id="SVGID_00000119812971340741417040000014908170076471329414_" gradientUnits="userSpaceOnUse" x1="67.0524" y1="24.5244" x2="67.0524" y2="6.9793">
				<stop  offset="0" style="stop-color:#FFFFFF"/>
				<stop  offset="1" style="stop-color:#DADBE8"/>
			</linearGradient>
			<path style="fill:url(#SVGID_00000119812971340741417040000014908170076471329414_);" d="M70.2,9.3H55.9c-1,0-1.6,0.7-1.6,1.8
				v12.1c1.3,0.4,2.7,0.8,4.3,1.1V13.4h11.6c3.1,0,5.5,2.5,5.5,5.6v5.9c0,0.4,0,0.7-0.1,1c1.4,0,2.8,0,4.3,0v-7.5
				C79.8,13.9,76.9,9.3,70.2,9.3z"/>
			
				<linearGradient id="SVGID_00000110447815416253872380000013321914218964480128_" gradientUnits="userSpaceOnUse" x1="96.892" y1="24.5244" x2="96.892" y2="6.9793">
				<stop  offset="0" style="stop-color:#FFFFFF"/>
				<stop  offset="1" style="stop-color:#DADBE8"/>
			</linearGradient>
			<path style="fill:url(#SVGID_00000110447815416253872380000013321914218964480128_);" d="M99.7,19.8h-6.2c-3.8,0-3.8-1.5-3.8-2
				v-1.8c0-1.7,0.9-2.5,2.9-2.5H98c0.5,0,1.7-0.2,1.7-2c0-1.9-1.2-2.1-1.7-2.1H93c-3.5,0-7.6,1.1-7.6,6.4v2.4c0,3.8,2.9,5.8,8.6,5.8
				h6.1c1.5,0,2.5,0.2,3.1,0.5c1.7-0.2,3.4-0.4,5.2-0.6C107.4,21.1,104.5,19.8,99.7,19.8z"/>
		</g>
	</g>
	<g>
		<g>
			<path class="st0" d="M32.1,15.6L26,21.7c-1,1-1,2.6,0,3.7l6.1,6.1c1,1,2.7,1,3.7,0l6.1-6.1c1-1,1-2.6,0-3.7l-6.1-6.1
				C34.8,14.6,33.1,14.6,32.1,15.6z"/>
			<path class="st0" d="M7.8,15.4l-6.1,6.1c-1,1-1,2.6,0,3.7l6.1,6.1c1,1,2.7,1,3.7,0l6.1-6.1c1-1,1-2.6,0-3.7l-6.1-6.1
				C10.5,14.4,8.8,14.4,7.8,15.4z"/>
			<path class="st0" d="M20,3.5l-6.1,6.1c-1,1-1,2.6,0,3.7l6.1,6.1c1,1,2.7,1,3.7,0l6.1-6.1c1-1,1-2.6,0-3.7l-6.1-6.1
				C22.6,2.5,21,2.5,20,3.5z"/>
			<path class="st0" d="M20.1,27.5L14,33.6c-1,1-1,2.6,0,3.7l6.1,6.1c1,1,2.7,1,3.7,0l6.1-6.1c1-1,1-2.6,0-3.7l-6.1-6.1
				C22.8,26.5,21.1,26.5,20.1,27.5z"/>
		</g>
		<g>
			
				<linearGradient id="SVGID_00000085943261492398779090000008246777309041134505_" gradientUnits="userSpaceOnUse" x1="33.9512" y1="29.2493" x2="33.9512" y2="32.187">
				<stop  offset="0" style="stop-color:#AECF80"/>
				<stop  offset="1" style="stop-color:#00954E"/>
			</linearGradient>
			<path style="fill:url(#SVGID_00000085943261492398779090000008246777309041134505_);" d="M32.1,13.7L26,19.8c-1,1-1,2.6,0,3.7
				l6.1,6.1c1,1,2.7,1,3.7,0l6.1-6.1c1-1,1-2.6,0-3.7l-6.1-6.1C34.8,12.7,33.1,12.7,32.1,13.7z"/>
			
				<linearGradient id="SVGID_00000092456033842787653720000009806463097646984327_" gradientUnits="userSpaceOnUse" x1="9.6501" y1="29.8262" x2="9.6501" y2="38.482">
				<stop  offset="3.779744e-04" style="stop-color:#EF8BB8"/>
				<stop  offset="0.9996" style="stop-color:#D22C87"/>
			</linearGradient>
			<path style="fill:url(#SVGID_00000092456033842787653720000009806463097646984327_);" d="M7.8,13.6l-6.1,6.1c-1,1-1,2.6,0,3.7
				l6.1,6.1c1,1,2.7,1,3.7,0l6.1-6.1c1-1,1-2.6,0-3.7l-6.1-6.1C10.5,12.6,8.8,12.6,7.8,13.6z"/>
			
				<linearGradient id="SVGID_00000074427904932964580350000006220307336423238548_" gradientUnits="userSpaceOnUse" x1="21.8145" y1="18.3753" x2="21.8145" y2="23.4352">
				<stop  offset="1.889872e-04" style="stop-color:#FAC376"/>
				<stop  offset="0.9996" style="stop-color:#E97E21"/>
			</linearGradient>
			<path style="fill:url(#SVGID_00000074427904932964580350000006220307336423238548_);" d="M20,1.6l-6.1,6.1c-1,1-1,2.6,0,3.7
				l6.1,6.1c1,1,2.7,1,3.7,0l6.1-6.1c1-1,1-2.6,0-3.7l-6.1-6.1C22.6,0.6,21,0.6,20,1.6z"/>
			
				<linearGradient id="SVGID_00000125580225549505526730000015436893924546315419_" gradientUnits="userSpaceOnUse" x1="21.9667" y1="41.3659" x2="21.9667" y2="47.4966">
				<stop  offset="0" style="stop-color:#8BD2F5"/>
				<stop  offset="1" style="stop-color:#007EBA"/>
			</linearGradient>
			<path style="fill:url(#SVGID_00000125580225549505526730000015436893924546315419_);" d="M20.1,25.7L14,31.7c-1,1-1,2.6,0,3.7
				l6.1,6.1c1,1,2.7,1,3.7,0l6.1-6.1c1-1,1-2.6,0-3.7l-6.1-6.1C22.8,24.7,21.1,24.7,20.1,25.7z"/>
		</g>
		<g>
			<g>
				<g>
					
						<linearGradient id="SVGID_00000075139143066787564540000016272778122996520096_" gradientUnits="userSpaceOnUse" x1="33.8774" y1="13.5423" x2="33.8774" y2="30.8722">
						<stop  offset="0" style="stop-color:#75B847"/>
						<stop  offset="1" style="stop-color:#00954E"/>
					</linearGradient>
					<path style="fill:url(#SVGID_00000075139143066787564540000016272778122996520096_);" d="M32,14.2l-6.1,6.1c-1,1-1,2.6,0,3.7
						L32,30c1,1,2.7,1,3.7,0l6.1-6.1c1-1,1-2.6,0-3.7l-6.1-6.1C34.7,13.2,33.1,13.2,32,14.2z"/>
					<g>
						
							<linearGradient id="SVGID_00000021078112281294932540000017819026622390623875_" gradientUnits="userSpaceOnUse" x1="30.6146" y1="12.6277" x2="30.6146" y2="15.4365">
							<stop  offset="0" style="stop-color:#75B847"/>
							<stop  offset="1" style="stop-color:#006F3B"/>
						</linearGradient>
						<path style="fill:url(#SVGID_00000021078112281294932540000017819026622390623875_);" d="M30.2,22.3l-0.1,0.1h0.7h0.3v-0.6
							h-0.3h-0.6l0,0c0,0,0.1,0.1,0.1,0.1c0,0,0,0.1,0,0.1c0,0.1,0,0.1,0,0.1C30.3,22.3,30.3,22.3,30.2,22.3z"/>
						
							<linearGradient id="SVGID_00000031190649255297951990000003858131116610098357_" gradientUnits="userSpaceOnUse" x1="31.9966" y1="12.6277" x2="31.9966" y2="15.4365">
							<stop  offset="0" style="stop-color:#75B847"/>
							<stop  offset="1" style="stop-color:#006F3B"/>
						</linearGradient>
						<path style="fill:url(#SVGID_00000031190649255297951990000003858131116610098357_);" d="M30.2,19.8L29.9,20
							c0,0-0.1,0-0.1,0.1c0,0,0,0.1,0,0.1c0,0,0,0.1,0,0.1c0,0,0,0.1,0.1,0.1l0.3,0.2c0,0,0.1,0.1,0.1,0.1c0,0,0,0.1,0,0.1
							c0,0.1,0,0.1,0,0.1c0,0-0.1,0.1-0.1,0.1l-0.2,0.1h0.7h0.3v-1.5c0-0.1,0-0.2,0.1-0.2c0.1-0.1,0.1-0.1,0.2-0.1h2.4
							c0.1-0.3,0.2-0.5,0.3-0.8c0,0-0.1,0.1-0.1,0.1c0,0-0.1,0-0.1,0c0,0-0.1,0-0.1,0c0,0-0.1-0.1-0.1-0.1l-0.2-0.3
							c0,0,0-0.1-0.1-0.1c0,0-0.1,0-0.1,0c0,0-0.1,0-0.1,0c0,0-0.1,0-0.1,0.1l-0.2,0.3c0,0-0.1,0.1-0.1,0.1c0,0-0.1,0-0.1,0
							c-0.1,0-0.1,0-0.1,0c0,0-0.1-0.1-0.1-0.1l-0.2-0.3c0,0,0-0.1-0.1-0.1c0,0-0.1,0-0.1,0c0,0-0.1,0-0.1,0c0,0-0.1,0-0.1,0.1
							l-0.2,0.3c0,0-0.1,0.1-0.1,0.1c0,0-0.1,0-0.1,0c-0.1,0-0.1,0-0.1,0c0,0-0.1-0.1-0.1-0.1l-0.2-0.3c0,0,0-0.1-0.1-0.1
							c0,0-0.1,0-0.1,0c0,0-0.1,0-0.1,0c0,0-0.1,0-0.1,0.1l-0.2,0.3c0,0-0.1,0.1-0.1,0.1l-0.3,0.2c0,0-0.1,0-0.1,0.1
							c0,0,0,0.1,0,0.1c0,0,0,0.1,0,0.1c0,0,0,0.1,0.1,0.1l0.3,0.2c0,0,0.1,0.1,0.1,0.1c0,0,0,0.1,0,0.1c0,0.1,0,0.1,0,0.1
							C30.3,19.7,30.3,19.8,30.2,19.8z"/>
						
							<linearGradient id="SVGID_00000080890217900051317680000007148444098387684751_" gradientUnits="userSpaceOnUse" x1="33.3265" y1="12.6277" x2="33.3265" y2="15.4365">
							<stop  offset="0" style="stop-color:#75B847"/>
							<stop  offset="1" style="stop-color:#006F3B"/>
						</linearGradient>
						<path style="fill:url(#SVGID_00000080890217900051317680000007148444098387684751_);" d="M31.7,21.7v0.6
							c0.7-0.1,1.3-0.4,1.9-0.8c0.6-0.4,1-0.9,1.3-1.6h-0.7C33.6,20.8,32.7,21.4,31.7,21.7z"/>
						
							<linearGradient id="SVGID_00000062900095733263899440000011684819091030400946_" gradientUnits="userSpaceOnUse" x1="33.9013" y1="12.6277" x2="33.9013" y2="15.4365">
							<stop  offset="0" style="stop-color:#75B847"/>
							<stop  offset="1" style="stop-color:#006F3B"/>
						</linearGradient>
						<path style="fill:url(#SVGID_00000062900095733263899440000011684819091030400946_);" d="M37.9,25l-0.3-0.2
							c0,0-0.1-0.1-0.1-0.1c0,0,0-0.1,0-0.1c0-0.1,0-0.1,0-0.1c0,0,0.1-0.1,0.1-0.1l0.3-0.2c0,0,0.1,0,0.1-0.1c0,0,0-0.1,0-0.1
							c0,0,0-0.1,0-0.1c0,0,0-0.1-0.1-0.1l-0.3-0.2c0,0-0.1-0.1-0.1-0.1v0c0,0,0,0,0,0c0,0,0,0,0-0.1v0c0,0,0,0,0,0c0,0,0,0,0,0
							c0,0,0,0,0,0c0,0,0,0,0,0v0l0,0l0.3-0.2c0,0,0.1,0,0.1-0.1c0,0,0-0.1,0-0.1c0,0,0-0.1,0-0.1c0,0,0-0.1-0.1-0.1l-0.3-0.2
							c0,0-0.1-0.1-0.1-0.1s0-0.1,0-0.1c0-0.1,0-0.1,0-0.1c0,0,0.1-0.1,0.1-0.1l0.3-0.2c0,0,0.1,0,0.1-0.1c0,0,0-0.1,0-0.1
							c0,0,0-0.1,0-0.1c0,0,0-0.1-0.1-0.1l-0.3-0.2c0,0-0.1-0.1-0.1-0.1c0,0,0-0.1,0-0.1c0-0.1,0-0.1,0-0.1c0,0,0.1-0.1,0.1-0.1
							l0.3-0.2c0,0,0.1,0,0.1-0.1c0,0,0-0.1,0-0.1c0,0,0-0.1,0-0.1c0,0,0-0.1-0.1-0.1l-0.3-0.2c0,0-0.1-0.1-0.1-0.1c0,0,0-0.1,0-0.1
							c0-0.1,0-0.1,0-0.1c0,0,0.1-0.1,0.1-0.1l0.3-0.2c0,0,0.1,0,0.1-0.1c0,0,0-0.1,0-0.1c0,0,0-0.1,0-0.1c0,0,0-0.1-0.1-0.1
							l-0.3-0.2c0,0-0.1-0.1-0.1-0.1l-0.2-0.3c0,0,0-0.1-0.1-0.1c0,0-0.1,0-0.1,0c0,0-0.1,0-0.1,0c0,0-0.1,0-0.1,0.1l-0.2,0.3
							c0,0-0.1,0.1-0.1,0.1c0,0-0.1,0-0.1,0c-0.1,0-0.1,0-0.1,0c0,0-0.1-0.1-0.1-0.1L36,18.3c0,0.4-0.1,0.7-0.2,1.1h0.5
							c0.1,0,0.2,0,0.2,0.1c0.1,0.1,0.1,0.1,0.1,0.2v3.8v2.4c0,0.1,0,0.1-0.1,0.2c-0.1,0.1-0.1,0.1-0.2,0.1h-5c-0.1,0-0.2,0-0.2-0.1
							c0,0-0.1-0.1-0.1-0.2V23h-0.3h-0.6l0.1,0.1c0,0,0.1,0.1,0.1,0.1c0,0,0,0.1,0,0.1c0,0.1,0,0.1,0,0.1c0,0-0.1,0.1-0.1,0.1
							l-0.3,0.2c0,0-0.1,0-0.1,0.1c0,0,0,0.1,0,0.1c0,0,0,0.1,0,0.1c0,0,0,0.1,0.1,0.1l0.3,0.2c0,0,0.1,0.1,0.1,0.1c0,0,0,0.1,0,0.1
							c0,0.1,0,0.1,0,0.1c0,0-0.1,0.1-0.1,0.1l-0.3,0.2c0,0-0.1,0-0.1,0.1c0,0,0,0.1,0,0.1c0,0,0,0.1,0,0.1c0,0,0,0.1,0.1,0.1
							l0.3,0.2c0,0,0.1,0.1,0.1,0.1c0,0,0,0.1,0,0.1c0,0.1,0,0.1,0,0.1c0,0-0.1,0.1-0.1,0.1l-0.3,0.2c0,0-0.1,0-0.1,0.1
							c0,0,0,0.1,0,0.1c0,0,0,0.1,0,0.1c0,0,0,0.1,0.1,0.1l0.3,0.2c0,0,0.1,0.1,0.1,0.1l0.2,0.3c0,0,0,0.1,0.1,0.1c0,0,0.1,0,0.1,0
							c0,0,0.1,0,0.1,0c0,0,0.1,0,0.1-0.1l0.2-0.3c0,0,0.1-0.1,0.1-0.1s0.1,0,0.1,0c0.1,0,0.1,0,0.1,0c0,0,0.1,0.1,0.1,0.1l0.2,0.3
							c0,0,0,0.1,0.1,0.1c0,0,0.1,0,0.1,0c0,0,0.1,0,0.1,0c0,0,0.1,0,0.1-0.1l0.2-0.3c0,0,0.1-0.1,0.1-0.1c0,0,0.1,0,0.1,0
							c0,0,0.1,0,0.1,0c0.1,0,0.1,0.1,0.1,0.1l0.2,0.3c0,0,0,0.1,0.1,0.1c0,0,0.1,0,0.1,0c0,0,0.1,0,0.1,0c0,0,0.1,0,0.1-0.1
							l0.2-0.3c0,0,0.1-0.1,0.1-0.1c0,0,0.1,0,0.1,0c0.1,0,0.1,0,0.1,0c0,0,0.1,0.1,0.1,0.1l0.2,0.3c0,0,0,0.1,0.1,0.1
							c0,0,0.1,0,0.1,0c0,0,0.1,0,0.1,0c0,0,0.1,0,0.1-0.1l0.1-0.1c0,0,0,0,0,0l0.1-0.2c0,0,0.1-0.1,0.1-0.1s0.1,0,0.1,0h0
							c0,0,0.1,0,0.1,0c0,0,0.1,0.1,0.1,0.1l0.1,0.1v0l0.2,0.2c0,0,0,0.1,0.1,0.1c0,0,0.1,0,0.1,0c0,0,0.1,0,0.1,0
							c0,0,0.1,0,0.1-0.1l0.2-0.3c0,0,0.1-0.1,0.1-0.1c0,0,0.1,0,0.1,0c0.1,0,0.1,0,0.1,0c0,0,0.1,0.1,0.1,0.1l0.2,0.3
							c0,0,0,0.1,0.1,0.1c0,0,0.1,0,0.1,0c0,0,0.1,0,0.1,0c0,0,0.1,0,0.1-0.1l0.2-0.3c0,0,0.1-0.1,0.1-0.1l0.3-0.2
							c0,0,0.1,0,0.1-0.1c0,0,0-0.1,0-0.1c0,0,0-0.1,0-0.1c0,0,0-0.1-0.1-0.1l-0.3-0.2c0,0-0.1-0.1-0.1-0.1c0,0,0-0.1,0-0.1l0,0
							c0,0,0-0.1,0-0.1c0,0,0.1-0.1,0.1-0.1l0.3-0.2c0,0,0.1,0,0.1-0.1c0,0,0-0.1,0-0.1C38,25.2,38,25.2,37.9,25
							C37.9,25.1,37.9,25.1,37.9,25z"/>
						
							<linearGradient id="SVGID_00000035501981023226600650000011398531073220103569_" gradientUnits="userSpaceOnUse" x1="34.9696" y1="12.6277" x2="34.9696" y2="15.4365">
							<stop  offset="0" style="stop-color:#75B847"/>
							<stop  offset="1" style="stop-color:#006F3B"/>
						</linearGradient>
						<path style="fill:url(#SVGID_00000035501981023226600650000011398531073220103569_);" d="M35.4,18.5c0,0-0.1,0.1-0.1,0.1
							c0,0-0.1,0-0.1,0c0,0-0.1,0-0.1,0c0,0-0.1-0.1-0.1-0.1l-0.1-0.2c0,0.4-0.1,0.7-0.3,1h0.7C35.3,19,35.4,18.8,35.4,18.5z"/>
						
							<linearGradient id="SVGID_00000098201021048027865050000016724065076993239688_" gradientUnits="userSpaceOnUse" x1="32.5878" y1="12.6277" x2="32.5878" y2="15.4365">
							<stop  offset="0" style="stop-color:#75B847"/>
							<stop  offset="1" style="stop-color:#006F3B"/>
						</linearGradient>
						<path style="fill:url(#SVGID_00000098201021048027865050000016724065076993239688_);" d="M31.7,19.9V21
							c0.7-0.2,1.3-0.6,1.7-1.1H31.7z"/>
						
							<linearGradient id="SVGID_00000075135747246611398060000005231296426845194162_" gradientUnits="userSpaceOnUse" x1="33.9117" y1="12.6277" x2="33.9117" y2="15.4365">
							<stop  offset="0" style="stop-color:#75B847"/>
							<stop  offset="1" style="stop-color:#006F3B"/>
						</linearGradient>
						<path style="fill:url(#SVGID_00000075135747246611398060000005231296426845194162_);" d="M34,21.9c-0.7,0.5-1.5,0.9-2.3,1v2.5
							h4.4l0-2.1v-3.5h-0.5C35.3,20.7,34.7,21.4,34,21.9z"/>
					</g>
					<g>
						<path class="st1" d="M30.2,21.6l-0.1,0.1h0.7h0.3v-0.6h-0.3h-0.6l0,0c0,0,0.1,0.1,0.1,0.1c0,0,0,0.1,0,0.1c0,0.1,0,0.1,0,0.1
							C30.3,21.5,30.3,21.6,30.2,21.6z"/>
						<path class="st1" d="M30.2,19.1l-0.3,0.2c0,0-0.1,0-0.1,0.1c0,0,0,0.1,0,0.1c0,0,0,0.1,0,0.1c0,0,0,0.1,0.1,0.1l0.3,0.2
							c0,0,0.1,0.1,0.1,0.1c0,0,0,0.1,0,0.1c0,0.1,0,0.1,0,0.1c0,0-0.1,0.1-0.1,0.1l-0.2,0.1h0.7h0.3v-1.5c0-0.1,0-0.2,0.1-0.2
							c0.1-0.1,0.1-0.1,0.2-0.1h2.4c0.1-0.3,0.2-0.5,0.3-0.8c0,0-0.1,0.1-0.1,0.1c0,0-0.1,0-0.1,0c0,0-0.1,0-0.1,0
							c0,0-0.1-0.1-0.1-0.1l-0.2-0.3c0,0,0-0.1-0.1-0.1c0,0-0.1,0-0.1,0c0,0-0.1,0-0.1,0c0,0-0.1,0-0.1,0.1l-0.2,0.3
							c0,0-0.1,0.1-0.1,0.1c0,0-0.1,0-0.1,0c-0.1,0-0.1,0-0.1,0c0,0-0.1-0.1-0.1-0.1l-0.2-0.3c0,0,0-0.1-0.1-0.1c0,0-0.1,0-0.1,0
							c0,0-0.1,0-0.1,0c0,0-0.1,0-0.1,0.1l-0.2,0.3c0,0-0.1,0.1-0.1,0.1c0,0-0.1,0-0.1,0c-0.1,0-0.1,0-0.1,0c0,0-0.1-0.1-0.1-0.1
							l-0.2-0.3c0,0,0-0.1-0.1-0.1c0,0-0.1,0-0.1,0c0,0-0.1,0-0.1,0c0,0-0.1,0-0.1,0.1l-0.2,0.3c0,0-0.1,0.1-0.1,0.1L29.9,18
							c0,0-0.1,0-0.1,0.1c0,0,0,0.1,0,0.1c0,0,0,0.1,0,0.1c0,0,0,0.1,0.1,0.1l0.3,0.2c0,0,0.1,0.1,0.1,0.1c0,0,0,0.1,0,0.1
							c0,0.1,0,0.1,0,0.1C30.3,19,30.3,19.1,30.2,19.1z"/>
						<path class="st1" d="M31.7,21v0.6c0.7-0.1,1.3-0.4,1.9-0.8c0.6-0.4,1-0.9,1.3-1.6h-0.7C33.6,20.1,32.7,20.7,31.7,21z"/>
						<path class="st1" d="M37.9,24.3l-0.3-0.2c0,0-0.1-0.1-0.1-0.1c0,0,0-0.1,0-0.1c0-0.1,0-0.1,0-0.1c0,0,0.1-0.1,0.1-0.1l0.3-0.2
							c0,0,0.1,0,0.1-0.1c0,0,0-0.1,0-0.1c0,0,0-0.1,0-0.1c0,0,0-0.1-0.1-0.1l-0.3-0.2c0,0-0.1-0.1-0.1-0.1v0c0,0,0,0,0,0
							c0,0,0,0,0-0.1v0c0,0,0,0,0,0c0,0,0,0,0,0c0,0,0,0,0,0c0,0,0,0,0,0v0l0,0l0.3-0.2c0,0,0.1,0,0.1-0.1c0,0,0-0.1,0-0.1
							c0,0,0-0.1,0-0.1c0,0,0-0.1-0.1-0.1l-0.3-0.2c0,0-0.1-0.1-0.1-0.1s0-0.1,0-0.1c0-0.1,0-0.1,0-0.1c0,0,0.1-0.1,0.1-0.1l0.3-0.2
							c0,0,0.1,0,0.1-0.1c0,0,0-0.1,0-0.1c0,0,0-0.1,0-0.1c0,0,0-0.1-0.1-0.1l-0.3-0.2c0,0-0.1-0.1-0.1-0.1c0,0,0-0.1,0-0.1
							c0-0.1,0-0.1,0-0.1s0.1-0.1,0.1-0.1l0.3-0.2c0,0,0.1,0,0.1-0.1c0,0,0-0.1,0-0.1c0,0,0-0.1,0-0.1c0,0,0-0.1-0.1-0.1l-0.3-0.2
							c0,0-0.1-0.1-0.1-0.1c0,0,0-0.1,0-0.1c0-0.1,0-0.1,0-0.1c0,0,0.1-0.1,0.1-0.1l0.3-0.2c0,0,0.1,0,0.1-0.1c0,0,0-0.1,0-0.1
							c0,0,0-0.1,0-0.1c0,0,0-0.1-0.1-0.1l-0.3-0.2c0,0-0.1-0.1-0.1-0.1l-0.2-0.3c0,0,0-0.1-0.1-0.1c0,0-0.1,0-0.1,0
							c0,0-0.1,0-0.1,0c0,0-0.1,0-0.1,0.1l-0.2,0.3c0,0-0.1,0.1-0.1,0.1c0,0-0.1,0-0.1,0c-0.1,0-0.1,0-0.1,0c0,0-0.1-0.1-0.1-0.1
							L36,17.6c0,0.4-0.1,0.7-0.2,1.1h0.5c0.1,0,0.2,0,0.2,0.1c0.1,0.1,0.1,0.1,0.1,0.2v3.8v2.4c0,0.1,0,0.1-0.1,0.2
							c-0.1,0.1-0.1,0.1-0.2,0.1h-5c-0.1,0-0.2,0-0.2-0.1c0,0-0.1-0.1-0.1-0.2v-2.8h-0.3h-0.6l0.1,0.1c0,0,0.1,0.1,0.1,0.1
							c0,0,0,0.1,0,0.1c0,0.1,0,0.1,0,0.1c0,0-0.1,0.1-0.1,0.1l-0.3,0.2c0,0-0.1,0-0.1,0.1c0,0,0,0.1,0,0.1c0,0,0,0.1,0,0.1
							c0,0,0,0.1,0.1,0.1l0.3,0.2c0,0,0.1,0.1,0.1,0.1c0,0,0,0.1,0,0.1c0,0.1,0,0.1,0,0.1c0,0-0.1,0.1-0.1,0.1l-0.3,0.2
							c0,0-0.1,0-0.1,0.1c0,0,0,0.1,0,0.1c0,0,0,0.1,0,0.1c0,0,0,0.1,0.1,0.1l0.3,0.2c0,0,0.1,0.1,0.1,0.1s0,0.1,0,0.1
							c0,0.1,0,0.1,0,0.1c0,0-0.1,0.1-0.1,0.1l-0.3,0.2c0,0-0.1,0-0.1,0.1c0,0,0,0.1,0,0.1c0,0,0,0.1,0,0.1c0,0,0,0.1,0.1,0.1
							l0.3,0.2c0,0,0.1,0.1,0.1,0.1l0.2,0.3c0,0,0,0.1,0.1,0.1c0,0,0.1,0,0.1,0c0,0,0.1,0,0.1,0c0,0,0.1,0,0.1-0.1l0.2-0.3
							c0,0,0.1-0.1,0.1-0.1s0.1,0,0.1,0c0.1,0,0.1,0,0.1,0c0,0,0.1,0.1,0.1,0.1l0.2,0.3c0,0,0,0.1,0.1,0.1c0,0,0.1,0,0.1,0
							c0,0,0.1,0,0.1,0c0,0,0.1,0,0.1-0.1l0.2-0.3c0,0,0.1-0.1,0.1-0.1c0,0,0.1,0,0.1,0c0,0,0.1,0,0.1,0c0.1,0,0.1,0.1,0.1,0.1
							l0.2,0.3c0,0,0,0.1,0.1,0.1c0,0,0.1,0,0.1,0c0,0,0.1,0,0.1,0c0,0,0.1,0,0.1-0.1l0.2-0.3c0,0,0.1-0.1,0.1-0.1c0,0,0.1,0,0.1,0
							c0.1,0,0.1,0,0.1,0c0,0,0.1,0.1,0.1,0.1l0.2,0.3c0,0,0,0.1,0.1,0.1c0,0,0.1,0,0.1,0c0,0,0.1,0,0.1,0c0,0,0.1,0,0.1-0.1
							l0.1-0.1c0,0,0,0,0,0l0.1-0.2c0,0,0.1-0.1,0.1-0.1s0.1,0,0.1,0h0c0,0,0.1,0,0.1,0c0,0,0.1,0.1,0.1,0.1l0.1,0.1v0l0.2,0.2
							c0,0,0,0.1,0.1,0.1c0,0,0.1,0,0.1,0c0,0,0.1,0,0.1,0c0,0,0.1,0,0.1-0.1l0.2-0.3c0,0,0.1-0.1,0.1-0.1c0,0,0.1,0,0.1,0
							c0.1,0,0.1,0,0.1,0c0,0,0.1,0.1,0.1,0.1l0.2,0.3c0,0,0,0.1,0.1,0.1c0,0,0.1,0,0.1,0c0,0,0.1,0,0.1,0c0,0,0.1,0,0.1-0.1
							l0.2-0.3c0,0,0.1-0.1,0.1-0.1l0.3-0.2c0,0,0.1,0,0.1-0.1c0,0,0-0.1,0-0.1c0,0,0-0.1,0-0.1c0,0,0-0.1-0.1-0.1l-0.3-0.2
							c0,0-0.1-0.1-0.1-0.1c0,0,0-0.1,0-0.1l0,0c0,0,0-0.1,0-0.1c0,0,0.1-0.1,0.1-0.1l0.3-0.2c0,0,0.1,0,0.1-0.1c0,0,0-0.1,0-0.1
							C38,24.5,38,24.4,37.9,24.3C37.9,24.4,37.9,24.4,37.9,24.3z"/>
						<path class="st1" d="M35.4,17.8c0,0-0.1,0.1-0.1,0.1c0,0-0.1,0-0.1,0c0,0-0.1,0-0.1,0c0,0-0.1-0.1-0.1-0.1l-0.1-0.2
							c0,0.4-0.1,0.7-0.3,1h0.7C35.3,18.3,35.4,18,35.4,17.8z"/>
						<path class="st1" d="M31.7,19.2v1.1c0.7-0.2,1.3-0.6,1.7-1.1H31.7z"/>
						<path class="st1" d="M34,21.2c-0.7,0.5-1.5,0.9-2.3,1v2.5h4.4l0-2.1v-3.5h-0.5C35.3,20,34.7,20.7,34,21.2z"/>
					</g>
				</g>
				<g>
					
						<linearGradient id="SVGID_00000109008754572768023120000005420167148094071433_" gradientUnits="userSpaceOnUse" x1="9.5763" y1="13.4103" x2="9.5763" y2="30.605">
						<stop  offset="3.779744e-04" style="stop-color:#E94E95"/>
						<stop  offset="0.9996" style="stop-color:#D22C87"/>
					</linearGradient>
					<path style="fill:url(#SVGID_00000109008754572768023120000005420167148094071433_);" d="M7.7,14.1l-6.1,6.1c-1,1-1,2.6,0,3.7
						l6.1,6.1c1,1,2.7,1,3.7,0l6.1-6.1c1-1,1-2.6,0-3.7l-6.1-6.1C10.4,13.1,8.8,13.1,7.7,14.1z"/>
					<g>
						
							<linearGradient id="SVGID_00000088119631040490071240000016488847900849758083_" gradientUnits="userSpaceOnUse" x1="9.4593" y1="4.6255" x2="9.4593" y2="12.9698">
							<stop  offset="3.779744e-04" style="stop-color:#E94E95"/>
							<stop  offset="0.9992" style="stop-color:#831875"/>
						</linearGradient>
						<path style="fill:url(#SVGID_00000088119631040490071240000016488847900849758083_);" d="M13.6,20.2c-0.1-0.1-0.2-0.1-0.2-0.1
							h-1.3c0.2-0.3,0.3-0.6,0.3-1c0-0.2,0-0.4-0.1-0.6c-0.1-0.2-0.2-0.4-0.4-0.5c-0.2-0.2-0.3-0.3-0.5-0.4
							c-0.2-0.1-0.4-0.1-0.6-0.1c-0.2,0-0.4,0-0.6,0.1c-0.2,0.1-0.4,0.2-0.5,0.3c-0.2,0.2-0.3,0.3-0.3,0.5c0,0,0-0.1-0.1-0.1
							C9.1,18.2,9,18.1,8.8,18c-0.2-0.1-0.3-0.1-0.5-0.1c-0.2,0-0.4,0-0.6,0.1c-0.2,0.1-0.3,0.2-0.5,0.3C7.2,18.5,7,18.7,7,18.8
							c-0.1,0.2-0.1,0.4-0.1,0.6c0,0.2,0,0.4,0.1,0.6c0,0.1,0.1,0.1,0.1,0.2H5.5c0,0-0.1,0-0.1,0c0,0-0.1,0-0.1,0.1
							c0,0-0.1,0.1-0.1,0.1c0,0,0,0.1,0,0.1v1.7H9v-1.3c0.2,0,0.4,0,0.4,0l0,0c0,0,0.1,0,0.1,0c0,0,0,0,0,0v0c0,0,0,0,0,0
							c0,0,0,0,0,0c0,0,0.1,0,0.2,0v1.3h4v-1.7C13.7,20.4,13.7,20.3,13.6,20.2z M10.2,18.4c0.1-0.1,0.2-0.1,0.3-0.2
							c0.1,0,0.2-0.1,0.3,0v0c0.3,0,0.5,0.1,0.7,0.3c0.2,0.2,0.3,0.4,0.3,0.7c0,0.3-0.1,0.5-0.3,0.7c-0.2,0.2-0.4,0.3-0.7,0.3
							c-0.4,0-0.7,0-1,0C9.8,19.6,9.8,18.8,10.2,18.4z M7.8,18.8c0.1-0.1,0.3-0.2,0.5-0.2l0,0c0.1,0,0.2,0,0.3,0
							c0.1,0,0.2,0.1,0.2,0.1c0.3,0.3,0.3,0.9,0.3,1.4c-0.2,0-0.5,0-0.8,0c-0.2,0-0.4-0.1-0.5-0.2c-0.1-0.1-0.2-0.3-0.2-0.5
							C7.6,19.2,7.6,19,7.8,18.8z"/>
						
							<linearGradient id="SVGID_00000131334047034450968740000014623883870684734898_" gradientUnits="userSpaceOnUse" x1="7.4431" y1="4.6255" x2="7.4431" y2="12.9698">
							<stop  offset="3.779744e-04" style="stop-color:#E94E95"/>
							<stop  offset="0.9992" style="stop-color:#831875"/>
						</linearGradient>
						<path style="fill:url(#SVGID_00000131334047034450968740000014623883870684734898_);" d="M5.9,26.6c0,0,0,0.1,0,0.1
							c0,0,0,0.1,0.1,0.1c0,0,0.1,0.1,0.1,0.1c0,0,0.1,0,0.1,0H9l0-4.1H5.9V26.6z"/>
						
							<linearGradient id="SVGID_00000007425625302124554630000015162564777387122835_" gradientUnits="userSpaceOnUse" x1="11.4172" y1="4.6255" x2="11.4172" y2="12.9698">
							<stop  offset="3.779744e-04" style="stop-color:#E94E95"/>
							<stop  offset="0.9992" style="stop-color:#831875"/>
						</linearGradient>
						<path style="fill:url(#SVGID_00000007425625302124554630000015162564777387122835_);" d="M9.8,26.9h2.9c0,0,0.1,0,0.1,0
							c0,0,0.1,0,0.1-0.1c0,0,0.1-0.1,0.1-0.1c0,0,0-0.1,0-0.1v-3.8H9.8V26.9z"/>
					</g>
					<g>
						<path class="st1" d="M13.6,19.4c-0.1-0.1-0.2-0.1-0.2-0.1h-1.3c0.2-0.3,0.3-0.6,0.3-1c0-0.2,0-0.4-0.1-0.6
							c-0.1-0.2-0.2-0.4-0.4-0.5c-0.2-0.2-0.3-0.3-0.5-0.4c-0.2-0.1-0.4-0.1-0.6-0.1c-0.2,0-0.4,0-0.6,0.1C10,16.8,9.8,17,9.7,17.1
							c-0.2,0.2-0.3,0.3-0.3,0.5c0,0,0-0.1-0.1-0.1c-0.1-0.1-0.3-0.2-0.4-0.3c-0.2-0.1-0.3-0.1-0.5-0.1c-0.2,0-0.4,0-0.6,0.1
							c-0.2,0.1-0.3,0.2-0.5,0.3C7.2,17.7,7,17.8,7,18c-0.1,0.2-0.1,0.4-0.1,0.6c0,0.2,0,0.4,0.1,0.6c0,0.1,0.1,0.1,0.1,0.2H5.5
							c0,0-0.1,0-0.1,0s-0.1,0-0.1,0.1c0,0-0.1,0.1-0.1,0.1c0,0,0,0.1,0,0.1v1.7H9V20c0.2,0,0.4,0,0.4,0l0,0c0,0,0.1,0,0.1,0
							c0,0,0,0,0,0v0c0,0,0,0,0,0c0,0,0,0,0,0c0,0,0.1,0,0.2,0v1.3h4v-1.7C13.7,19.6,13.7,19.5,13.6,19.4z M10.2,17.6
							c0.1-0.1,0.2-0.1,0.3-0.2c0.1,0,0.2-0.1,0.3,0v0c0.3,0,0.5,0.1,0.7,0.3c0.2,0.2,0.3,0.4,0.3,0.7c0,0.3-0.1,0.5-0.3,0.7
							c-0.2,0.2-0.4,0.3-0.7,0.3c-0.4,0-0.7,0-1,0C9.8,18.8,9.8,18,10.2,17.6z M7.8,18c0.1-0.1,0.3-0.2,0.5-0.2l0,0
							c0.1,0,0.2,0,0.3,0c0.1,0,0.2,0.1,0.2,0.1c0.3,0.3,0.3,0.9,0.3,1.4c-0.2,0-0.5,0-0.8,0c-0.2,0-0.4-0.1-0.5-0.2
							c-0.1-0.1-0.2-0.3-0.2-0.5C7.6,18.4,7.6,18.2,7.8,18z"/>
						<path class="st1" d="M5.9,25.8c0,0,0,0.1,0,0.1c0,0,0,0.1,0.1,0.1c0,0,0.1,0.1,0.1,0.1c0,0,0.1,0,0.1,0H9L9,22H5.9V25.8z"/>
						<path class="st1" d="M9.8,26.1h2.9c0,0,0.1,0,0.1,0c0,0,0.1,0,0.1-0.1c0,0,0.1-0.1,0.1-0.1c0,0,0-0.1,0-0.1V22H9.8V26.1z"/>
					</g>
				</g>
				<g>
					
						<linearGradient id="SVGID_00000096756798154444992250000007615094241138950577_" gradientUnits="userSpaceOnUse" x1="21.7407" y1="1.5239" x2="21.7407" y2="18.7186">
						<stop  offset="1.889872e-04" style="stop-color:#F49E1B"/>
						<stop  offset="0.9996" style="stop-color:#E97E21"/>
					</linearGradient>
					<path style="fill:url(#SVGID_00000096756798154444992250000007615094241138950577_);" d="M19.9,2.2l-6.1,6.1c-1,1-1,2.6,0,3.7
						l6.1,6.1c1,1,2.7,1,3.7,0l6.1-6.1c1-1,1-2.6,0-3.7l-6.1-6.1C22.6,1.2,20.9,1.2,19.9,2.2z"/>
					<g>
						
							<linearGradient id="SVGID_00000060716081145246170860000003537548502170512806_" gradientUnits="userSpaceOnUse" x1="22.1155" y1="1.5097" x2="22.1155" y2="5.1945">
							<stop  offset="1.889872e-04" style="stop-color:#F49E1B"/>
							<stop  offset="0.9998" style="stop-color:#8F4825"/>
						</linearGradient>
						<path style="fill:url(#SVGID_00000060716081145246170860000003537548502170512806_);" d="M19,12.8l0.1,0.4
							c0,0.2,0.1,0.4,0.1,0.6c-0.1,0.2-0.2,0.4-0.2,0.6c0,0.2,0.1,0.5,0.3,0.7c0.2,0.2,0.4,0.3,0.7,0.3c0.1,0,0.3,0,0.4-0.1
							c0.1-0.1,0.2-0.1,0.3-0.3c0.1-0.1,0.1-0.2,0.2-0.4c0-0.1,0-0.3,0-0.4h2.6c0,0.1,0,0.3,0,0.4c0,0.1,0.1,0.3,0.2,0.4
							c0.1,0.1,0.2,0.2,0.3,0.3c0.1,0.1,0.3,0.1,0.4,0.1c0.3,0,0.5-0.1,0.7-0.3c0.2-0.2,0.3-0.4,0.3-0.7c0-0.1,0-0.3-0.1-0.4
							c0-0.1-0.1-0.2-0.2-0.3c-0.1-0.1-0.2-0.2-0.3-0.2c-0.1,0-0.2-0.1-0.4-0.1H20l-0.1-0.3l5.3-0.4c0.1,0,0.1,0,0.1-0.1
							c0,0,0.1-0.1,0.1-0.1l0.1-0.7h-6.8L19,12.8z"/>
						
							<linearGradient id="SVGID_00000038401237486950656160000006668216622574122170_" gradientUnits="userSpaceOnUse" x1="22.0226" y1="1.5097" x2="22.0226" y2="5.1945">
							<stop  offset="1.889872e-04" style="stop-color:#F49E1B"/>
							<stop  offset="0.9998" style="stop-color:#994C29"/>
						</linearGradient>
						<path style="fill:url(#SVGID_00000038401237486950656160000006668216622574122170_);" d="M18.6,11.3h6.9l0.1-0.5h-7.1
							L18.6,11.3z"/>
						
							<linearGradient id="SVGID_00000138574204483612270790000004097654698931045761_" gradientUnits="userSpaceOnUse" x1="21.2689" y1="1.5097" x2="21.2689" y2="5.1945">
							<stop  offset="1.889872e-04" style="stop-color:#F49E1B"/>
							<stop  offset="0.9998" style="stop-color:#994C29"/>
						</linearGradient>
						<path style="fill:url(#SVGID_00000138574204483612270790000004097654698931045761_);" d="M25.8,8.7
							C25.8,8.6,25.8,8.6,25.8,8.7c0-0.1,0-0.2-0.1-0.2c0,0,0,0-0.1-0.1c0,0-0.1,0-0.1,0h-7.1l-0.3-1c0-0.1-0.1-0.1-0.1-0.2
							c-0.1,0-0.1-0.1-0.2-0.1h-0.8c-0.1,0-0.2,0-0.3,0.1c-0.1,0.1-0.1,0.2-0.1,0.3c0,0.1,0,0.2,0.1,0.3c0.1,0.1,0.2,0.1,0.3,0.1
							h0.5l0.2,0.6L18,9.4h7.7L25.8,8.7z"/>
						
							<linearGradient id="SVGID_00000120526075107180966720000014981247063098337668_" gradientUnits="userSpaceOnUse" x1="21.9532" y1="1.5097" x2="21.9532" y2="5.1945">
							<stop  offset="1.889872e-04" style="stop-color:#F49E1B"/>
							<stop  offset="0.9998" style="stop-color:#994C29"/>
						</linearGradient>
						<path style="fill:url(#SVGID_00000120526075107180966720000014981247063098337668_);" d="M25.7,9.9h-7.5l0.1,0.5h7.3L25.7,9.9
							z"/>
					</g>
					<g>
						<path class="st1" d="M19,12.1l0.1,0.4c0,0.2,0.1,0.4,0.1,0.6c-0.1,0.2-0.2,0.4-0.2,0.6c0,0.2,0.1,0.5,0.3,0.7
							c0.2,0.2,0.4,0.3,0.7,0.3c0.1,0,0.3,0,0.4-0.1c0.1-0.1,0.2-0.1,0.3-0.3c0.1-0.1,0.1-0.2,0.2-0.4c0-0.1,0-0.3,0-0.4h2.6
							c0,0.1,0,0.3,0,0.4c0,0.1,0.1,0.3,0.2,0.4c0.1,0.1,0.2,0.2,0.3,0.3c0.1,0.1,0.3,0.1,0.4,0.1c0.3,0,0.5-0.1,0.7-0.3
							c0.2-0.2,0.3-0.4,0.3-0.7c0-0.1,0-0.3-0.1-0.4c0-0.1-0.1-0.2-0.2-0.3c-0.1-0.1-0.2-0.2-0.3-0.2c-0.1,0-0.2-0.1-0.4-0.1H20
							l-0.1-0.3l5.3-0.4c0.1,0,0.1,0,0.1-0.1c0,0,0.1-0.1,0.1-0.1l0.1-0.7h-6.8L19,12.1z"/>
						<path class="st1" d="M18.6,10.6h6.9l0.1-0.5h-7.1L18.6,10.6z"/>
						<path class="st1" d="M25.8,8C25.8,7.9,25.8,7.9,25.8,8c0-0.1,0-0.2-0.1-0.2c0,0,0,0-0.1-0.1c0,0-0.1,0-0.1,0h-7.1l-0.3-1
							c0-0.1-0.1-0.1-0.1-0.2c-0.1,0-0.1-0.1-0.2-0.1h-0.8c-0.1,0-0.2,0-0.3,0.1c-0.1,0.1-0.1,0.2-0.1,0.3c0,0.1,0,0.2,0.1,0.3
							c0.1,0.1,0.2,0.1,0.3,0.1h0.5l0.2,0.6L18,8.7h7.7L25.8,8z"/>
						<path class="st1" d="M25.7,9.2h-7.5l0.1,0.5h7.3L25.7,9.2z"/>
					</g>
				</g>
				<g>
					
						<linearGradient id="SVGID_00000178174717066447191380000007464251434439005570_" gradientUnits="userSpaceOnUse" x1="21.8929" y1="25.5831" x2="21.8929" y2="42.3392">
						<stop  offset="0" style="stop-color:#2AABE1"/>
						<stop  offset="1" style="stop-color:#007EBA"/>
					</linearGradient>
					<path style="fill:url(#SVGID_00000178174717066447191380000007464251434439005570_);" d="M20.1,26.2L14,32.3c-1,1-1,2.6,0,3.7
						l6.1,6.1c1,1,2.7,1,3.7,0l6.1-6.1c1-1,1-2.6,0-3.7l-6.1-6.1C22.7,25.2,21.1,25.2,20.1,26.2z"/>
					<g>
						
							<linearGradient id="SVGID_00000102536749472243624710000009764233503547378586_" gradientUnits="userSpaceOnUse" x1="22.037" y1="23.1096" x2="22.037" y2="25.7727">
							<stop  offset="0" style="stop-color:#2AABE1"/>
							<stop  offset="1" style="stop-color:#004C8C"/>
						</linearGradient>
						<path style="fill:url(#SVGID_00000102536749472243624710000009764233503547378586_);" d="M27.3,33.7c-0.2-0.5-0.6-0.8-1-1.1
							c-0.4-0.3-0.9-0.4-1.4-0.4h-5.7c-0.5,0-1,0.2-1.4,0.4c-0.4,0.3-0.8,0.7-1,1.1c-0.2,0.5-0.4,1-0.4,1.5c0,0.5,0.1,1.1,0.4,1.5
							c0.2,0.5,0.6,0.8,1,1.1c0.4,0.3,0.9,0.4,1.4,0.4c0.5,0,1-0.2,1.4-0.4c0.4-0.3,0.8-0.6,1-1.1h0.8c0.2,0.4,0.6,0.8,1,1.1
							c0.4,0.3,0.9,0.4,1.4,0.4c0.5,0,1-0.2,1.4-0.4c0.4-0.3,0.8-0.7,1-1.1c0.2-0.5,0.4-1,0.4-1.5C27.7,34.7,27.6,34.1,27.3,33.7z
							 M20.7,35.3c0,0.1,0,0.1-0.1,0.1c0,0-0.1,0.1-0.1,0.1h-0.7v0.7c0,0,0,0.1,0,0.1c0,0,0,0,0,0.1c0,0,0,0-0.1,0c0,0-0.1,0-0.1,0
							h-0.5c0,0-0.1,0-0.1,0c0,0,0,0-0.1,0c0,0-0.1-0.1-0.1-0.2v-0.7h-0.7c-0.1,0-0.1,0-0.1-0.1c0,0-0.1-0.1-0.1-0.1v-0.5
							c0-0.1,0-0.1,0.1-0.1c0,0,0.1-0.1,0.1-0.1h0.7v-0.8c0-0.1,0-0.1,0.1-0.2c0,0,0.1-0.1,0.1-0.1h0.5c0.1,0,0.1,0,0.1,0.1
							c0,0,0.1,0.1,0.1,0.2v0.8h0.7c0,0,0.1,0,0.1,0c0,0,0,0,0.1,0c0,0,0.1,0.1,0.1,0.2L20.7,35.3z M24.1,33.7
							c0-0.1,0.1-0.2,0.1-0.2h0c0.1-0.1,0.1-0.1,0.2-0.1c0.1,0,0.1,0,0.2,0c0.1,0,0.2,0,0.2,0c0.1,0,0.1,0.1,0.2,0.1
							c0.1,0.1,0.1,0.1,0.1,0.2c0,0.1,0,0.2,0,0.3c0,0.1,0,0.2,0,0.3c0,0.1-0.1,0.2-0.1,0.2c-0.1,0.1-0.1,0.1-0.2,0.1
							c-0.1,0-0.1,0-0.2,0c-0.1,0-0.2,0-0.2-0.1c-0.1,0-0.1-0.1-0.2-0.1C24.1,34.3,24,34.2,24,34C24,33.9,24.1,33.8,24.1,33.7z
							 M23.7,35.7c-0.1,0-0.2,0-0.2,0c-0.1,0-0.1-0.1-0.2-0.1h0c-0.1-0.1-0.2-0.3-0.2-0.5c0-0.1,0-0.2,0-0.3c0-0.1,0.1-0.2,0.1-0.2
							c0.1-0.1,0.1-0.1,0.2-0.1c0.1,0,0.1,0,0.2,0c0.1,0,0.2,0,0.2,0c0.1,0,0.1,0.1,0.2,0.1c0.1,0.1,0.2,0.3,0.2,0.5
							c0,0.2-0.1,0.3-0.2,0.5c-0.1,0.1-0.1,0.1-0.2,0.1C23.8,35.7,23.7,35.7,23.7,35.7z M25,36.5c-0.1,0.1-0.1,0.1-0.2,0.1
							c-0.1,0-0.1,0-0.2,0c-0.1,0-0.2,0-0.2,0c-0.1,0-0.1-0.1-0.2-0.1c-0.1-0.1-0.2-0.3-0.2-0.5c0-0.2,0.1-0.3,0.2-0.5
							c0.1-0.1,0.1-0.1,0.2-0.1c0.1,0,0.1,0,0.2-0.1c0.1,0,0.2,0,0.2,0.1c0.1,0,0.1,0.1,0.2,0.1c0.1,0.1,0.2,0.3,0.2,0.5
							C25.2,36.2,25.2,36.4,25,36.5L25,36.5z M26,35.5c-0.1,0.1-0.1,0.1-0.2,0.1c-0.1,0-0.1,0-0.2,0.1c-0.1,0-0.2,0-0.2,0
							c-0.1,0-0.1-0.1-0.2-0.1C25.1,35.4,25,35.2,25,35c0-0.1,0-0.2,0-0.3c0-0.1,0.1-0.2,0.1-0.2c0.1-0.1,0.1-0.1,0.2-0.1
							c0.1,0,0.1,0,0.2,0c0.1,0,0.2,0,0.2,0.1c0.1,0,0.1,0.1,0.2,0.1c0.1,0.1,0.2,0.3,0.2,0.5C26.2,35.2,26.1,35.4,26,35.5L26,35.5z
							"/>
						
							<linearGradient id="SVGID_00000010306282344229803060000002480305420451338383_" gradientUnits="userSpaceOnUse" x1="21.0987" y1="23.1096" x2="21.0987" y2="25.7727">
							<stop  offset="0" style="stop-color:#2AABE1"/>
							<stop  offset="1" style="stop-color:#004C8C"/>
						</linearGradient>
						<path style="fill:url(#SVGID_00000010306282344229803060000002480305420451338383_);" d="M19.4,30.2
							C19.4,30.2,19.4,30.2,19.4,30.2L19.4,30.2c1.1-0.2,2.7-0.4,3,0.1c0.2,0.2,0.1,0.7-0.3,1.3h0.8c0.3-0.7,0.4-1.3,0.1-1.7
							c-0.8-1.1-3.4-0.5-3.7-0.4l0,0c-0.1,0-0.3,0.2-0.3,0.3C19,30.1,19.2,30.2,19.4,30.2z"/>
					</g>
					<g>
						<path class="st1" d="M27.3,32.9c-0.2-0.5-0.6-0.8-1-1.1c-0.4-0.3-0.9-0.4-1.4-0.4h-5.7c-0.5,0-1,0.2-1.4,0.4
							c-0.4,0.3-0.8,0.7-1,1.1c-0.2,0.5-0.4,1-0.4,1.5c0,0.5,0.1,1.1,0.4,1.5c0.2,0.5,0.6,0.8,1,1.1s0.9,0.4,1.4,0.4
							c0.5,0,1-0.2,1.4-0.4c0.4-0.3,0.8-0.6,1-1.1h0.8c0.2,0.4,0.6,0.8,1,1.1c0.4,0.3,0.9,0.4,1.4,0.4c0.5,0,1-0.2,1.4-0.4
							c0.4-0.3,0.8-0.7,1-1.1c0.2-0.5,0.4-1,0.4-1.5C27.7,33.9,27.6,33.4,27.3,32.9z M20.7,34.5c0,0.1,0,0.1-0.1,0.1
							c0,0-0.1,0.1-0.1,0.1h-0.7v0.7c0,0,0,0.1,0,0.1c0,0,0,0,0,0.1c0,0,0,0-0.1,0c0,0-0.1,0-0.1,0h-0.5c0,0-0.1,0-0.1,0
							c0,0,0,0-0.1,0c0,0-0.1-0.1-0.1-0.2v-0.7h-0.7c-0.1,0-0.1,0-0.1-0.1c0,0-0.1-0.1-0.1-0.1V34c0-0.1,0-0.1,0.1-0.1
							c0,0,0.1-0.1,0.1-0.1h0.7V33c0-0.1,0-0.1,0.1-0.2c0,0,0.1-0.1,0.1-0.1h0.5c0.1,0,0.1,0,0.1,0.1c0,0,0.1,0.1,0.1,0.2v0.8h0.7
							c0,0,0.1,0,0.1,0c0,0,0,0,0.1,0c0,0,0.1,0.1,0.1,0.2L20.7,34.5z M24.1,33c0-0.1,0.1-0.2,0.1-0.2h0c0.1-0.1,0.1-0.1,0.2-0.1
							c0.1,0,0.1,0,0.2,0c0.1,0,0.2,0,0.2,0c0.1,0,0.1,0.1,0.2,0.1c0.1,0.1,0.1,0.1,0.1,0.2c0,0.1,0,0.2,0,0.3c0,0.1,0,0.2,0,0.3
							c0,0.1-0.1,0.2-0.1,0.2c-0.1,0.1-0.1,0.1-0.2,0.1c-0.1,0-0.1,0-0.2,0c-0.1,0-0.2,0-0.2-0.1c-0.1,0-0.1-0.1-0.2-0.1
							c-0.1-0.1-0.2-0.3-0.2-0.5C24,33.1,24.1,33.1,24.1,33z M23.7,34.9c-0.1,0-0.2,0-0.2,0c-0.1,0-0.1-0.1-0.2-0.1h0
							c-0.1-0.1-0.2-0.3-0.2-0.5c0-0.1,0-0.2,0-0.3c0-0.1,0.1-0.2,0.1-0.2c0.1-0.1,0.1-0.1,0.2-0.1c0.1,0,0.1,0,0.2,0
							c0.1,0,0.2,0,0.2,0c0.1,0,0.1,0.1,0.2,0.1c0.1,0.1,0.2,0.3,0.2,0.5c0,0.2-0.1,0.3-0.2,0.5c-0.1,0.1-0.1,0.1-0.2,0.1
							C23.8,34.9,23.7,34.9,23.7,34.9z M25,35.8c-0.1,0.1-0.1,0.1-0.2,0.1c-0.1,0-0.1,0-0.2,0c-0.1,0-0.2,0-0.2,0
							c-0.1,0-0.1-0.1-0.2-0.1c-0.1-0.1-0.2-0.3-0.2-0.5c0-0.2,0.1-0.3,0.2-0.5c0.1-0.1,0.1-0.1,0.2-0.1c0.1,0,0.1,0,0.2-0.1
							c0.1,0,0.2,0,0.2,0.1c0.1,0,0.1,0.1,0.2,0.1c0.1,0.1,0.2,0.3,0.2,0.5C25.2,35.5,25.2,35.6,25,35.8L25,35.8z M26,34.7
							c-0.1,0.1-0.1,0.1-0.2,0.1c-0.1,0-0.1,0-0.2,0.1c-0.1,0-0.2,0-0.2,0c-0.1,0-0.1-0.1-0.2-0.1c-0.1-0.1-0.2-0.3-0.2-0.4
							c0-0.1,0-0.2,0-0.3c0-0.1,0.1-0.2,0.1-0.2c0.1-0.1,0.1-0.1,0.2-0.1c0.1,0,0.1,0,0.2,0c0.1,0,0.2,0,0.2,0.1s0.1,0.1,0.2,0.1
							c0.1,0.1,0.2,0.3,0.2,0.5C26.2,34.4,26.1,34.6,26,34.7L26,34.7z"/>
						<path class="st1" d="M19.4,29.5C19.4,29.5,19.4,29.5,19.4,29.5L19.4,29.5c1.1-0.2,2.7-0.4,3,0.1c0.2,0.2,0.1,0.7-0.3,1.3h0.8
							c0.3-0.7,0.4-1.3,0.1-1.7c-0.8-1.1-3.4-0.5-3.7-0.4l0,0c-0.1,0-0.3,0.2-0.3,0.3C19,29.3,19.2,29.5,19.4,29.5z"/>
					</g>
				</g>
			</g>
		</g>
	</g>
</g>
</svg>
