<?xml version="1.0" encoding="utf-8"?>
<!-- Generator: Adobe Illustrator 27.8.1, SVG Export Plug-In . SVG Version: 6.00 Build 0)  -->
<svg version="1.1" id="Calque_1" xmlns="http://www.w3.org/2000/svg" xmlns:xlink="http://www.w3.org/1999/xlink" x="0px" y="0px"
	 viewBox="0 0 64 64" style="enable-background:new 0 0 64 64;" xml:space="preserve">
<style type="text/css">
	.st0{fill:#16132A;}
	.st1{fill:url(#SVGID_1_);}
	.st2{fill:url(#SVGID_00000029034920616475439510000006135885633114710956_);}
	.st3{fill:url(#SVGID_00000146493761471131002970000006544394187983277464_);}
	.st4{fill:url(#SVGID_00000016057788884193506810000008166176195147298206_);}
	.st5{fill:url(#SVGID_00000008128743042721304870000001199033184769357234_);}
	.st6{fill:url(#SVGID_00000034066842520810865080000005488188656889224340_);}
	.st7{fill:url(#SVGID_00000079463827862518797180000002619964532225294214_);}
	.st8{fill:url(#SVGID_00000117657901975272658340000002179763533248572601_);}
</style>
<g>
	<g>
		<path class="st0" d="M47,21.9l-9,8.9c-1.5,1.5-1.5,3.9,0,5.4l9,8.9c1.5,1.5,3.9,1.5,5.4,0l9-8.9c1.5-1.5,1.5-3.9,0-5.4l-9-8.9
			C50.9,20.5,48.5,20.5,47,21.9z"/>
		<path class="st0" d="M11.2,21.7l-9,8.9c-1.5,1.5-1.5,3.9,0,5.4l9,8.9c1.5,1.5,3.9,1.5,5.4,0l9-8.9c1.5-1.5,1.5-3.9,0-5.4l-9-8.9
			C15.2,20.3,12.7,20.3,11.2,21.7z"/>
		<path class="st0" d="M29.1,4.2l-9,8.9c-1.5,1.5-1.5,3.9,0,5.4l9,8.9c1.5,1.5,3.9,1.5,5.4,0l9-8.9c1.5-1.5,1.5-3.9,0-5.4l-9-8.9
			C33,2.7,30.6,2.7,29.1,4.2z"/>
		<path class="st0" d="M29.4,39.5l-9,8.9c-1.5,1.5-1.5,3.9,0,5.4l9,8.9c1.5,1.5,3.9,1.5,5.4,0l9-8.9c1.5-1.5,1.5-3.9,0-5.4l-9-8.9
			C33.3,38,30.8,38,29.4,39.5z"/>
	</g>
	<g>
		<linearGradient id="SVGID_1_" gradientUnits="userSpaceOnUse" x1="49.6818" y1="42.0347" x2="49.6818" y2="46.3547">
			<stop  offset="0" style="stop-color:#AED080"/>
			<stop  offset="1" style="stop-color:#00964E"/>
		</linearGradient>
		<path class="st1" d="M47,19.2l-9,8.9c-1.5,1.5-1.5,3.9,0,5.4l9,8.9c1.5,1.5,3.9,1.5,5.4,0l9-8.9c1.5-1.5,1.5-3.9,0-5.4l-9-8.9
			C50.9,17.7,48.5,17.7,47,19.2z"/>
		
			<linearGradient id="SVGID_00000056390437212384254630000017130931162736663230_" gradientUnits="userSpaceOnUse" x1="13.9457" y1="42.8832" x2="13.9457" y2="55.612">
			<stop  offset="3.779744e-04" style="stop-color:#F08CB9"/>
			<stop  offset="0.9996" style="stop-color:#D22C88"/>
		</linearGradient>
		<path style="fill:url(#SVGID_00000056390437212384254630000017130931162736663230_);" d="M11.2,19l-9,8.9c-1.5,1.5-1.5,3.9,0,5.4
			l9,8.9c1.5,1.5,3.9,1.5,5.4,0l9-8.9c1.5-1.5,1.5-3.9,0-5.4l-9-8.9C15.2,17.5,12.7,17.5,11.2,19z"/>
		
			<linearGradient id="SVGID_00000178924017413101115690000001186069972767700665_" gradientUnits="userSpaceOnUse" x1="31.8341" y1="26.044" x2="31.8341" y2="33.4848">
			<stop  offset="1.889872e-04" style="stop-color:#FBC476"/>
			<stop  offset="0.9996" style="stop-color:#EA7F22"/>
		</linearGradient>
		<path style="fill:url(#SVGID_00000178924017413101115690000001186069972767700665_);" d="M29.1,1.4l-9,8.9c-1.5,1.5-1.5,3.9,0,5.4
			l9,8.9c1.5,1.5,3.9,1.5,5.4,0l9-8.9c1.5-1.5,1.5-3.9,0-5.4l-9-8.9C33,0,30.6,0,29.1,1.4z"/>
		
			<linearGradient id="SVGID_00000087391840102209860580000016944848015891078589_" gradientUnits="userSpaceOnUse" x1="32.0579" y1="59.8529" x2="32.0579" y2="68.8684">
			<stop  offset="0" style="stop-color:#8DD3F6"/>
			<stop  offset="1" style="stop-color:#007EBB"/>
		</linearGradient>
		<path style="fill:url(#SVGID_00000087391840102209860580000016944848015891078589_);" d="M29.4,36.8l-9,8.9
			c-1.5,1.5-1.5,3.9,0,5.4l9,8.9c1.5,1.5,3.9,1.5,5.4,0l9-8.9c1.5-1.5,1.5-3.9,0-5.4l-9-8.9C33.3,35.3,30.8,35.3,29.4,36.8z"/>
	</g>
	<g>
		<g>
			<g>
				
					<linearGradient id="SVGID_00000078766024655980139010000015180024335453606277_" gradientUnits="userSpaceOnUse" x1="49.5733" y1="18.9367" x2="49.5733" y2="44.4213">
					<stop  offset="0" style="stop-color:#76B947"/>
					<stop  offset="1" style="stop-color:#00964E"/>
				</linearGradient>
				<path style="fill:url(#SVGID_00000078766024655980139010000015180024335453606277_);" d="M46.9,20l-9,8.9
					c-1.5,1.5-1.5,3.9,0,5.4l9,8.9c1.5,1.5,3.9,1.5,5.4,0l9-8.9c1.5-1.5,1.5-3.9,0-5.4l-9-8.9C50.8,18.5,48.4,18.5,46.9,20z"/>
			</g>
			<g>
				
					<linearGradient id="SVGID_00000053547523762079237440000010643058485842405253_" gradientUnits="userSpaceOnUse" x1="13.8372" y1="18.7426" x2="13.8372" y2="44.0283">
					<stop  offset="3.779744e-04" style="stop-color:#EA4F96"/>
					<stop  offset="0.9996" style="stop-color:#D22C88"/>
				</linearGradient>
				<path style="fill:url(#SVGID_00000053547523762079237440000010643058485842405253_);" d="M11.1,19.8l-9,8.9
					c-1.5,1.5-1.5,3.9,0,5.4l9,8.9c1.5,1.5,3.9,1.5,5.4,0l9-8.9c1.5-1.5,1.5-3.9,0-5.4l-9-8.9C15,18.3,12.6,18.3,11.1,19.8z"/>
			</g>
			<g>
				
					<linearGradient id="SVGID_00000042735399237965795540000006950850434337365376_" gradientUnits="userSpaceOnUse" x1="31.7256" y1="1.263" x2="31.7256" y2="26.5487">
					<stop  offset="1.889872e-04" style="stop-color:#F59E1C"/>
					<stop  offset="0.9996" style="stop-color:#EA7F22"/>
				</linearGradient>
				<path style="fill:url(#SVGID_00000042735399237965795540000006950850434337365376_);" d="M29,2.2l-9,8.9c-1.5,1.5-1.5,3.9,0,5.4
					l9,8.9c1.5,1.5,3.9,1.5,5.4,0l9-8.9c1.5-1.5,1.5-3.9,0-5.4l-9-8.9C32.9,0.7,30.5,0.7,29,2.2z"/>
			</g>
			<g>
				
					<linearGradient id="SVGID_00000101803547364126169730000004893218684456752264_" gradientUnits="userSpaceOnUse" x1="31.9494" y1="36.6434" x2="31.9494" y2="61.2842">
					<stop  offset="0" style="stop-color:#2CACE2"/>
					<stop  offset="1" style="stop-color:#007EBB"/>
				</linearGradient>
				<path style="fill:url(#SVGID_00000101803547364126169730000004893218684456752264_);" d="M29.3,37.5l-9,8.9
					c-1.5,1.5-1.5,3.9,0,5.4l9,8.9c1.5,1.5,3.9,1.5,5.4,0l9-8.9c1.5-1.5,1.5-3.9,0-5.4l-9-8.9C33.2,36,30.7,36,29.3,37.5z"/>
			</g>
		</g>
	</g>
</g>
</svg>
