<?xml version="1.0" encoding="utf-8"?>
<!-- Generator: Adobe Illustrator 27.8.1, SVG Export Plug-In . SVG Version: 6.00 Build 0)  -->
<svg version="1.1" id="Calque_1" xmlns="http://www.w3.org/2000/svg" xmlns:xlink="http://www.w3.org/1999/xlink" x="0px" y="0px"
	 viewBox="0 0 162.3 44.8" style="enable-background:new 0 0 162.3 44.8;" xml:space="preserve">
<style type="text/css">
	.st0{fill:#16132A;}
	.st1{fill:#FFFFFF;}
	.st2{fill:url(#SVGID_1_);}
	.st3{fill:url(#SVGID_00000042018339444279135090000007025424442783974840_);}
	.st4{fill:url(#SVGID_00000092433981862681914150000006578916407074161343_);}
	.st5{fill:url(#SVGID_00000124136544563620392420000001174050782046997156_);}
	.st6{opacity:0;}
	.st7{fill:url(#SVGID_00000137096365844523512300000016666820310026713740_);}
	.st8{fill:url(#SVGID_00000137817183106910781470000002824127578808624050_);}
	.st9{fill:url(#SVGID_00000011031648711666255670000017272604194568430004_);}
	.st10{fill:url(#SVGID_00000120539759118414131920000016029535897074242232_);}
	.st11{fill:url(#SVGID_00000011025648971237670010000002812745456061952646_);}
	.st12{fill:url(#SVGID_00000087385149841333220660000012589218491636153516_);}
	.st13{fill:url(#SVGID_00000162323625529396874490000005094354514716877977_);}
	.st14{fill:url(#SVGID_00000032618401922611700300000017890233536062445712_);}
	.st15{fill:url(#SVGID_00000119829111906953367740000012506079086009946277_);}
	.st16{fill:url(#SVGID_00000109022760824411384150000002060788067794799760_);}
	.st17{fill:url(#SVGID_00000013900315461769081210000001791525903111605387_);}
	.st18{fill:url(#SVGID_00000181809223061817038370000013575476823258541965_);}
	.st19{fill:url(#SVGID_00000064312152965209037180000003028515256290226306_);}
	.st20{fill:url(#SVGID_00000143586357469475110920000014210095963679474108_);}
	.st21{fill:url(#SVGID_00000002360547676501761650000011166839212685629368_);}
	.st22{fill:url(#SVGID_00000096758032720764215300000011865040641130542766_);}
	.st23{fill:url(#SVGID_00000090270350376277086320000011292448298197089976_);}
</style>
<g>
	<g>
		<path class="st0" d="M149.5,30c0,1.8-1.4,3.2-3.2,3.2c-1.8,0-3.2-1.4-3.2-3.2v-1.2h6.4V30z"/>
		<g>
			<circle class="st1" cx="146.3" cy="28.6" r="3.2"/>
			<g>
				<g>
					<path class="st1" d="M160.8,32.4c0-0.3-0.1-0.5-0.3-0.7l-11.9-21.4c-0.3-0.5-0.6-0.9-1.1-1.2c-0.4-0.3-0.9-0.4-1.4-0.4
						c-0.5,0-0.9,0.1-1.4,0.4c-0.4,0.3-0.8,0.7-1.1,1.2l-11.3,20.3h-8.8c-1.4,0-5.6,0-5.6-2.7V11c0-1.3-0.8-2.1-2.2-2.1
						c-1.4,0-2.1,0.8-2.1,2.1v16.9c0,4.6,3.4,6.9,10.1,6.9h10h0l0,0c0,0,0.1,0,0.1,0c0.2,0,0.4,0,0.6-0.1c0,0,0.1,0,0.1,0l0,0
						c0.1,0,0.1-0.1,0.2-0.1c0.3-0.2,0.6-0.4,0.8-0.8l3.4-6.1l1.6-3l5.7-10.7l5.6,10.6l1.7,3l3.6,6.4l0,0l0,0
						c0.2,0.3,0.5,0.6,0.8,0.8c0.3,0.2,0.6,0.3,0.9,0.3c0.6,0,1.1-0.2,1.5-0.6c0.4-0.4,0.6-0.9,0.6-1.6
						C160.8,32.8,160.8,32.6,160.8,32.4z"/>
					<path class="st1" d="M70.2,8.9H55.9c-1,0-1.6,0.7-1.6,1.8v22c0,1.1,0.6,1.8,1.6,1.8H72c4.4,0,7.9-3.6,7.9-8.2V18
						C79.9,13.5,76.9,8.9,70.2,8.9z M58.6,13h11.6c3.1,0,5.5,2.5,5.5,5.6v5.9c0,3.3-2.5,5.9-5.6,5.9H58.6V13z"/>
					<path class="st1" d="M99.8,19.3h-6.2c-3.8,0-3.8-1.5-3.8-2v-1.8c0-1.7,0.9-2.5,2.9-2.5H98c0.5,0,1.7-0.2,1.7-2
						c0-1.9-1.2-2.1-1.7-2.1h-4.9c-3.5,0-7.6,1.1-7.6,6.4v2.4c0,3.8,2.9,5.8,8.6,5.8h6.1c3.9,0,4.4,1.5,4.4,2.6v2.1
						c0,1-0.4,2.3-3.5,2.3H87c-0.5,0-1.7,0.2-1.7,2c0,1.9,1.2,2.1,1.7,2.1h13.5c3.7,0,8.2-1.1,8.2-6.3v-2.6
						C108.8,21.5,105.7,19.3,99.8,19.3z"/>
				</g>
			</g>
		</g>
		<g>
			<g>
				<path class="st0" d="M160.8,34.2c0-0.3-0.1-0.5-0.3-0.7L148.5,12c-0.3-0.5-0.6-0.9-1.1-1.2c-0.4-0.3-0.9-0.4-1.4-0.4
					c-0.5,0-0.9,0.1-1.4,0.4c-0.4,0.3-0.8,0.7-1.1,1.2l-11.3,20.3h-8.8c-1.4,0-5.6,0-5.6-2.7V12.8c0-1.3-0.8-2.1-2.2-2.1
					c-1.4,0-2.1,0.8-2.1,2.1v16.9c0,4.6,3.4,6.9,10.1,6.9h10h0l0,0c0,0,0.1,0,0.1,0c0.2,0,0.4,0,0.6-0.1c0,0,0.1,0,0.1,0l0,0
					c0.1,0,0.1-0.1,0.2-0.1c0.3-0.2,0.6-0.4,0.8-0.8l3.4-6.1l1.6-3l5.7-10.7l5.6,10.6l1.7,3l3.6,6.4l0,0l0,0
					c0.2,0.3,0.5,0.6,0.8,0.8c0.3,0.2,0.6,0.3,0.9,0.3c0.6,0,1.1-0.2,1.5-0.6c0.4-0.4,0.6-0.9,0.6-1.6
					C160.8,34.5,160.8,34.4,160.8,34.2z"/>
				<path class="st0" d="M70.2,10.6H55.9c-1,0-1.6,0.7-1.6,1.8v22c0,1.1,0.6,1.8,1.6,1.8H72c4.4,0,7.9-3.6,7.9-8.2v-8.3
					C79.9,15.2,76.9,10.6,70.2,10.6z M58.6,14.8h11.6c3.1,0,5.5,2.5,5.5,5.6v5.9c0,3.3-2.5,5.9-5.6,5.9H58.6V14.8z"/>
				<path class="st0" d="M99.8,21.1h-6.2c-3.8,0-3.8-1.5-3.8-2v-1.8c0-1.7,0.9-2.5,2.9-2.5H98c0.5,0,1.7-0.2,1.7-2
					c0-1.9-1.2-2.1-1.7-2.1h-4.9c-3.5,0-7.6,1.1-7.6,6.4v2.4c0,3.8,2.9,5.8,8.6,5.8h6.1c3.9,0,4.4,1.5,4.4,2.6v2.1
					c0,1-0.4,2.3-3.5,2.3H87c-0.5,0-1.7,0.2-1.7,2c0,1.9,1.2,2.1,1.7,2.1h13.5c3.7,0,8.2-1.1,8.2-6.3v-2.6
					C108.8,23.2,105.7,21.1,99.8,21.1z"/>
			</g>
		</g>
		<g>
			<g>
				<linearGradient id="SVGID_1_" gradientUnits="userSpaceOnUse" x1="137.1899" y1="9.183" x2="137.1899" y2="35.0309">
					<stop  offset="0" style="stop-color:#FFFFFF"/>
					<stop  offset="1" style="stop-color:#DBDBE9"/>
				</linearGradient>
				<path class="st2" d="M160.8,32.7c0-0.3-0.1-0.5-0.3-0.7l-11.9-21.4c-0.3-0.5-0.6-0.9-1.1-1.2C147,9.1,146.5,9,146.1,9
					c-0.5,0-0.9,0.1-1.4,0.4c-0.4,0.3-0.8,0.7-1.1,1.2l-11.3,20.3h-8.8c-1.4,0-5.6,0-5.6-2.7V11.4c0-1.3-0.8-2.1-2.2-2.1
					c-1.4,0-2.1,0.8-2.1,2.1v16.9c0,4.6,3.4,6.9,10.1,6.9h10h0l0,0c0,0,0.1,0,0.1,0c0.2,0,0.4,0,0.6-0.1c0,0,0.1,0,0.1,0l0,0
					c0.1,0,0.1-0.1,0.2-0.1c0.3-0.2,0.6-0.4,0.8-0.8l3.4-6.1l1.6-3l5.7-10.7l5.6,10.6l1.7,3l3.6,6.4l0,0l0,0
					c0.2,0.3,0.5,0.6,0.8,0.8c0.3,0.2,0.6,0.3,0.9,0.3c0.6,0,1.1-0.2,1.5-0.6c0.4-0.4,0.6-0.9,0.6-1.6
					C160.8,33.1,160.8,33,160.8,32.7z"/>
				
					<linearGradient id="SVGID_00000013163874998410496410000004177975136603682980_" gradientUnits="userSpaceOnUse" x1="67.0934" y1="9.1803" x2="67.0934" y2="34.6472">
					<stop  offset="0" style="stop-color:#FFFFFF"/>
					<stop  offset="1" style="stop-color:#DBDBE9"/>
				</linearGradient>
				<path style="fill:url(#SVGID_00000013163874998410496410000004177975136603682980_);" d="M70.2,9.2H55.9c-1,0-1.6,0.7-1.6,1.8
					v22c0,1.1,0.6,1.8,1.6,1.8H72c4.4,0,7.9-3.6,7.9-8.2v-8.3C79.9,13.8,76.9,9.2,70.2,9.2z M58.6,13.4h11.6c3.1,0,5.5,2.5,5.5,5.6
					v5.9c0,3.3-2.5,5.9-5.6,5.9H58.6V13.4z"/>
				
					<linearGradient id="SVGID_00000029045894490957934760000010092683111936030352_" gradientUnits="userSpaceOnUse" x1="97.0433" y1="9.1803" x2="97.0433" y2="34.6472">
					<stop  offset="0" style="stop-color:#FFFFFF"/>
					<stop  offset="1" style="stop-color:#DBDBE9"/>
				</linearGradient>
				<path style="fill:url(#SVGID_00000029045894490957934760000010092683111936030352_);" d="M99.8,19.7h-6.2c-3.8,0-3.8-1.5-3.8-2
					v-1.8c0-1.7,0.9-2.5,2.9-2.5H98c0.5,0,1.7-0.2,1.7-2c0-1.9-1.2-2.1-1.7-2.1h-4.9c-3.5,0-7.6,1.1-7.6,6.4v2.4
					c0,3.8,2.9,5.8,8.6,5.8h6.1c3.9,0,4.4,1.5,4.4,2.6v2.1c0,1-0.4,2.3-3.5,2.3H87c-0.5,0-1.7,0.2-1.7,2c0,1.9,1.2,2.1,1.7,2.1h13.5
					c3.7,0,8.2-1.1,8.2-6.3V26C108.8,21.8,105.7,19.7,99.8,19.7z"/>
			</g>
		</g>
		
			<linearGradient id="SVGID_00000148632506236337786500000006826451650052486057_" gradientUnits="userSpaceOnUse" x1="146.2797" y1="8.7875" x2="146.2797" y2="35.0641">
			<stop  offset="0" style="stop-color:#FFFFFF"/>
			<stop  offset="1" style="stop-color:#DBDBE9"/>
		</linearGradient>
		<circle style="fill:url(#SVGID_00000148632506236337786500000006826451650052486057_);" cx="146.3" cy="28.9" r="3.2"/>
		<g class="st6">
			
				<linearGradient id="SVGID_00000041981933905426938700000006331997202239107202_" gradientUnits="userSpaceOnUse" x1="155.0312" y1="34.8392" x2="155.0312" y2="30.7143">
				<stop  offset="1.889029e-04" style="stop-color:#B8BACC;stop-opacity:0"/>
				<stop  offset="1" style="stop-color:#B8BACD"/>
			</linearGradient>
			<path style="fill:url(#SVGID_00000041981933905426938700000006331997202239107202_);" d="M151.7,24.9l1.7,3l3.6,6.4l0,0l0,0
				c0.2,0.3,0.5,0.6,0.8,0.8c0.3,0.2,0.6,0.3,0.9,0.3c0.6,0,1.1-0.2,1.5-0.6c0.4-0.4,0.6-0.9,0.6-1.6c0-0.2,0-0.3-0.1-0.5
				c0-0.3-0.1-0.5-0.3-0.7l-6.5-11.7c-1.5,0-3.1,0-4.6,0.1L151.7,24.9z"/>
			
				<linearGradient id="SVGID_00000017503358767043438260000015152608859075503801_" gradientUnits="userSpaceOnUse" x1="128.1477" y1="34.8392" x2="128.1477" y2="30.7143">
				<stop  offset="1.889029e-04" style="stop-color:#B8BACC;stop-opacity:0"/>
				<stop  offset="1" style="stop-color:#B8BACD"/>
			</linearGradient>
			<path style="fill:url(#SVGID_00000017503358767043438260000015152608859075503801_);" d="M123.6,35h10h0l0,0c0,0,0.1,0,0.1,0
				c0.2,0,0.4,0,0.6-0.1c0,0,0.1,0,0.1,0l0,0c0.1,0,0.1-0.1,0.2-0.1c0.3-0.2,0.6-0.4,0.8-0.8l3.4-6.1l1.6-3l2.3-4.4
				c-1.7,0.1-3.3,0.2-4.9,0.3l-5.6,10.1h-8.8c-1.4,0-5.6,0-5.6-2.7v-5.6c-1.7,0.2-3.1,0.4-4.3,0.5v5.1C113.6,32.7,116.9,35,123.6,35
				z"/>
			
				<linearGradient id="SVGID_00000086690657702140010900000006512328645882983575_" gradientUnits="userSpaceOnUse" x1="67.0816" y1="34.8392" x2="67.0816" y2="30.7143">
				<stop  offset="1.889029e-04" style="stop-color:#B8BACC;stop-opacity:0"/>
				<stop  offset="1" style="stop-color:#B8BACD"/>
			</linearGradient>
			<path style="fill:url(#SVGID_00000086690657702140010900000006512328645882983575_);" d="M55.9,34.9H72c4.4,0,7.9-3.6,7.9-8.2
				v-0.8c-1.5,0-2.9,0-4.3,0c-0.5,2.8-2.7,4.9-5.5,4.9H58.6v-6.5c-1.6-0.3-3-0.7-4.3-1.1V33C54.3,34.2,54.9,34.9,55.9,34.9z"/>
			
				<linearGradient id="SVGID_00000095337446231833350760000006528624342950399136_" gradientUnits="userSpaceOnUse" x1="97.0315" y1="34.8392" x2="97.0315" y2="30.7143">
				<stop  offset="1.889029e-04" style="stop-color:#B8BACC;stop-opacity:0"/>
				<stop  offset="1" style="stop-color:#B8BACD"/>
			</linearGradient>
			<path style="fill:url(#SVGID_00000095337446231833350760000006528624342950399136_);" d="M104.5,26.4v2.1c0,1-0.4,2.3-3.5,2.3H87
				c-0.5,0-1.7,0.2-1.7,2c0,1.9,1.2,2.1,1.7,2.1h13.5c3.7,0,8.2-1.1,8.2-6.3V26c0-0.8-0.1-1.6-0.4-2.3c-1.8,0.2-3.5,0.4-5.2,0.6
				C104.3,24.9,104.5,25.7,104.5,26.4z"/>
			
				<linearGradient id="SVGID_00000181797359992866517430000004916976508973761168_" gradientUnits="userSpaceOnUse" x1="146.2679" y1="34.8392" x2="146.2679" y2="30.7143">
				<stop  offset="1.889029e-04" style="stop-color:#B8BACC;stop-opacity:0"/>
				<stop  offset="1" style="stop-color:#B8BACD"/>
			</linearGradient>
			<path style="fill:url(#SVGID_00000181797359992866517430000004916976508973761168_);" d="M146.3,25.7c-1.8,0-3.2,1.4-3.2,3.2
				c0,1.8,1.4,3.2,3.2,3.2c1.8,0,3.2-1.4,3.2-3.2C149.4,27.2,148,25.7,146.3,25.7z"/>
		</g>
		<g>
			
				<linearGradient id="SVGID_00000099619879996533654040000014522603785797946011_" gradientUnits="userSpaceOnUse" x1="145.8813" y1="24.4185" x2="145.8813" y2="6.8734">
				<stop  offset="0" style="stop-color:#FFFFFF"/>
				<stop  offset="1" style="stop-color:#DBDBE9"/>
			</linearGradient>
			<path style="fill:url(#SVGID_00000099619879996533654040000014522603785797946011_);" d="M148.5,10.6c-0.3-0.5-0.6-0.9-1.1-1.2
				C147,9.1,146.5,9,146.1,9c-0.5,0-0.9,0.1-1.4,0.4c-0.4,0.3-0.8,0.7-1.1,1.2l-5.7,10.3c1.6-0.1,3.2-0.2,4.9-0.3l3.4-6.3l3.2,6
				c1.6,0,3.1-0.1,4.6-0.1L148.5,10.6z"/>
			
				<linearGradient id="SVGID_00000049903246708888934070000013585615416504655764_" gradientUnits="userSpaceOnUse" x1="115.6941" y1="24.4185" x2="115.6941" y2="6.8734">
				<stop  offset="0" style="stop-color:#FFFFFF"/>
				<stop  offset="1" style="stop-color:#DBDBE9"/>
			</linearGradient>
			<path style="fill:url(#SVGID_00000049903246708888934070000013585615416504655764_);" d="M115.7,9.2c-1.4,0-2.1,0.8-2.1,2.1v11.8
				c1.2-0.1,2.6-0.3,4.3-0.5V11.3C117.8,10,117.1,9.2,115.7,9.2z"/>
			
				<linearGradient id="SVGID_00000173865187769437399950000005233723908701338264_" gradientUnits="userSpaceOnUse" x1="67.0834" y1="24.4185" x2="67.0834" y2="6.8734">
				<stop  offset="0" style="stop-color:#FFFFFF"/>
				<stop  offset="1" style="stop-color:#DBDBE9"/>
			</linearGradient>
			<path style="fill:url(#SVGID_00000173865187769437399950000005233723908701338264_);" d="M70.2,9.2H55.9c-1,0-1.6,0.7-1.6,1.8
				v12.1c1.3,0.4,2.7,0.8,4.3,1.1V13.3h11.6c3.1,0,5.5,2.5,5.5,5.6v5.9c0,0.4,0,0.7-0.1,1c1.4,0,2.8,0,4.3,0v-7.5
				C79.9,13.8,76.9,9.2,70.2,9.2z"/>
			
				<linearGradient id="SVGID_00000067930783430736366950000018408900346424370318_" gradientUnits="userSpaceOnUse" x1="96.9229" y1="24.4185" x2="96.9229" y2="6.8734">
				<stop  offset="0" style="stop-color:#FFFFFF"/>
				<stop  offset="1" style="stop-color:#DBDBE9"/>
			</linearGradient>
			<path style="fill:url(#SVGID_00000067930783430736366950000018408900346424370318_);" d="M99.8,19.7h-6.2c-3.8,0-3.8-1.5-3.8-2
				v-1.8c0-1.7,0.9-2.5,2.9-2.5H98c0.5,0,1.7-0.2,1.7-2c0-1.9-1.2-2.1-1.7-2.1H93c-3.5,0-7.6,1.1-7.6,6.4V18c0,3.8,2.9,5.8,8.6,5.8
				h6.1c1.5,0,2.5,0.2,3.1,0.5c1.7-0.2,3.4-0.4,5.2-0.6C107.4,21,104.5,19.7,99.8,19.7z"/>
		</g>
	</g>
	<g>
		<g>
			<path class="st0" d="M32.1,15.5L26,21.6c-1,1-1,2.6,0,3.7l6.1,6.1c1,1,2.7,1,3.7,0l6.1-6.1c1-1,1-2.6,0-3.7l-6.1-6.1
				C34.8,14.5,33.2,14.5,32.1,15.5z"/>
			<path class="st0" d="M7.8,15.3l-6.1,6.1c-1,1-1,2.6,0,3.7l6.1,6.1c1,1,2.7,1,3.7,0l6.1-6.1c1-1,1-2.6,0-3.7l-6.1-6.1
				C10.5,14.3,8.9,14.3,7.8,15.3z"/>
			<path class="st0" d="M20,3.4l-6.1,6.1c-1,1-1,2.6,0,3.7l6.1,6.1c1,1,2.7,1,3.7,0l6.1-6.1c1-1,1-2.6,0-3.7l-6.1-6.1
				C22.7,2.4,21,2.4,20,3.4z"/>
			<path class="st0" d="M20.2,27.4l-6.1,6.1c-1,1-1,2.6,0,3.7l6.1,6.1c1,1,2.7,1,3.7,0l6.1-6.1c1-1,1-2.6,0-3.7l-6.1-6.1
				C22.8,26.4,21.2,26.4,20.2,27.4z"/>
		</g>
		<g>
			
				<linearGradient id="SVGID_00000134972168146717917620000001593536362294079380_" gradientUnits="userSpaceOnUse" x1="33.9822" y1="29.1433" x2="33.9822" y2="32.081">
				<stop  offset="0" style="stop-color:#AED080"/>
				<stop  offset="1" style="stop-color:#00964E"/>
			</linearGradient>
			<path style="fill:url(#SVGID_00000134972168146717917620000001593536362294079380_);" d="M32.1,13.6L26,19.7c-1,1-1,2.6,0,3.7
				l6.1,6.1c1,1,2.7,1,3.7,0l6.1-6.1c1-1,1-2.6,0-3.7l-6.1-6.1C34.8,12.6,33.2,12.6,32.1,13.6z"/>
			
				<linearGradient id="SVGID_00000137104938607466468920000006881859471355656353_" gradientUnits="userSpaceOnUse" x1="9.6811" y1="29.7203" x2="9.6811" y2="38.3761">
				<stop  offset="3.779744e-04" style="stop-color:#F08CB9"/>
				<stop  offset="0.9996" style="stop-color:#D22C88"/>
			</linearGradient>
			<path style="fill:url(#SVGID_00000137104938607466468920000006881859471355656353_);" d="M7.8,13.5l-6.1,6.1c-1,1-1,2.6,0,3.7
				l6.1,6.1c1,1,2.7,1,3.7,0l6.1-6.1c1-1,1-2.6,0-3.7l-6.1-6.1C10.5,12.5,8.9,12.5,7.8,13.5z"/>
			
				<linearGradient id="SVGID_00000046315632968790930700000009872088431705896883_" gradientUnits="userSpaceOnUse" x1="21.8455" y1="18.2694" x2="21.8455" y2="23.3293">
				<stop  offset="1.889872e-04" style="stop-color:#FBC476"/>
				<stop  offset="0.9996" style="stop-color:#EA7F22"/>
			</linearGradient>
			<path style="fill:url(#SVGID_00000046315632968790930700000009872088431705896883_);" d="M20,1.5l-6.1,6.1c-1,1-1,2.6,0,3.7
				l6.1,6.1c1,1,2.7,1,3.7,0l6.1-6.1c1-1,1-2.6,0-3.7l-6.1-6.1C22.7,0.5,21,0.5,20,1.5z"/>
			
				<linearGradient id="SVGID_00000065036109861907153770000006927605210193759646_" gradientUnits="userSpaceOnUse" x1="21.9977" y1="41.26" x2="21.9977" y2="47.3907">
				<stop  offset="0" style="stop-color:#8DD3F6"/>
				<stop  offset="1" style="stop-color:#007EBB"/>
			</linearGradient>
			<path style="fill:url(#SVGID_00000065036109861907153770000006927605210193759646_);" d="M20.2,25.6l-6.1,6.1c-1,1-1,2.6,0,3.7
				l6.1,6.1c1,1,2.7,1,3.7,0l6.1-6.1c1-1,1-2.6,0-3.7l-6.1-6.1C22.8,24.5,21.2,24.5,20.2,25.6z"/>
		</g>
		<g>
			<g>
				<g>
					
						<linearGradient id="SVGID_00000022541574850485291950000015076419181937373840_" gradientUnits="userSpaceOnUse" x1="33.9084" y1="13.4363" x2="33.9084" y2="30.7662">
						<stop  offset="0" style="stop-color:#76B947"/>
						<stop  offset="1" style="stop-color:#00964E"/>
					</linearGradient>
					<path style="fill:url(#SVGID_00000022541574850485291950000015076419181937373840_);" d="M32.1,14.1L26,20.2c-1,1-1,2.6,0,3.7
						l6.1,6.1c1,1,2.7,1,3.7,0l6.1-6.1c1-1,1-2.6,0-3.7l-6.1-6.1C34.7,13.1,33.1,13.1,32.1,14.1z"/>
				</g>
				<g>
					
						<linearGradient id="SVGID_00000044894791081058088030000013316296586623185805_" gradientUnits="userSpaceOnUse" x1="9.6073" y1="13.3044" x2="9.6073" y2="30.4991">
						<stop  offset="3.779744e-04" style="stop-color:#EA4F96"/>
						<stop  offset="0.9996" style="stop-color:#D22C88"/>
					</linearGradient>
					<path style="fill:url(#SVGID_00000044894791081058088030000013316296586623185805_);" d="M7.8,14l-6.1,6.1c-1,1-1,2.6,0,3.7
						l6.1,6.1c1,1,2.7,1,3.7,0l6.1-6.1c1-1,1-2.6,0-3.7L11.4,14C10.4,13,8.8,13,7.8,14z"/>
				</g>
				<g>
					
						<linearGradient id="SVGID_00000180354940782643252110000003600544645719378879_" gradientUnits="userSpaceOnUse" x1="21.7717" y1="1.418" x2="21.7717" y2="18.6127">
						<stop  offset="1.889872e-04" style="stop-color:#F59E1C"/>
						<stop  offset="0.9996" style="stop-color:#EA7F22"/>
					</linearGradient>
					<path style="fill:url(#SVGID_00000180354940782643252110000003600544645719378879_);" d="M19.9,2.1l-6.1,6.1c-1,1-1,2.6,0,3.7
						l6.1,6.1c1,1,2.7,1,3.7,0l6.1-6.1c1-1,1-2.6,0-3.7l-6.1-6.1C22.6,1.1,21,1.1,19.9,2.1z"/>
				</g>
				<g>
					
						<linearGradient id="SVGID_00000173158283477546579610000006183083722877159356_" gradientUnits="userSpaceOnUse" x1="21.9239" y1="25.4772" x2="21.9239" y2="42.2333">
						<stop  offset="0" style="stop-color:#2CACE2"/>
						<stop  offset="1" style="stop-color:#007EBB"/>
					</linearGradient>
					<path style="fill:url(#SVGID_00000173158283477546579610000006183083722877159356_);" d="M20.1,26.1L14,32.1c-1,1-1,2.6,0,3.7
						l6.1,6.1c1,1,2.7,1,3.7,0l6.1-6.1c1-1,1-2.6,0-3.7l-6.1-6.1C22.7,25.1,21.1,25.1,20.1,26.1z"/>
				</g>
			</g>
		</g>
	</g>
</g>
</svg>
